<svg id="office-file-doc" xmlns="http://www.w3.org/2000/svg" width="20" height="24" viewBox="0 0 20 24">
  <path id="Path_293" data-name="Path 293" d="M6.451,13.327c-.1-.046-.326-.048-.326.164v3.978a.237.237,0,0,0,.327.209,2.374,2.374,0,0,0,0-4.351Z" transform="translate(-2)" fill="#2976c3"/>
  <path id="Path_294" data-name="Path 294" d="M17.5,6h3.9a.25.25,0,0,0,.177-.427L16.427.425A.25.25,0,0,0,16,.6V4.5A1.5,1.5,0,0,0,17.5,6Z" transform="translate(-2)" fill="#2976c3"/>
  <path id="Path_295" data-name="Path 295" d="M12,13.123a.877.877,0,0,0-.875.875v3a.875.875,0,1,0,1.75,0V14A.877.877,0,0,0,12,13.123Z" transform="translate(-2)" fill="#2976c3"/>
  <path id="Path_296" data-name="Path 296" d="M21.75,7H17.5A2.5,2.5,0,0,1,15,4.5V.248A.25.25,0,0,0,14.75,0H4A2,2,0,0,0,2,2V22a2,2,0,0,0,2,2H20a2,2,0,0,0,2-2V7.248A.25.25,0,0,0,21.75,7ZM5.5,19.123a.625.625,0,0,1-.625-.625v-6a.625.625,0,0,1,.625-.625,3.625,3.625,0,0,1,0,7.25ZM14.125,17a2.125,2.125,0,0,1-4.25,0V14a2.125,2.125,0,0,1,4.25,0Zm4.375.875a.625.625,0,0,1,0,1.25,3.625,3.625,0,1,1,0-7.25.625.625,0,1,1,0,1.25,2.375,2.375,0,0,0,0,4.75Z" transform="translate(-2)" fill="#2976c3"/>
</svg>
