<svg xmlns="http://www.w3.org/2000/svg" width="1340" height="282" viewBox="0 0 1340 282">
  <g id="Light_AppDetails" transform="translate(-480 -367)">
    <rect id="Rectangle_151690" data-name="Rectangle 151690" width="1340" height="282" transform="translate(480 367)" fill="#fff"/>
    <g id="Group_195171" data-name="Group 195171" transform="translate(464 361)">
      <g id="Group_191185" data-name="Group 191185" transform="translate(-280 -258)">
        <g id="Rectangle_806" data-name="Rectangle 806" transform="translate(320 304)" fill="#fff" stroke="#dde4f7" stroke-width="1">
          <rect width="404" height="202" rx="8" stroke="none"/>
          <rect x="0.5" y="0.5" width="403" height="201" rx="7.5" fill="none"/>
        </g>
        <text id="Zapier" transform="translate(340 401)" font-size="20" font-family="Poppins-Medium, Poppins" font-weight="500"><tspan x="0" y="0">Zapier</tspan></text>
        <text id="Build_custom_automations_and_integrations_with_apps." data-name="Build custom automations and integrations with apps." transform="translate(340 416)" fill="#797a7a" font-size="14" font-family="Poppins-Regular, Poppins"><tspan x="0" y="15">Build custom automations and integrations </tspan><tspan x="0" y="36">with apps.</tspan></text>
        <g id="Zapier-2" data-name="Zapier">
          <g id="Rectangle_150989" data-name="Rectangle 150989" transform="translate(340 324)" fill="none" stroke="#dde4f7" stroke-width="1">
            <rect width="60" height="48" rx="8" stroke="none"/>
            <rect x="0.5" y="0.5" width="59" height="47" rx="7.5" fill="none"/>
          </g>
          <path id="Path_170379" data-name="Path 170379" d="M24.251,19.509a11.36,11.36,0,0,1-.73,4.007,11.352,11.352,0,0,1-4.013.733h-.017a11.36,11.36,0,0,1-4.007-.73,11.352,11.352,0,0,1-.733-4.013V19.49a11.367,11.367,0,0,1,.73-4.007,11.352,11.352,0,0,1,4.013-.733h.017a11.4,11.4,0,0,1,4.013.73,11.367,11.367,0,0,1,.73,4.007v.021Zm13.987-3.175H27.145l7.844-7.842A19.157,19.157,0,0,0,30.51,4.017l-7.842,7.84V.764A19.1,19.1,0,0,0,19.512.5h-.021a19.088,19.088,0,0,0-3.156.264V11.857L8.492,4.013A18.957,18.957,0,0,0,6.067,6.067,19.2,19.2,0,0,0,4.017,8.49l7.84,7.844H.764S.5,18.416.5,19.493v.013a19.133,19.133,0,0,0,.264,3.16H11.857L4.013,30.508a19.125,19.125,0,0,0,4.479,4.479l7.842-7.844V38.236a19.065,19.065,0,0,0,3.154.264h.027a19.043,19.043,0,0,0,3.152-.264V27.143l7.842,7.844a18.958,18.958,0,0,0,2.425-2.054,19.207,19.207,0,0,0,2.052-2.425l-7.842-7.842H38.236a19.065,19.065,0,0,0,.264-3.154v-.027a19.043,19.043,0,0,0-.264-3.152Z" transform="translate(350.5 328.5)" fill="#ff4a00"/>
        </g>
        <g id="Group_191175" data-name="Group 191175">
          <text id="View_integration" data-name="View integration" transform="translate(656 481)" fill="#7e2eef" font-size="14" font-family="Poppins-Regular, Poppins"><tspan x="-56" y="0">View Integration</tspan></text>
          <g id="Group_191160" data-name="Group 191160" transform="translate(673.102 324)">
            <rect id="Rectangle_150990" data-name="Rectangle 150990" width="40" height="20" rx="10" transform="translate(-0.102)" fill="#7e2eef"/>
            <rect id="Rectangle_150991" data-name="Rectangle 150991" width="18" height="18" rx="9" transform="translate(20.898 1)" fill="#fff"/>
          </g>
          <path id="Path_170294" data-name="Path 170294" d="M20695,4886h364" transform="translate(-20355 -4425)" fill="none" stroke="#c7c7c7" stroke-width="0.5"/>
        </g>
      </g>
      <g id="Group_192489" data-name="Group 192489" transform="translate(-112)">
        <g id="Rectangle_806-2" data-name="Rectangle 806" transform="translate(596 46)" fill="#fff" stroke="#dde4f7" stroke-width="1">
          <rect width="404" height="202" rx="8" stroke="none"/>
          <rect x="0.5" y="0.5" width="403" height="201" rx="7.5" fill="none"/>
        </g>
        <g id="Group_191176" data-name="Group 191176" transform="translate(-266 -258)">
          <text id="Adobe_XD" data-name="Adobe XD" transform="translate(882 401)" font-size="20" font-family="Poppins-Medium, Poppins" font-weight="500"><tspan x="0" y="0">Adobe XD</tspan></text>
          <text id="Build_custom_automations_and_integrations_with_apps.-2" data-name="Build custom automations and integrations with apps." transform="translate(882 416)" fill="#797a7a" font-size="14" font-family="Poppins-Regular, Poppins"><tspan x="0" y="15">Build custom automations and integrations </tspan><tspan x="0" y="36">with apps.</tspan></text>
          <g id="Group_191362" data-name="Group 191362">
            <g id="Rectangle_150989-2" data-name="Rectangle 150989" transform="translate(882 324)" fill="none" stroke="#dde4f7" stroke-width="1">
              <rect width="60" height="48" rx="8" stroke="none"/>
              <rect x="0.5" y="0.5" width="59" height="47" rx="7.5" fill="none"/>
            </g>
            <g id="xd-colored" transform="translate(893 329)">
              <rect id="Rectangle_151029" data-name="Rectangle 151029" width="38" height="38" fill="#450034"/>
              <g id="Group_191467" data-name="Group 191467" transform="translate(4.448 10.212)">
                <path id="Path_170380" data-name="Path 170380" d="M11.554,20.8l-1.385-2.78c-.557-1.075-.939-1.875-1.362-2.765H8.761c-.321.891-.7,1.7-1.2,2.757L6.295,20.8H2.341l4.438-7.779L2.5,5.438H6.492L7.836,8.233c.45.935.781,1.695,1.146,2.556H9.04c.371-.975.656-1.659,1.049-2.546l1.29-2.8h3.965l-4.328,7.494L15.575,20.8H11.558Z" transform="translate(-2.341 -5.318)" fill="#ff61f6"/>
                <path id="Path_170381" data-name="Path 170381" d="M10.3,5.706a30.622,30.622,0,0,1,4.683-.331c2.913,0,4.817.538,6.289,1.649a6.776,6.776,0,0,1,2.6,5.78,7.789,7.789,0,0,1-2.54,6.222c-1.617,1.347-4.091,1.989-7.085,1.989A29.3,29.3,0,0,1,10.3,20.79V5.706ZM13.764,18.24a8.025,8.025,0,0,0,1.212.059c3.145.028,5.212-1.71,5.212-5.383.008-3.192-1.86-4.868-4.847-4.868a7.551,7.551,0,0,0-1.577.133Z" transform="translate(4.819 -5.375)" fill="#ff61f6"/>
              </g>
            </g>
          </g>
        </g>
        <g id="Group_191181" data-name="Group 191181" transform="translate(276 -258)">
          <text id="View_integration-2" data-name="View integration" transform="translate(647 481)" fill="#7e2eef" font-size="14" font-family="Poppins-Regular, Poppins"><tspan x="-56" y="0">View Integration</tspan></text>
          <g id="Group_191160-2" data-name="Group 191160" transform="translate(664.102 324)">
            <rect id="Rectangle_150990-2" data-name="Rectangle 150990" width="40" height="20" rx="10" transform="translate(-0.102)" fill="#7e2eef"/>
            <rect id="Rectangle_150991-2" data-name="Rectangle 150991" width="18" height="18" rx="9" transform="translate(20.898 1)" fill="#fff"/>
          </g>
          <path id="Path_170294-2" data-name="Path 170294" d="M20695,4886h364" transform="translate(-20355 -4425)" fill="none" stroke="#c7c7c7" stroke-width="0.5"/>
        </g>
      </g>
      <g id="Group_192490" data-name="Group 192490" transform="translate(-206)">
        <g id="Rectangle_806-3" data-name="Rectangle 806" transform="translate(1134 46)" fill="#fff" stroke="#dde4f7" stroke-width="1">
          <rect width="404" height="202" rx="8" stroke="none"/>
          <rect x="0.5" y="0.5" width="403" height="201" rx="7.5" fill="none"/>
        </g>
        <text id="Figma" transform="translate(1154 143)" font-size="20" font-family="Poppins-Medium, Poppins" font-weight="500"><tspan x="0" y="0">Figma</tspan></text>
        <text id="Build_custom_automations_and_integrations_with_apps.-3" data-name="Build custom automations and integrations with apps." transform="translate(1154 158)" fill="#797a7a" font-size="14" font-family="Poppins-Regular, Poppins"><tspan x="0" y="15">Build custom automations and integrations </tspan><tspan x="0" y="36">with apps.</tspan></text>
        <g id="Group_191363" data-name="Group 191363" transform="translate(-262 -258)">
          <g id="Rectangle_150989-3" data-name="Rectangle 150989" transform="translate(1416 324)" fill="#fff" stroke="#dde4f7" stroke-width="1">
            <rect width="60" height="48" rx="8" stroke="none"/>
            <rect x="0.5" y="0.5" width="59" height="47" rx="7.5" fill="none"/>
          </g>
          <g id="figma-colored" transform="translate(1433 329)">
            <path id="Path_170389" data-name="Path 170389" d="M6.5,26A6.421,6.421,0,0,0,13,19.667V13.334H6.5A6.335,6.335,0,1,0,6.5,26Z" transform="translate(0 12.001)" fill="#0acf83"/>
            <path id="Path_170390" data-name="Path 170390" d="M0,13A6.422,6.422,0,0,1,6.5,6.667H13V19.334H6.5A6.421,6.421,0,0,1,0,13H0Z" transform="translate(0 6)" fill="#a259ff"/>
            <path id="Path_170391" data-name="Path 170391" d="M0,6.333A6.422,6.422,0,0,1,6.5,0H13V12.667H6.5A6.421,6.421,0,0,1,0,6.335H0Z" fill="#f24e1e"/>
            <path id="Path_170392" data-name="Path 170392" d="M6.667,0h6.5a6.422,6.422,0,0,1,6.5,6.333,6.421,6.421,0,0,1-6.5,6.333h-6.5V0Z" transform="translate(6.334)" fill="#ff7262"/>
            <path id="Path_170393" data-name="Path 170393" d="M19.666,13a6.418,6.418,0,0,1-6.5,6.333A6.42,6.42,0,0,1,6.667,13a6.42,6.42,0,0,1,6.5-6.333A6.421,6.421,0,0,1,19.666,13Z" transform="translate(6.334 6)" fill="#1abcfe"/>
          </g>
        </g>
        <g id="Group_191184" data-name="Group 191184" transform="translate(814 -258)">
          <text id="View_integration-3" data-name="View integration" transform="translate(647 481)" fill="#7e2eef" font-size="14" font-family="Poppins-Regular, Poppins"><tspan x="-56" y="0">View Integration</tspan></text>
          <g id="Group_191160-3" data-name="Group 191160" transform="translate(664.102 324)">
            <rect id="Rectangle_150990-3" data-name="Rectangle 150990" width="40" height="20" rx="10" transform="translate(-0.102)" fill="#7e2eef"/>
            <rect id="Rectangle_150991-3" data-name="Rectangle 150991" width="18" height="18" rx="9" transform="translate(20.898 1)" fill="#fff"/>
          </g>
          <path id="Path_170294-3" data-name="Path 170294" d="M20695,4886h364" transform="translate(-20355 -4425)" fill="none" stroke="#c7c7c7" stroke-width="0.5"/>
        </g>
      </g>
    </g>
  </g>
</svg>
