<svg xmlns="http://www.w3.org/2000/svg" xmlns:xlink="http://www.w3.org/1999/xlink" width="60" height="60" viewBox="0 0 60 60">
  <defs>
    <linearGradient id="linear-gradient" x2="1" y2="1" gradientUnits="objectBoundingBox">
      <stop offset="0" stop-color="#ac31e1"/>
      <stop offset="0.477" stop-color="#f336a9"/>
      <stop offset="1" stop-color="#fea234"/>
    </linearGradient>
  </defs>
  <g id="Group_196240" data-name="Group 196240" transform="translate(-225 -5903)">
    <rect id="Rectangle_153394" data-name="Rectangle 153394" width="60" height="60" rx="8" transform="translate(225 5903)" fill="url(#linear-gradient)"/>
    <g id="Group_196234" data-name="Group 196234" transform="translate(237.813 5915.813)">
      <path id="Path_203281" data-name="Path 203281" d="M6.521,27.05H5.454a4.267,4.267,0,0,1-4.267-4.267V18.517A4.267,4.267,0,0,1,5.454,14.25H6.521a1.067,1.067,0,0,1,1.067,1.067V25.983A1.067,1.067,0,0,1,6.521,27.05Z" transform="translate(0 -1.329)" fill="none" stroke="#fff" stroke-linecap="round" stroke-linejoin="round" stroke-width="2"/>
      <path id="Path_203282" data-name="Path 203282" d="M31.821,27.05H30.754a1.067,1.067,0,0,1-1.067-1.067V15.317a1.067,1.067,0,0,1,1.067-1.067h1.067a4.267,4.267,0,0,1,4.267,4.267v4.267A4.267,4.267,0,0,1,31.821,27.05Z" transform="translate(-2.9 -1.329)" fill="none" stroke="#fff" stroke-linecap="round" stroke-linejoin="round" stroke-width="2"/>
      <path id="Path_203283" data-name="Path 203283" d="M5.938,12.921A11.733,11.733,0,0,1,17.671,1.187h0A11.733,11.733,0,0,1,29.4,12.921" transform="translate(-0.483)" fill="none" stroke="#fff" stroke-linecap="round" stroke-linejoin="round" stroke-width="2"/>
      <path id="Path_203284" data-name="Path 203284" d="M23.75,33.833h3.2a4.267,4.267,0,0,0,4.267-4.267h0V28.5" transform="translate(-2.296 -2.779)" fill="none" stroke="#fff" stroke-linecap="round" stroke-linejoin="round" stroke-width="2"/>
      <path id="Path_203285" data-name="Path 203285" d="M20.892,36.329H18.758A2.133,2.133,0,0,1,16.625,34.2h0a2.133,2.133,0,0,1,2.133-2.133h2.133A2.133,2.133,0,0,1,23.025,34.2h0A2.133,2.133,0,0,1,20.892,36.329Z" transform="translate(-1.571 -3.142)" fill="none" stroke="#fff" stroke-linecap="round" stroke-linejoin="round" stroke-width="2"/>
    </g>
  </g>
</svg>
