<svg xmlns="http://www.w3.org/2000/svg" width="261.732" height="36" viewBox="0 0 261.732 36">
  <g id="Group_196254" data-name="Group 196254" transform="translate(235 2710)">
    <path id="Path_188912" data-name="Path 188912" d="M53.081,7.854a9.662,9.662,0,1,0,6.556,16.7V26.3h3.038V17.977c.008-.179.012-.36.011-.542a9.709,9.709,0,0,0-9.6-9.581Zm.042,16.322a6.656,6.656,0,1,1,6.549-6.531,1.383,1.383,0,0,1-.009.2h-.023v.326a6.7,6.7,0,0,1-6.518,6.009Z" transform="translate(-234.862 -2709.994)" fill="#fff"/>
    <path id="Path_188913" data-name="Path 188913" d="M74.176,7.859a9.667,9.667,0,0,0-6.748,2.649V2.08H64.392V17.846h.017a9.692,9.692,0,1,0,9.767-9.987Zm.037,16.322a6.667,6.667,0,0,1-6.793-6.329v-.678a6.676,6.676,0,1,1,6.793,7.006Z" transform="translate(-234.795 -2709.998)" fill="#fff"/>
    <path id="Path_188914" data-name="Path 188914" d="M95.273,7.854A9.668,9.668,0,0,0,85.5,17.6v.239h-.017V33.609H88.52V24.517A9.67,9.67,0,1,0,95.268,7.847Zm.043,16.322a6.667,6.667,0,0,1-6.792-6.307v-.028c0-.154-.011-.3,0-.449a6.678,6.678,0,1,1,6.8,6.792Z" transform="translate(-234.728 -2709.994)" fill="#fff"/>
    <path id="Path_188915" data-name="Path 188915" d="M18,20.794A2.985,2.985,0,1,0,15,17.809,2.989,2.989,0,0,0,18,20.794Z" transform="translate(-234.952 -2709.989)" fill="#b84297"/>
    <path id="Path_188916" data-name="Path 188916" d="M18.011,0a18.017,18.017,0,0,0-7.887,1.81V5.674a14.657,14.657,0,0,1,22.55,11.949V28.493A18.007,18.007,0,0,0,18.011,0Z" transform="translate(-234.968 -2710)" fill="#fff"/>
    <path id="Path_188917" data-name="Path 188917" d="M18.039,32.637A14.652,14.652,0,0,1,3.389,18.7H3.372V7.5A18.04,18.04,0,0,0,30.83,30.712V25.17a14.672,14.672,0,0,1-12.79,7.467Z" transform="translate(-235 -2709.995)" fill="#fff"/>
    <path id="Path_188918" data-name="Path 188918" d="M18.019,22.637A4.865,4.865,0,0,1,15.011,21.6v3.453a7.9,7.9,0,1,0-4.888-7.308V27.9a12.8,12.8,0,0,0,3.007,1.765V17.739a4.887,4.887,0,1,1,4.888,4.893Z" transform="translate(-234.968 -2709.993)" fill="#fff"/>
    <path id="Path_188919" data-name="Path 188919" d="M8.255,26.039V17.832A9.77,9.77,0,1,1,15.022,27.1v3.113a12.776,12.776,0,0,0,15.5-9.666A12.747,12.747,0,0,0,20.468,5.329a12.808,12.808,0,0,0-12.213,4.3V2.893A18.084,18.084,0,0,0,5.243,5.317v12.9A12.656,12.656,0,0,0,8.255,26.039Z" transform="translate(-234.983 -2709.998)" fill="#fff"/>
    <path id="Path_188934" data-name="Path 188934" d="M-56.449,1.944A8.835,8.835,0,0,0-49.49-1.312l-2-1.6A6.365,6.365,0,0,1-56.423-.577a6.627,6.627,0,0,1-6.512-6.8,6.7,6.7,0,0,1,6.512-6.88,6.365,6.365,0,0,1,4.937,2.337l2-1.6a8.835,8.835,0,0,0-6.959-3.256,9.314,9.314,0,0,0-9.191,9.4A9.246,9.246,0,0,0-56.449,1.944Zm15.178,0a6.308,6.308,0,0,0,6.46-6.46,6.286,6.286,0,0,0-6.46-6.434A6.265,6.265,0,0,0-47.7-4.516,6.287,6.287,0,0,0-41.271,1.944Zm0-2.416a3.878,3.878,0,0,1-3.86-4.044,3.871,3.871,0,0,1,3.86-4.018,3.892,3.892,0,0,1,3.886,4.018A3.9,3.9,0,0,1-41.271-.472Zm24.133-10.478a4.52,4.52,0,0,0-4.2,2.573,4.28,4.28,0,0,0-4.018-2.573,4.1,4.1,0,0,0-3.834,2.232v-1.917h-2.573V1.629h2.573V-4.962a3.166,3.166,0,0,1,3.23-3.519c1.523,0,2.573,1.234,2.573,3.23v6.88h2.6V-4.489c0-2.573,1.05-4.018,3.072-3.991,1.654,0,2.7,1.234,2.7,3.23v6.88h2.6V-5.382C-12.412-8.875-14.066-10.949-17.139-10.949Zm23.03,0a4.52,4.52,0,0,0-4.2,2.573,4.28,4.28,0,0,0-4.018-2.573A4.1,4.1,0,0,0-6.162-8.717v-1.917H-8.735V1.629h2.573V-4.962a3.166,3.166,0,0,1,3.23-3.519c1.523,0,2.573,1.234,2.573,3.23v6.88h2.6V-4.489c0-2.573,1.05-4.018,3.072-3.991,1.654,0,2.7,1.234,2.7,3.23v6.88h2.6V-5.382C10.618-8.875,8.964-10.949,5.891-10.949ZM26.006-4.568a6.008,6.008,0,0,0-6.145-6.381,6.159,6.159,0,0,0-6.329,6.407,6.2,6.2,0,0,0,6.329,6.486,6.208,6.208,0,0,0,5.62-3.151L23.433-2.231A4,4,0,0,1,19.966-.445a3.514,3.514,0,0,1-3.781-3.02h9.769C25.98-3.859,26.006-4.227,26.006-4.568ZM16.211-5.54a3.437,3.437,0,0,1,3.676-3.02,3.346,3.346,0,0,1,3.545,3.02Zm18.854-5.409c-1.576,0-2.81.919-3.44,3.072v-2.757h-2.6V1.629h2.6V-2.782c0-3.309,1.05-5.7,3.282-5.7a4.351,4.351,0,0,1,1.812.42l.446-2.442A4.722,4.722,0,0,0,35.066-10.949Zm9.69,12.893a6.148,6.148,0,0,0,4.779-2.1l-1.707-1.6a4.028,4.028,0,0,1-3.02,1.287,3.992,3.992,0,0,1-4.1-4.044,3.971,3.971,0,0,1,4.1-4.018,4.028,4.028,0,0,1,3.02,1.287l1.707-1.6a6.148,6.148,0,0,0-4.779-2.1,6.386,6.386,0,0,0-6.617,6.434A6.407,6.407,0,0,0,44.755,1.944ZM53.6-13.444A1.689,1.689,0,0,0,55.364-15.1,1.689,1.689,0,0,0,53.6-16.753,1.705,1.705,0,0,0,51.845-15.1,1.705,1.705,0,0,0,53.6-13.444ZM54.892,1.629V-10.634H52.318V1.629ZM68.284-8.8a4.788,4.788,0,0,0-4.254-2.153,6.126,6.126,0,0,0-6.066,6.434,6.148,6.148,0,0,0,5.961,6.46,4.97,4.97,0,0,0,4.359-2.39V1.629h2.573V-10.634H68.284ZM64.371-.472a3.916,3.916,0,0,1-3.808-4.044,3.9,3.9,0,0,1,3.755-4.018,4.017,4.017,0,0,1,3.939,4.018A3.981,3.981,0,0,1,64.371-.472Zm12.92,2.1V-17.3H74.718V1.629Z" transform="translate(-50.559 -2685.586)" fill="#00cffc"/>
  </g>
</svg>
