<svg id="Bootstrap" xmlns="http://www.w3.org/2000/svg" xmlns:xlink="http://www.w3.org/1999/xlink" width="100.392" height="80" viewBox="0 0 100.392 80">
  <defs>
    <linearGradient id="linear-gradient" x1="0.151" y1="0.033" x2="0.5" y2="1" gradientUnits="objectBoundingBox">
      <stop offset="0" stop-color="#8237ed"/>
      <stop offset="1" stop-color="#5a2ae3"/>
    </linearGradient>
  </defs>
  <path id="Path_180929" data-name="Path 180929" d="M11.075,10.455A10,10,0,0,1,20.851,0h58.7a10,10,0,0,1,9.777,10.455c-.182,5.225.054,11.993,1.758,17.512,1.709,5.536,4.59,9.035,9.31,9.484v5.1c-4.719.45-7.6,3.949-9.31,9.484-1.7,5.519-1.94,12.287-1.758,17.512A10,10,0,0,1,79.548,80h-58.7a10,10,0,0,1-9.776-10.455c.182-5.225-.055-11.993-1.758-17.512C7.608,46.5,4.72,43,0,42.549v-5.1C4.719,37,7.608,33.5,9.317,27.967c1.7-5.519,1.94-12.287,1.758-17.512Z" fill="url(#linear-gradient)"/>
  <path id="Path_180930" data-name="Path 180930" d="M195.392,138.006c9.274,0,14.862-4.541,14.862-12.03,0-5.661-3.987-9.76-9.908-10.409v-.236a9.506,9.506,0,0,0,7.764-9.259c0-6.428-5.075-10.615-12.808-10.615H177.9v42.549Zm-10.724-37.153h9c4.894,0,7.673,2.182,7.673,6.133,0,4.217-3.232,6.575-9.093,6.575h-7.582V100.853Zm0,31.757V118.6h8.942c6.4,0,9.727,2.359,9.727,6.959S200.1,132.61,194,132.61Z" transform="translate(-143.018 -76.74)" fill="#fff" stroke="#fff" stroke-width="1"/>
</svg>
