<svg xmlns="http://www.w3.org/2000/svg" width="247.933" height="80" viewBox="0 0 247.933 80">
  <g id="Capterra" transform="translate(-0.315 -0.7)">
    <g id="Group_196243" data-name="Group 196243" transform="translate(0.315 0.7)">
      <path id="Path_203290" data-name="Path 203290" d="M235.123.7H31.552A13.111,13.111,0,0,0,18.516,12.664l-15.357,5.8A4.439,4.439,0,0,0,.569,24.093a4.079,4.079,0,0,0,2.679,2.589l15.179,5.089v35.8A13.146,13.146,0,0,0,31.552,80.7H235.123a13.146,13.146,0,0,0,13.125-13.125V13.825A13.146,13.146,0,0,0,235.123.7Z" transform="translate(-0.315 -0.7)" fill="#002e47"/>
      <path id="Path_203291" data-name="Path 203291" d="M55.769,23.629a5.34,5.34,0,0,1,4.732-2.5,12.1,12.1,0,0,1,1.786.179,4.668,4.668,0,0,1,1.429.536,5.062,5.062,0,0,1,1.161.714c.268.268.625.536.893.8a4.7,4.7,0,0,0,1.071-1.25,1.969,1.969,0,0,0,.536-1.339,2.607,2.607,0,0,0-.179-.8,3.883,3.883,0,0,0-.536-.625c-.268-.179-.536-.446-.8-.625A9.759,9.759,0,0,0,64.519,18a7.412,7.412,0,0,0-1.875-.536,11.083,11.083,0,0,0-2.411-.268,11.628,11.628,0,0,0-4.643.893,9.022,9.022,0,0,0-3.3,2.5,10.088,10.088,0,0,0-1.964,3.75,14.093,14.093,0,0,0-.625,4.732,16.8,16.8,0,0,0,.625,4.732,10.584,10.584,0,0,0,1.875,3.75,8.787,8.787,0,0,0,3.3,2.411,12.374,12.374,0,0,0,4.732.893,23.527,23.527,0,0,0,2.5-.179,15.387,15.387,0,0,0,1.875-.625,5.455,5.455,0,0,0,1.25-.625c.268-.179.446-.357.714-.536a4.952,4.952,0,0,0,.536-.714,1.518,1.518,0,0,0,0-1.429c-.089-.268-.268-.446-.357-.714-.179-.268-.357-.446-.536-.714l-.446-.625a8.648,8.648,0,0,1-.8.625,7.448,7.448,0,0,1-1.071.714,9.01,9.01,0,0,1-1.339.625,5.757,5.757,0,0,1-1.786.268,6.083,6.083,0,0,1-3.036-.714,6.279,6.279,0,0,1-1.964-1.786A7.255,7.255,0,0,1,54.7,31.843a17.437,17.437,0,0,1-.268-3.036,16.44,16.44,0,0,1,.268-2.946,8.321,8.321,0,0,1,1.071-2.232Z" transform="translate(-5.604 -2.468)" fill="#002e47"/>
      <path id="Path_203292" data-name="Path 203292" d="M59.694,42.306a13.845,13.845,0,0,1-5-.982,9.45,9.45,0,0,1-3.839-2.857,10.955,10.955,0,0,1-2.232-4.286A16.818,16.818,0,0,1,48,29a17.263,17.263,0,0,1,.714-5.179,12.278,12.278,0,0,1,2.232-4.286,10.815,10.815,0,0,1,3.839-2.857,12.021,12.021,0,0,1,5.268-.982,13.627,13.627,0,0,1,2.679.268,19.392,19.392,0,0,1,2.143.625,6.761,6.761,0,0,1,1.607.8,6.814,6.814,0,0,1,.982.714,3.893,3.893,0,0,1,.8.982,3.01,3.01,0,0,1,.446,1.518,3.994,3.994,0,0,1-.8,2.232,17.878,17.878,0,0,1-1.25,1.429,1.432,1.432,0,0,1-2.054-.089,5.777,5.777,0,0,0-.8-.714,1.853,1.853,0,0,0-.893-.536,4.485,4.485,0,0,0-1.161-.446,6.939,6.939,0,0,0-1.429-.179,3.966,3.966,0,0,0-3.571,1.786,8.189,8.189,0,0,0-.8,2.054,13.627,13.627,0,0,0-.268,2.679,14.535,14.535,0,0,0,.268,2.768,8.189,8.189,0,0,0,.8,2.054,5.111,5.111,0,0,0,1.429,1.339,4.585,4.585,0,0,0,2.232.536,5.4,5.4,0,0,0,1.339-.179,5.462,5.462,0,0,0,1.071-.446,6.266,6.266,0,0,0,.8-.536c.268-.268.536-.446.714-.625a1.408,1.408,0,0,1,2.054.179l.446.536c.179.268.446.536.625.8a8.257,8.257,0,0,1,.446.893,5.118,5.118,0,0,1,.357,1.25,2.62,2.62,0,0,1-.357,1.429.087.087,0,0,1-.089.089,2.791,2.791,0,0,1-.8.982,6.255,6.255,0,0,1-.893.714,7.914,7.914,0,0,1-1.518.714,7.839,7.839,0,0,1-2.054.625,15.473,15.473,0,0,1-2.857.268c.268.089.089.089,0,.089Zm.089-23.661a9.553,9.553,0,0,0-3.839.8A7.037,7.037,0,0,0,53.177,21.5a9.3,9.3,0,0,0-1.7,3.214,14.407,14.407,0,0,0-.625,4.375,17.793,17.793,0,0,0,.536,4.375A10.856,10.856,0,0,0,53,36.681a7.037,7.037,0,0,0,2.768,2.054,10.855,10.855,0,0,0,4.107.8,20.314,20.314,0,0,0,2.321-.179,4.4,4.4,0,0,0,1.518-.536,11.956,11.956,0,0,0,1.071-.536,1.568,1.568,0,0,0,.446-.357l.268-.268v-.089a5.121,5.121,0,0,0-.357-.625c-.268.179-.625.357-.893.536a12.649,12.649,0,0,1-1.607.714,5.9,5.9,0,0,1-2.143.268,8.734,8.734,0,0,1-3.661-.8,7.519,7.519,0,0,1-2.5-2.232,7.944,7.944,0,0,1-1.25-3.125A13.869,13.869,0,0,1,52.73,29a13.145,13.145,0,0,1,.357-3.214,9.7,9.7,0,0,1,1.161-3.036,7.017,7.017,0,0,1,6.071-3.214,9.375,9.375,0,0,1,2.143.268,13.017,13.017,0,0,1,1.7.625c.446.268.893.536,1.25.8v-.089c.179-.179.179-.357.268-.536a1.232,1.232,0,0,0-.268-.357,3.78,3.78,0,0,0-.625-.446,3.018,3.018,0,0,0-1.071-.536l-1.607-.536a15.133,15.133,0,0,0-2.054-.089h-.268Z" transform="translate(-5.422 -2.306)" fill="#002e47"/>
      <path id="Path_203293" data-name="Path 203293" d="M86.373,30.95a9.822,9.822,0,0,0-.357-2.768,4.431,4.431,0,0,0-1.161-1.964A5.289,5.289,0,0,0,82.8,25.057a11.986,11.986,0,0,0-3.125-.357,23.528,23.528,0,0,0-2.5.179,18.791,18.791,0,0,0-2.143.536,4.528,4.528,0,0,0-1.429.8,1.518,1.518,0,0,0-.536.893,4.708,4.708,0,0,0,.268,1.071,5.692,5.692,0,0,0,.714,1.25,10.274,10.274,0,0,1,2.232-1.071,6.337,6.337,0,0,1,2.589-.446,3.227,3.227,0,0,1,2.232.536,2.1,2.1,0,0,1,.714,1.875v.625H80.3l-2.679.268a9.465,9.465,0,0,0-2.679.893,5.663,5.663,0,0,0-2.143,1.7,4,4,0,0,0-.8,2.857,6.707,6.707,0,0,0,.446,2.321,4.364,4.364,0,0,0,1.25,1.607,5.921,5.921,0,0,0,1.7.8,6.8,6.8,0,0,0,1.875.268,9.07,9.07,0,0,0,3.036-.536,7.637,7.637,0,0,0,1.964-1.339,2.117,2.117,0,0,0,.8,1.339,2.691,2.691,0,0,0,1.875.446,4.347,4.347,0,0,0,1.071-.089,5.775,5.775,0,0,0,1.161-.357,7.6,7.6,0,0,1-.8-3.929ZM82,36.843a.965.965,0,0,1-.268.625,2.407,2.407,0,0,1-.714.625,4.785,4.785,0,0,1-.982.446,5.27,5.27,0,0,1-1.25.179A2.193,2.193,0,0,1,76.909,38a2.675,2.675,0,0,1-.536-1.607,2.1,2.1,0,0,1,.446-1.429,2.625,2.625,0,0,1,1.071-.893,3.01,3.01,0,0,1,1.518-.446,9.89,9.89,0,0,1,1.7-.179H82Z" transform="translate(-7.993 -3.271)" fill="#002e47"/>
      <path id="Path_203294" data-name="Path 203294" d="M77.263,43.011H77a10.127,10.127,0,0,1-2.232-.268,4.867,4.867,0,0,1-2.143-1.071,5.663,5.663,0,0,1-1.7-2.143,6.728,6.728,0,0,1-.625-2.946,5.888,5.888,0,0,1,1.071-3.661,6.869,6.869,0,0,1,2.5-2.054,1.44,1.44,0,0,1-1.161-.536,7,7,0,0,1-.982-1.607,7.542,7.542,0,0,1-.446-1.518v-.268a2.819,2.819,0,0,1,1.161-1.964,8.443,8.443,0,0,1,1.786-.982,11.99,11.99,0,0,1,2.411-.625,14.535,14.535,0,0,1,2.768-.268,11.662,11.662,0,0,1,3.482.446,6.168,6.168,0,0,1,2.679,1.518,5.865,5.865,0,0,1,1.518,2.589,9.359,9.359,0,0,1,.357,3.125V37.3a6.338,6.338,0,0,0,.625,3.125,1.741,1.741,0,0,1,.089,1.161,1.421,1.421,0,0,1-.8.8,6.691,6.691,0,0,1-1.429.446,6.758,6.758,0,0,1-1.339.089,4.063,4.063,0,0,1-2.679-.714.087.087,0,0,1-.089-.089c-.089-.089-.268-.179-.357-.357a3.3,3.3,0,0,1-.982.446A5.574,5.574,0,0,1,77.263,43.011Zm-.536-10.179a2.767,2.767,0,0,0-1.161.536,4.779,4.779,0,0,0-1.607,1.339,3.3,3.3,0,0,0-.536,1.875v.089a3.623,3.623,0,0,0,.357,1.7,4.2,4.2,0,0,0,.8,1.071,2.767,2.767,0,0,0,1.161.536,3.932,3.932,0,0,0,1.429.179,4.177,4.177,0,0,0,1.518-.179,3.772,3.772,0,0,1-2.946-1.161l-.089-.089a4.267,4.267,0,0,1-.893-2.5,3.348,3.348,0,0,1,.714-2.232A3.153,3.153,0,0,1,76.727,32.832Zm6.964,7.054a1.1,1.1,0,0,0,.893.179h.357a8.269,8.269,0,0,1-.268-2.946V30.779a9.732,9.732,0,0,0-.268-2.321,3.568,3.568,0,0,0-.8-1.339,3.724,3.724,0,0,0-1.429-.8,9.217,9.217,0,0,0-2.679-.357,20.314,20.314,0,0,0-2.321.179,7.412,7.412,0,0,0-1.875.536,2.682,2.682,0,0,0-.982.536.312.312,0,0,0,.089.179c.357-.179.714-.357,1.161-.536a7.521,7.521,0,0,1,3.125-.625,4.6,4.6,0,0,1,3.036.8c.089.089.179.089.268.179a3.842,3.842,0,0,1,1.161,3.036v.536a1.393,1.393,0,0,1-.625,1.161,1.425,1.425,0,0,1,.714,1.25v3.571a2.615,2.615,0,0,1-.625,1.429v.089a1.456,1.456,0,0,1,.982,1.161.393.393,0,0,0,.089.446Zm-5.8-3.036a.753.753,0,0,0,.625.179h.179a2.472,2.472,0,0,0,.8-.089c.268-.089.446-.179.714-.268.089-.089.179-.089.268-.179V34.8c-.357,0-.625.089-.982.089a5.033,5.033,0,0,0-1.071.357.914.914,0,0,0-.536.446.393.393,0,0,0-.089.446v.089A.529.529,0,0,0,77.888,36.85Zm.8-7.589a4.8,4.8,0,0,0-1.964.357c-.357.179-.714.268-1.071.446a10.794,10.794,0,0,1,1.607-.446,12.749,12.749,0,0,1,2.589-.268,3.21,3.21,0,0,0-.982-.179h-.179Z" transform="translate(-7.812 -3.1)" fill="#002e47"/>
      <path id="Path_203295" data-name="Path 203295" d="M106.071,26.486a4.581,4.581,0,0,0-2.054-1.339,7.655,7.655,0,0,0-2.411-.446,6.728,6.728,0,0,0-2.946.625,6.255,6.255,0,0,0-1.7,1.339,1.726,1.726,0,0,0-.982-1.25,4.8,4.8,0,0,0-1.964-.357h-.625a.669.669,0,0,0-.446.089l-.446.089V48.629h4.643V40.146a.7.7,0,0,0,.357.357c.268.179.446.446.8.536a5.163,5.163,0,0,0,1.25.446,3.69,3.69,0,0,0,1.7.179,7.655,7.655,0,0,0,2.411-.446,5.653,5.653,0,0,0,2.143-1.429,8.244,8.244,0,0,0,1.607-2.679,14.407,14.407,0,0,0,.625-4.375A13.752,13.752,0,0,0,107.5,28.9,11.387,11.387,0,0,0,106.071,26.486Zm-3.75,10.268a2.692,2.692,0,0,1-2.5,1.339,3.5,3.5,0,0,1-1.607-.357,3.687,3.687,0,0,1-.982-.625V29.879a1.44,1.44,0,0,1,.536-1.161,2.556,2.556,0,0,1,1.964-.536,3.5,3.5,0,0,1,1.607.357,2.838,2.838,0,0,1,1.071.982,4.4,4.4,0,0,1,.536,1.518,13.319,13.319,0,0,1,.179,1.875,6.94,6.94,0,0,1-.8,3.839Z" transform="translate(-10.192 -3.271)" fill="#002e47"/>
      <path id="Path_203296" data-name="Path 203296" d="M96.971,49.794H92.329A1.41,1.41,0,0,1,90.9,48.366V24.973a1.443,1.443,0,0,1,1.25-1.429l.446-.089c.179,0,.357-.089.625-.089h.714a6.3,6.3,0,0,1,2.5.536,3.132,3.132,0,0,1,.714.446c.268-.179.446-.268.714-.446a6.665,6.665,0,0,1,3.661-.8,7.619,7.619,0,0,1,2.768.536,6.444,6.444,0,0,1,2.589,1.786,7.844,7.844,0,0,1,1.7,3.036,14.235,14.235,0,0,1,.625,4.286,14.161,14.161,0,0,1-.714,4.732,9.339,9.339,0,0,1-1.875,3.3,7.048,7.048,0,0,1-2.768,1.786,10.121,10.121,0,0,1-2.857.536,8.806,8.806,0,0,1-2.143-.268c-.179-.089-.357-.089-.536-.179v5.714a1.246,1.246,0,0,1-1.339,1.429Zm-3.125-2.857h1.7V39.973a1.341,1.341,0,0,1,.982-1.339c.089,0,.089,0,.179-.089-.179-.179-.446-.268-.625-.446a1.4,1.4,0,0,1-.536-1.071V29.794a2.881,2.881,0,0,1,.714-1.875,1.57,1.57,0,0,1-.893-1.071c0-.089-.089-.179-.179-.268a2.852,2.852,0,0,0-1.25-.268h-.089Zm4.464-7.679c.179.089.268.268.446.268a4.352,4.352,0,0,0,.982.357,7,7,0,0,0,1.25.179,4.8,4.8,0,0,0,1.964-.357,3.212,3.212,0,0,0,1.607-1.071,6.444,6.444,0,0,0,1.25-2.143,14.226,14.226,0,0,0,.536-3.839,11.3,11.3,0,0,0-.446-3.482,8.4,8.4,0,0,0-1.071-1.964,3.173,3.173,0,0,0-1.429-.982,6.955,6.955,0,0,0-1.875-.357,4.585,4.585,0,0,0-2.232.536.087.087,0,0,0-.089.089h.536a4.841,4.841,0,0,1,2.232.536,3.783,3.783,0,0,1,1.607,1.518,5.634,5.634,0,0,1,.714,2.054,17.337,17.337,0,0,1,.179,2.143,9.142,9.142,0,0,1-.982,4.554v.089a4.163,4.163,0,0,1-3.839,2.054,6.892,6.892,0,0,1-1.339-.179Zm1.339-2.768a1.351,1.351,0,0,0,1.25-.625,5.814,5.814,0,0,0,.625-3.036v-.089a4.944,4.944,0,0,0-.179-1.607,5.033,5.033,0,0,0-.357-1.071,1.076,1.076,0,0,0-.446-.446,2.642,2.642,0,0,0-.893-.179h-.179a1.61,1.61,0,0,0-.893.179v6.518c.089,0,.089.089.179.089.179.268.536.268.893.268h0Z" transform="translate(-10.02 -3.098)" fill="#002e47"/>
      <path id="Path_203297" data-name="Path 203297" d="M122.586,36.464a1.232,1.232,0,0,1-.357.268,1.439,1.439,0,0,1-.625.357,4.061,4.061,0,0,1-1.7.536c-1.25,0-1.964-.8-1.964-2.411V27.982h4.732V24.589h-4.732V22.179a3.262,3.262,0,0,0-.268-1.339,2.108,2.108,0,0,0-.714-.8,3.3,3.3,0,0,0-.982-.446,4.347,4.347,0,0,0-1.071-.089h-.536a1.132,1.132,0,0,0-.536.089l-.536.089v15.8A8.665,8.665,0,0,0,113.389,37a8.039,8.039,0,0,0,.268,1.429,4.292,4.292,0,0,0,1.607,2.143,5.371,5.371,0,0,0,3.3.8,13.374,13.374,0,0,0,1.964-.179,5.983,5.983,0,0,0,1.607-.625,2.791,2.791,0,0,0,.982-.8,1.146,1.146,0,0,0,.357-.893,2.377,2.377,0,0,0-.268-1.071A3.107,3.107,0,0,0,122.586,36.464Z" transform="translate(-12.42 -2.714)" fill="#002e47"/>
      <path id="Path_203298" data-name="Path 203298" d="M118.239,42.521a6.517,6.517,0,0,1-3.661-1.071,5.269,5.269,0,0,1-2.232-2.946,5.773,5.773,0,0,1-.357-1.786,10.806,10.806,0,0,1-.089-1.7V19.307a1.443,1.443,0,0,1,1.25-1.429l.536-.089c.179,0,.357-.089.625-.089h.625a6.758,6.758,0,0,1,1.339.089,4.548,4.548,0,0,1,1.518.625,3.067,3.067,0,0,1,1.161,1.429A5.3,5.3,0,0,1,119.4,21.9v.893h3.3a1.41,1.41,0,0,1,1.429,1.429v3.571a1.41,1.41,0,0,1-1.429,1.429h-3.3v5.8c0,.893.179.893.446.893a.8.8,0,0,0,.446-.089l.536-.268c.089-.089.268-.179.357-.268s.179-.179.268-.179a1.7,1.7,0,0,1,1.161-.446,1.362,1.362,0,0,1,1.071.625,12.5,12.5,0,0,1,.893,1.429,3.693,3.693,0,0,1,.446,1.7,2.712,2.712,0,0,1-.714,1.875,3.551,3.551,0,0,1-1.429,1.071,7.379,7.379,0,0,1-1.964.714,9.732,9.732,0,0,1-2.321.268A.356.356,0,0,1,118.239,42.521Zm-3.571-21.875V35.111a5.491,5.491,0,0,0,.089,1.25v.089a2.377,2.377,0,0,0,.268,1.071A3.367,3.367,0,0,0,116.1,38.95a3.723,3.723,0,0,0,2.411.536h.089a10.939,10.939,0,0,0,1.7-.179,7,7,0,0,0,1.25-.446,1.312,1.312,0,0,0,.536-.446v-.179c-.268.089-.536.268-.8.357a3.583,3.583,0,0,1-1.339.268c-2.143,0-3.393-1.429-3.393-3.839V27.789a1.41,1.41,0,0,1,1.429-1.429h3.3v-.536h-3.3a1.41,1.41,0,0,1-1.429-1.429V21.986a1.327,1.327,0,0,0-.179-.8q0-.134-.268-.268a.682.682,0,0,0-.446-.179c-.268,0-.536-.089-.8-.089Z" transform="translate(-12.27 -2.521)" fill="#002e47"/>
      <path id="Path_203299" data-name="Path 203299" d="M140.112,26.932a6.159,6.159,0,0,0-2.143-1.607,7.936,7.936,0,0,0-3.214-.625,10.063,10.063,0,0,0-2.857.446,7.239,7.239,0,0,0-2.5,1.518,6.444,6.444,0,0,0-1.786,2.589,10.271,10.271,0,0,0-.714,3.661,10.5,10.5,0,0,0,.714,4.375,8.688,8.688,0,0,0,1.964,2.768,6.846,6.846,0,0,0,2.768,1.429,12.576,12.576,0,0,0,3.125.446,11.315,11.315,0,0,0,3.036-.357,8.421,8.421,0,0,0,2.054-.893,1.758,1.758,0,0,0,.893-1.339A2.657,2.657,0,0,0,141.005,38a11.636,11.636,0,0,0-.893-1.339l-.714.625a3.207,3.207,0,0,1-.893.625,6.2,6.2,0,0,1-1.161.446,7.863,7.863,0,0,1-1.518.179,3.882,3.882,0,0,1-3.214-1.25,5.581,5.581,0,0,1-1.161-3.125h10a.8.8,0,0,1,.089-.446v-1.7a9.217,9.217,0,0,0-.357-2.679,4.292,4.292,0,0,0-1.071-2.411Zm-8.571,4.554a4.133,4.133,0,0,1,.8-2.679,3.043,3.043,0,0,1,2.232-.982,2.574,2.574,0,0,1,2.321.982,4.754,4.754,0,0,1,.625,2.679Z" transform="translate(-13.875 -3.271)" fill="#002e47"/>
      <path id="Path_203300" data-name="Path 203300" d="M135.568,43.2h-.179a15.511,15.511,0,0,1-3.482-.446,8.946,8.946,0,0,1-3.3-1.7,8.787,8.787,0,0,1-2.411-3.3,13.616,13.616,0,0,1-.893-4.911,9.767,9.767,0,0,1,.8-4.2,9.307,9.307,0,0,1,2.143-3.125,8.04,8.04,0,0,1,3.036-1.786,10.655,10.655,0,0,1,3.3-.536,9.048,9.048,0,0,1,3.75.714,7.459,7.459,0,0,1,2.679,1.964,8.815,8.815,0,0,1,1.518,2.857,11.89,11.89,0,0,1,.446,3.036v1.7a1.741,1.741,0,0,1-.089.714,1.443,1.443,0,0,1-1.429,1.25h-.446c.089,0,.089.089.089.179.357.446.714.982,1.071,1.518A4.247,4.247,0,0,1,142.8,39v.268a3.23,3.23,0,0,1-1.607,2.5,5.89,5.89,0,0,1-2.411,1.071,17.692,17.692,0,0,1-3.214.357Zm-.179-2.946a9.216,9.216,0,0,0,2.679-.357,6.343,6.343,0,0,0,1.607-.714c.089,0,.089-.089.179-.089a.087.087,0,0,0,.089-.089.682.682,0,0,0-.179-.446,3.882,3.882,0,0,1-.625.357,4.667,4.667,0,0,1-1.429.536,6.8,6.8,0,0,1-1.875.268,5.78,5.78,0,0,1-4.375-1.7l-.089-.089A7.146,7.146,0,0,1,129.854,34a1.3,1.3,0,0,1,.446-1.071,1.232,1.232,0,0,1,.357-.268,1.512,1.512,0,0,1-.8-1.25,5.449,5.449,0,0,1,1.161-3.661,4.424,4.424,0,0,1,3.3-1.518,4.075,4.075,0,0,1,3.482,1.607l.089.089a5.921,5.921,0,0,1,.8,3.482,1.434,1.434,0,0,1-.446.982h1.7v-.625a6.994,6.994,0,0,0-.357-2.321,5.585,5.585,0,0,0-.893-1.786,4.133,4.133,0,0,0-1.607-1.161,5.142,5.142,0,0,0-2.589-.446,9.778,9.778,0,0,0-2.411.357,5.458,5.458,0,0,0-1.964,1.161,5.663,5.663,0,0,0-1.429,2.054,7.448,7.448,0,0,0-.536,3.125,10.83,10.83,0,0,0,.625,3.839,5.441,5.441,0,0,0,1.607,2.143,6.235,6.235,0,0,0,2.143,1.161,10.447,10.447,0,0,0,2.857.357Zm-1.7-4.2a2.367,2.367,0,0,0,1.964.714h.179a2.265,2.265,0,0,0,1.071-.179,3.731,3.731,0,0,0,.893-.357,2.714,2.714,0,0,0,.625-.446l.625-.536h-5.8a2.341,2.341,0,0,0,.446.8Zm-.625-6.161h2.589c-.089-.179-.089-.268-.179-.446a1.035,1.035,0,0,0-.893-.357h-.268a1.479,1.479,0,0,0-1.071.446A.464.464,0,0,1,133.068,29.9Z" transform="translate(-13.706 -3.111)" fill="#002e47"/>
      <path id="Path_203301" data-name="Path 203301" d="M157.421,25.057c-.268-.089-.625-.179-.893-.268-.268,0-.625-.089-.893-.089a5.269,5.269,0,0,0-1.25.179,3.017,3.017,0,0,0-1.071.536,3.08,3.08,0,0,0-.8.714,4.953,4.953,0,0,0-.536.714,2.143,2.143,0,0,0-.982-1.339,4.8,4.8,0,0,0-1.875-.446h-.625a.669.669,0,0,0-.446.089l-.446.089V41.843h4.643V30.771a1.864,1.864,0,0,1,.714-1.429,2.729,2.729,0,0,1,1.786-.625,3.583,3.583,0,0,1,1.339.268,5.062,5.062,0,0,1,1.161.714,12.646,12.646,0,0,0,.714-1.607,3.869,3.869,0,0,0,.357-1.7,1.44,1.44,0,0,0-.268-.8A1.2,1.2,0,0,0,157.421,25.057Z" transform="translate(-16.095 -3.271)" fill="#002e47"/>
      <path id="Path_203302" data-name="Path 203302" d="M151.871,43.089h-4.643a1.41,1.41,0,0,1-1.429-1.429v-16.7a1.443,1.443,0,0,1,1.25-1.429l.446-.089c.179,0,.446-.089.625-.089h.714a5.991,5.991,0,0,1,2.5.536,1.868,1.868,0,0,1,.536.357,1.567,1.567,0,0,0,.446-.357,9.011,9.011,0,0,1,1.339-.625A6.186,6.186,0,0,1,155.443,23a4.347,4.347,0,0,1,1.071.089,7.439,7.439,0,0,1,1.339.357,2.838,2.838,0,0,1,1.071.982,2.747,2.747,0,0,1,.536,1.7,6.217,6.217,0,0,1-.446,2.232c-.179.536-.536,1.161-.8,1.786a1.382,1.382,0,0,1-.982.714,1.55,1.55,0,0,1-1.25-.268l-.8-.536a1.741,1.741,0,0,0-.714-.089h-.089a1.44,1.44,0,0,0-.8.268.356.356,0,0,0-.179.357V41.571A1.565,1.565,0,0,1,151.871,43.089Zm-3.125-2.946h1.7V30.589A3.513,3.513,0,0,1,151.6,28h-.179a1.537,1.537,0,0,1-1.161-1.161c0-.179-.089-.268-.268-.357a2.749,2.749,0,0,0-1.161-.268h-.089Zm5.714-13.125a4,4,0,0,1,1.786.357v-.089a3.083,3.083,0,0,0,.268-1.161.805.805,0,0,0-.446-.089c-.268,0-.446-.089-.714-.089a2.472,2.472,0,0,0-.8.089,3.172,3.172,0,0,0-.8.357,2.368,2.368,0,0,0-.536.446c-.089.089-.179.268-.268.357A8.8,8.8,0,0,1,154.461,27.018Zm2.143-.8.625-1.339Z" transform="translate(-15.902 -3.089)" fill="#002e47"/>
      <path id="Path_203303" data-name="Path 203303" d="M172.232,25.057l-.8-.268c-.268,0-.625-.089-.893-.089a5.269,5.269,0,0,0-1.25.179,3.017,3.017,0,0,0-1.071.536,3.08,3.08,0,0,0-.8.714,4.955,4.955,0,0,0-.536.714,1.87,1.87,0,0,0-.982-1.339,4.455,4.455,0,0,0-1.875-.446h-.625a.669.669,0,0,0-.446.089l-.446.089V41.843h4.643V30.771a1.864,1.864,0,0,1,.714-1.429,2.729,2.729,0,0,1,1.786-.625,3.583,3.583,0,0,1,1.339.268,5.062,5.062,0,0,1,1.161.714,12.648,12.648,0,0,0,.714-1.607,3.869,3.869,0,0,0,.357-1.7,1.44,1.44,0,0,0-.268-.8A2.926,2.926,0,0,0,172.232,25.057Z" transform="translate(-17.692 -3.271)" fill="#002e47"/>
      <path id="Path_203304" data-name="Path 203304" d="M166.771,43.089h-4.643a1.41,1.41,0,0,1-1.429-1.429v-16.7a1.443,1.443,0,0,1,1.25-1.429l.446-.089c.179,0,.446-.089.625-.089h.714a5.991,5.991,0,0,1,2.5.536,1.868,1.868,0,0,1,.536.357,1.568,1.568,0,0,0,.446-.357,9.012,9.012,0,0,1,1.339-.625A6.187,6.187,0,0,1,170.343,23a4.347,4.347,0,0,1,1.071.089,5.118,5.118,0,0,1,1.25.357,2.9,2.9,0,0,1,1.161.893l.089.089a2.238,2.238,0,0,1,.446,1.7,6.217,6.217,0,0,1-.446,2.232c-.179.536-.536,1.161-.8,1.786a1.382,1.382,0,0,1-.982.714,1.326,1.326,0,0,1-1.25-.357l-.8-.536a1.741,1.741,0,0,0-.714-.089,1.508,1.508,0,0,0-.893.268.464.464,0,0,0-.179.357V41.482a1.648,1.648,0,0,1-1.518,1.607Zm-3.214-2.946h1.7V30.589A3.667,3.667,0,0,1,166.414,28h-.268a1.537,1.537,0,0,1-1.161-1.161.285.285,0,0,0-.268-.268,2.749,2.749,0,0,0-1.161-.268h-.089V40.143Zm5.8-13.125a3.869,3.869,0,0,1,1.7.357v-.089a2.75,2.75,0,0,0,.268-1.161h-.089a.669.669,0,0,0-.446-.089c-.268,0-.446-.089-.714-.089a2.472,2.472,0,0,0-.8.089,3.171,3.171,0,0,0-.8.357,2.368,2.368,0,0,0-.536.446c-.089.089-.179.268-.268.357a4.171,4.171,0,0,1,1.518-.268Z" transform="translate(-17.499 -3.089)" fill="#002e47"/>
      <path id="Path_203305" data-name="Path 203305" d="M190.284,37.379V30.95a9.822,9.822,0,0,0-.357-2.768,4.43,4.43,0,0,0-1.161-1.964,5.289,5.289,0,0,0-2.054-1.161,11.987,11.987,0,0,0-3.125-.357,23.528,23.528,0,0,0-2.5.179,18.79,18.79,0,0,0-2.143.536,4.528,4.528,0,0,0-1.429.8,1.184,1.184,0,0,0-.536.893,2.377,2.377,0,0,0,.268,1.071,3.745,3.745,0,0,0,.8,1.25,10.274,10.274,0,0,1,2.232-1.071,6.337,6.337,0,0,1,2.589-.446,3.227,3.227,0,0,1,2.232.536,2.1,2.1,0,0,1,.714,1.875v.625H184.3l-2.679.268a9.464,9.464,0,0,0-2.679.893,5.663,5.663,0,0,0-2.143,1.7,4,4,0,0,0-.8,2.857,6.706,6.706,0,0,0,.446,2.321,3.488,3.488,0,0,0,1.25,1.518,5.921,5.921,0,0,0,1.7.8,6.8,6.8,0,0,0,1.875.268,9.07,9.07,0,0,0,3.036-.536,7.638,7.638,0,0,0,1.964-1.339,2.117,2.117,0,0,0,.8,1.339,2.691,2.691,0,0,0,1.875.446,4.347,4.347,0,0,0,1.071-.089,5.775,5.775,0,0,0,1.161-.357,5.627,5.627,0,0,1-.893-3.661Zm-4.375-.536a.965.965,0,0,1-.268.625,2.407,2.407,0,0,1-.714.625,4.785,4.785,0,0,1-.982.446,5.27,5.27,0,0,1-1.25.179A2.193,2.193,0,0,1,180.819,38a2.675,2.675,0,0,1-.536-1.607,2.1,2.1,0,0,1,.446-1.429,2.625,2.625,0,0,1,1.071-.893,3.01,3.01,0,0,1,1.518-.446,9.889,9.889,0,0,1,1.7-.179h.893Z" transform="translate(-19.136 -3.271)" fill="#002e47"/>
      <path id="Path_203306" data-name="Path 203306" d="M181.163,43.011H180.9a6.488,6.488,0,0,1-2.232-.357,4.866,4.866,0,0,1-2.143-1.071,6.342,6.342,0,0,1-1.7-2.054,6.728,6.728,0,0,1-.625-2.946,5.888,5.888,0,0,1,1.071-3.661,6.87,6.87,0,0,1,2.5-2.054,1.44,1.44,0,0,1-1.161-.536,5.981,5.981,0,0,1-.982-1.607,7.541,7.541,0,0,1-.446-1.518v-.268a2.721,2.721,0,0,1,1.071-1.964,5.035,5.035,0,0,1,1.786-.982,9.882,9.882,0,0,1,2.321-.625,14.535,14.535,0,0,1,2.768-.268,11.662,11.662,0,0,1,3.482.446,6.168,6.168,0,0,1,2.679,1.518,5.866,5.866,0,0,1,1.518,2.589,9.36,9.36,0,0,1,.357,3.125v6.429a5.488,5.488,0,0,0,.625,3.125,1.742,1.742,0,0,1,.089,1.161,1.421,1.421,0,0,1-.8.8,6.691,6.691,0,0,1-1.429.446c-.446.089-.893.089-1.339.179a4.063,4.063,0,0,1-2.679-.714.087.087,0,0,1-.089-.089c-.089-.089-.268-.179-.357-.357a3.3,3.3,0,0,1-.982.446,5.294,5.294,0,0,1-3.036.8Zm-.536-10.179a3.781,3.781,0,0,0-1.25.536,5.138,5.138,0,0,0-1.7,1.339,3.3,3.3,0,0,0-.536,1.875v.089a3.623,3.623,0,0,0,.357,1.7,2.838,2.838,0,0,0,1.964,1.518,3.932,3.932,0,0,0,1.429.179,6.758,6.758,0,0,0,1.339-.089,3.524,3.524,0,0,1-2.679-1.161l-.089-.089a3.743,3.743,0,0,1-.893-2.5,3.348,3.348,0,0,1,.714-2.232A5.182,5.182,0,0,1,180.627,32.832Zm6.964,6.964a1.1,1.1,0,0,0,.893.179h.357a8.269,8.269,0,0,1-.268-2.946V30.689a9.733,9.733,0,0,0-.268-2.321,3.568,3.568,0,0,0-.8-1.339,3.725,3.725,0,0,0-1.429-.8,9.217,9.217,0,0,0-2.679-.357,20.314,20.314,0,0,0-2.321.179,7.412,7.412,0,0,0-1.875.536,2.128,2.128,0,0,0-.982.536.312.312,0,0,0,.089.179c.357-.179.714-.357,1.161-.536a7.522,7.522,0,0,1,3.125-.625,4.6,4.6,0,0,1,3.036.8c.089.089.179.089.179.179a3.842,3.842,0,0,1,1.161,3.036v.536a1.393,1.393,0,0,1-.625,1.161,1.425,1.425,0,0,1,.714,1.25v3.571a2.107,2.107,0,0,1-.625,1.429v.089a1.52,1.52,0,0,1,.893,1.161A.955.955,0,0,0,187.591,39.8Zm-5.8-2.946a.753.753,0,0,0,.625.179h.179a2.472,2.472,0,0,0,.8-.089c.268-.089.446-.179.714-.268.089-.089.179-.089.268-.179V34.8c-.357,0-.625.089-.982.089a5.033,5.033,0,0,0-1.071.357,1.312,1.312,0,0,0-.536.446.393.393,0,0,0-.089.446v.089a.733.733,0,0,0,.089.625Zm.8-7.589a4.8,4.8,0,0,0-1.964.357c-.357.179-.714.268-1.071.446a10.8,10.8,0,0,1,1.607-.446,12.749,12.749,0,0,1,2.589-.268,3.21,3.21,0,0,0-.982-.179C182.77,29.261,182.681,29.261,182.591,29.261Z" transform="translate(-18.944 -3.1)" fill="#002e47"/>
      <path id="Path_203307" data-name="Path 203307" d="M22.879,29.543,5.2,23.561l24.643-9.286L41.539,9.9l-11.7,37.054Z" transform="translate(-0.838 -1.686)" fill="#002e47"/>
    </g>
    <path id="Path_203308" data-name="Path 203308" d="M5.2,24.2H29.843V15Z" transform="translate(-0.523 -1.532)" fill="#ff9d28"/>
    <path id="Path_203309" data-name="Path 203309" d="M32.8,14.475V47.154L44.5,10.1Z" transform="translate(-3.481 -1.007)" fill="#69c3ea"/>
    <path id="Path_203310" data-name="Path 203310" d="M31.686,25.3H22.4l9.286,23.482Z" transform="translate(-2.366 -2.636)" fill="#004f80"/>
    <path id="Path_203311" data-name="Path 203311" d="M5.2,25.3l17.679,6.071L20.557,25.3Z" transform="translate(-0.523 -2.636)" fill="#e14748"/>
    <path id="Path_203312" data-name="Path 203312" d="M66.475,39.286a4.952,4.952,0,0,1-.714.536,5.455,5.455,0,0,1-1.25.625,14.779,14.779,0,0,1-1.875.536,7.887,7.887,0,0,1-2.5.179,12.374,12.374,0,0,1-4.732-.893,8.787,8.787,0,0,1-3.3-2.411,9.289,9.289,0,0,1-1.875-3.75,16.8,16.8,0,0,1-.625-4.732,16.8,16.8,0,0,1,.625-4.732,10.088,10.088,0,0,1,1.964-3.75,9.022,9.022,0,0,1,3.3-2.5,11.628,11.628,0,0,1,4.643-.893,11.083,11.083,0,0,1,2.411.268l1.875.536a9.759,9.759,0,0,1,1.339.714,4.907,4.907,0,0,1,.8.625c.179.179.357.446.536.625a.911.911,0,0,1,.179.8,2.189,2.189,0,0,1-.536,1.429,15.543,15.543,0,0,1-1.071,1.25c-.268-.268-.625-.536-.893-.8a5.062,5.062,0,0,0-1.161-.714,4.668,4.668,0,0,0-1.429-.536,4.077,4.077,0,0,0-1.786-.179,5.241,5.241,0,0,0-4.732,2.5,8.2,8.2,0,0,0-.982,2.589,16.44,16.44,0,0,0-.268,2.946,17.437,17.437,0,0,0,.268,3.036,7.255,7.255,0,0,0,1.071,2.589,6.279,6.279,0,0,0,1.964,1.786,6.688,6.688,0,0,0,4.732.446c.446-.179.982-.357,1.429-.536a7.447,7.447,0,0,0,1.071-.714,4.907,4.907,0,0,1,.8-.625l.446.625a4.952,4.952,0,0,1,.536.714,5.263,5.263,0,0,1,.357.714,1.518,1.518,0,0,1,0,1.429C66.921,38.929,66.743,39.107,66.475,39.286Z" transform="translate(-5.281 -1.8)" fill="#fff"/>
    <path id="Path_203313" data-name="Path 203313" d="M86.383,37.507a7.6,7.6,0,0,0,.8,3.929,4.421,4.421,0,0,1-1.161.357,4.347,4.347,0,0,1-1.071.089,3.433,3.433,0,0,1-1.875-.446,2.117,2.117,0,0,1-.8-1.339,7.638,7.638,0,0,1-1.964,1.339,8.694,8.694,0,0,1-3.036.536A6.8,6.8,0,0,1,75.4,41.7a4.532,4.532,0,0,1-1.607-.8,4.933,4.933,0,0,1-1.25-1.518A4.177,4.177,0,0,1,72.1,37.06a5.539,5.539,0,0,1,.8-2.857,5.387,5.387,0,0,1,2.054-1.7,9.464,9.464,0,0,1,2.679-.893,13.627,13.627,0,0,1,2.679-.268h1.518v-.625a2.193,2.193,0,0,0-.714-1.875,3.343,3.343,0,0,0-2.232-.536,8.3,8.3,0,0,0-2.589.446c-.8.357-1.518.714-2.232,1.071a3.745,3.745,0,0,1-.8-1.25,2.377,2.377,0,0,1-.268-1.071,1.184,1.184,0,0,1,.536-.893,4.528,4.528,0,0,1,1.429-.8,9.418,9.418,0,0,1,2.143-.536,7.887,7.887,0,0,1,2.5-.179,11.987,11.987,0,0,1,3.125.357,4.271,4.271,0,0,1,2.054,1.161,4.431,4.431,0,0,1,1.161,1.964,9.42,9.42,0,0,1,.357,2.768Zm-4.375-3.929h-.893a10.939,10.939,0,0,0-1.7.179A9.756,9.756,0,0,0,77.9,34.2a2.625,2.625,0,0,0-1.071.893,3.01,3.01,0,0,0-.446,1.518,2.493,2.493,0,0,0,.536,1.607,2.362,2.362,0,0,0,1.875.714,6.029,6.029,0,0,0,1.25-.179,3.3,3.3,0,0,0,.982-.446,2.407,2.407,0,0,0,.714-.625.811.811,0,0,0,.268-.625Z" transform="translate(-7.689 -2.61)" fill="#fff"/>
    <path id="Path_203314" data-name="Path 203314" d="M97.064,26.862a6.255,6.255,0,0,1,1.7-1.339,5.493,5.493,0,0,1,2.946-.625,7.655,7.655,0,0,1,2.411.446,6.284,6.284,0,0,1,2.054,1.339,7.006,7.006,0,0,1,1.429,2.5,14.226,14.226,0,0,1,.536,3.839,14.407,14.407,0,0,1-.625,4.375,8.244,8.244,0,0,1-1.607,2.679,5.653,5.653,0,0,1-2.143,1.429,11.443,11.443,0,0,1-2.411.446,10.939,10.939,0,0,1-1.7-.179,3.13,3.13,0,0,1-1.25-.536l-.8-.536-.357-.357v8.393H92.6V25.344l.446-.089a3.867,3.867,0,0,0,.446-.089h.625a5.089,5.089,0,0,1,1.964.357,2.919,2.919,0,0,1,.982,1.339Zm6.071,6.25a13.321,13.321,0,0,0-.179-1.875,4.4,4.4,0,0,0-.536-1.518,2.272,2.272,0,0,0-1.071-.982,3.5,3.5,0,0,0-1.607-.357,2.556,2.556,0,0,0-1.964.536,1.44,1.44,0,0,0-.536,1.161v7.232a3.687,3.687,0,0,0,.982.625,3.5,3.5,0,0,0,1.607.357,2.526,2.526,0,0,0,2.5-1.339,7.109,7.109,0,0,0,.8-3.839Z" transform="translate(-9.888 -2.591)" fill="#fff"/>
    <path id="Path_203315" data-name="Path 203315" d="M113.757,38.429A4.044,4.044,0,0,1,113.489,37c0-.536-.089-.982-.089-1.518v-15.8l.536-.089c.179,0,.357-.089.536-.089h.536a4.347,4.347,0,0,1,1.071.089,1.982,1.982,0,0,1,.982.446,3.08,3.08,0,0,1,.714.8,3.583,3.583,0,0,1,.268,1.339v2.411h4.732v3.393h-4.732v7.232c0,1.607.625,2.411,1.964,2.411a4.061,4.061,0,0,0,1.7-.536c.179-.089.446-.268.625-.357.089-.089.268-.179.357-.268.268.446.536.8.8,1.339a2.121,2.121,0,0,1,.268,1.071,1.146,1.146,0,0,1-.357.893,2.791,2.791,0,0,1-.982.8,8.593,8.593,0,0,1-1.607.625,4.911,4.911,0,0,1-1.964.179,5.371,5.371,0,0,1-3.3-.8,4.17,4.17,0,0,1-1.786-2.143Z" transform="translate(-12.116 -2.014)" fill="#fff"/>
    <path id="Path_203316" data-name="Path 203316" d="M136.027,38.55a8.8,8.8,0,0,0,1.518-.179,6.2,6.2,0,0,0,1.161-.446,3.207,3.207,0,0,0,.893-.625l.714-.625a11.634,11.634,0,0,1,.893,1.339,2.193,2.193,0,0,1,.446,1.339,1.758,1.758,0,0,1-.893,1.339,6,6,0,0,1-2.054.893,8.846,8.846,0,0,1-3.036.357,12.008,12.008,0,0,1-3.125-.446,6.846,6.846,0,0,1-2.768-1.429,6.545,6.545,0,0,1-1.964-2.679,10.265,10.265,0,0,1-.714-4.375,8.643,8.643,0,0,1,.714-3.661,6.444,6.444,0,0,1,1.786-2.589,8.925,8.925,0,0,1,2.5-1.518,10.062,10.062,0,0,1,2.857-.446,7.936,7.936,0,0,1,3.214.625,5.441,5.441,0,0,1,2.143,1.607,7.289,7.289,0,0,1,1.25,2.321,9.217,9.217,0,0,1,.357,2.679v1.7a.8.8,0,0,1-.089.446H131.741A5.582,5.582,0,0,0,132.9,37.3a3.509,3.509,0,0,0,3.125,1.25Zm1.518-6.875A5.627,5.627,0,0,0,136.919,29a2.383,2.383,0,0,0-2.321-.982,2.9,2.9,0,0,0-2.232.982,3.682,3.682,0,0,0-.8,2.679Z" transform="translate(-13.582 -2.582)" fill="#fff"/>
    <path id="Path_203317" data-name="Path 203317" d="M151.975,26.943c.179-.268.357-.446.536-.714a5.777,5.777,0,0,1,.8-.714l1.071-.536a4.482,4.482,0,0,1,2.143-.089,1.723,1.723,0,0,1,.893.268,1.2,1.2,0,0,1,.625.536,1.44,1.44,0,0,1,.268.8,5.221,5.221,0,0,1-.357,1.7,12.647,12.647,0,0,1-.714,1.607,5.062,5.062,0,0,0-1.161-.714,3.583,3.583,0,0,0-1.339-.268,2.729,2.729,0,0,0-1.786.625,1.864,1.864,0,0,0-.714,1.429V41.943H147.6V25.336l.446-.089a3.868,3.868,0,0,0,.446-.089h.625a3.433,3.433,0,0,1,1.875.446A2.057,2.057,0,0,1,151.975,26.943Z" transform="translate(-15.781 -2.582)" fill="#fff"/>
    <path id="Path_203318" data-name="Path 203318" d="M166.664,26.943c.179-.268.357-.446.536-.714.268-.268.536-.446.8-.714l1.071-.536a4.483,4.483,0,0,1,2.143-.089,1.44,1.44,0,0,1,.8.268,1.2,1.2,0,0,1,.625.536,1.44,1.44,0,0,1,.268.8,5.221,5.221,0,0,1-.357,1.7,12.647,12.647,0,0,1-.714,1.607,5.062,5.062,0,0,0-1.161-.714,3.583,3.583,0,0,0-1.339-.268,2.729,2.729,0,0,0-1.786.625,1.864,1.864,0,0,0-.714,1.429V41.943H162.2V25.336l.446-.089a3.868,3.868,0,0,0,.446-.089h.625a3.433,3.433,0,0,1,1.875.446,1.78,1.78,0,0,1,1.071,1.339Z" transform="translate(-17.345 -2.582)" fill="#fff"/>
    <path id="Path_203319" data-name="Path 203319" d="M190.272,37.507a7.6,7.6,0,0,0,.8,3.929,4.421,4.421,0,0,1-1.161.357,4.347,4.347,0,0,1-1.071.089,3.433,3.433,0,0,1-1.875-.446,2.117,2.117,0,0,1-.8-1.339,7.637,7.637,0,0,1-1.964,1.339,8.694,8.694,0,0,1-3.036.536,6.8,6.8,0,0,1-1.875-.268,5.921,5.921,0,0,1-1.7-.8,3.488,3.488,0,0,1-1.25-1.518,4.177,4.177,0,0,1-.446-2.321,4.807,4.807,0,0,1,.8-2.857,5.387,5.387,0,0,1,2.054-1.7,9.464,9.464,0,0,1,2.679-.893,13.627,13.627,0,0,1,2.679-.268h1.607v-.625A2.193,2.193,0,0,0,185,28.846a3.343,3.343,0,0,0-2.232-.536,8.3,8.3,0,0,0-2.589.446c-.8.357-1.518.714-2.232,1.071a3.745,3.745,0,0,1-.8-1.25,2.377,2.377,0,0,1-.268-1.071,1.184,1.184,0,0,1,.536-.893,4.528,4.528,0,0,1,1.429-.8,9.418,9.418,0,0,1,2.143-.536,7.887,7.887,0,0,1,2.5-.179,11.987,11.987,0,0,1,3.125.357,4.271,4.271,0,0,1,2.054,1.161,4.431,4.431,0,0,1,1.161,1.964,9.42,9.42,0,0,1,.357,2.768ZM185.9,33.578H185a10.939,10.939,0,0,0-1.7.179,9.756,9.756,0,0,0-1.518.446,2.625,2.625,0,0,0-1.071.893,2.7,2.7,0,0,0-.446,1.429,2.493,2.493,0,0,0,.536,1.607,2.362,2.362,0,0,0,1.875.714,6.029,6.029,0,0,0,1.25-.179,3.3,3.3,0,0,0,.982-.446,2.407,2.407,0,0,0,.714-.625.811.811,0,0,0,.268-.625Z" transform="translate(-18.81 -2.61)" fill="#fff"/>
    <path id="Path_203320" data-name="Path 203320" d="M203.379,67.814a.192.192,0,0,1-.179-.179V17.279a.179.179,0,1,1,.357,0V67.636A.192.192,0,0,1,203.379,67.814Z" transform="translate(-21.738 -1.757)" fill="#68c5ed"/>
    <g id="Group_196244" data-name="Group 196244" transform="translate(191.016 28.379)">
      <path id="Path_203321" data-name="Path 203321" d="M232.114,51.018h-2.589v4.554h-6.25V51.018H213.9V46.375L223.721,32h5.893V46.286H232.2v4.732Zm-8.929-4.732V43.518a17.992,17.992,0,0,1,.089-2.054,7.624,7.624,0,0,1,.089-1.339h-.179a19.178,19.178,0,0,1-1.25,2.321l-2.589,3.839Z" transform="translate(-213.9 -31.732)" fill="#68c5ed"/>
      <path id="Path_203322" data-name="Path 203322" d="M236.4,55.025a2.9,2.9,0,0,1,.893-2.321,3.748,3.748,0,0,1,2.589-.8,3.274,3.274,0,0,1,2.411.8,3.234,3.234,0,0,1,.893,2.321,2.715,2.715,0,0,1-.893,2.232,3.574,3.574,0,0,1-2.411.8,3.658,3.658,0,0,1-2.5-.8,2.435,2.435,0,0,1-.982-2.232Z" transform="translate(-216.311 -33.864)" fill="#68c5ed"/>
      <path id="Path_203323" data-name="Path 203323" d="M246.8,45.629a18.775,18.775,0,0,1,1.429-8.036,8.921,8.921,0,0,1,4.2-4.464,14.383,14.383,0,0,1,6.786-1.429,25.613,25.613,0,0,1,3.393.268v5a21.213,21.213,0,0,0-3.482-.268c-2.143,0-3.75.446-4.732,1.429-1.071.893-1.607,2.5-1.7,4.554h.179a4.975,4.975,0,0,1,4.643-2.768,6.263,6.263,0,0,1,4.911,2.054,8.307,8.307,0,0,1,1.7,5.625,8.3,8.3,0,0,1-2.232,6.161c-1.429,1.518-3.482,2.232-6.161,2.232a8.163,8.163,0,0,1-6.518-2.679,11.628,11.628,0,0,1-2.411-7.679Zm8.75,5.179a2.074,2.074,0,0,0,1.7-.8,3.7,3.7,0,0,0,.625-2.411c0-1.875-.714-2.857-2.232-2.857a2.493,2.493,0,0,0-1.786.714,2.655,2.655,0,0,0-.714,1.786,4.155,4.155,0,0,0,.625,2.5,1.9,1.9,0,0,0,1.786,1.071Z" transform="translate(-217.425 -31.7)" fill="#68c5ed"/>
    </g>
    <g id="Group_196245" data-name="Group 196245" transform="translate(65.183 48.379)">
      <path id="Path_203324" data-name="Path 203324" d="M86.621,71.652a3.172,3.172,0,0,1-.893-.179l-2.946-1.518a.8.8,0,0,0-.446-.089.669.669,0,0,0-.446.089l-2.946,1.518a1.1,1.1,0,0,1-.893.179,2.107,2.107,0,0,1-1.429-.625,1.924,1.924,0,0,1-.446-1.518l.536-3.3a1.079,1.079,0,0,0-.268-.893l-2.411-2.321a1.8,1.8,0,0,1-.446-1.964A1.948,1.948,0,0,1,75.1,59.688l3.3-.536a1.3,1.3,0,0,0,.8-.536l1.429-2.946a1.925,1.925,0,0,1,2.589-.893,2.152,2.152,0,0,1,.893.893l1.518,2.946a1.026,1.026,0,0,0,.8.536l3.3.446a1.814,1.814,0,0,1,1.518,1.339,2.015,2.015,0,0,1-.536,1.964l-2.5,2.411a.856.856,0,0,0-.268.893l.536,3.3a2.07,2.07,0,0,1-.357,1.607,2,2,0,0,1-1.518.536Z" transform="translate(-73.021 -54.152)" fill="#ff9d28"/>
      <path id="Path_203325" data-name="Path 203325" d="M82.282,54.993a1.659,1.659,0,0,1,1.339.8l1.429,2.946a1.423,1.423,0,0,0,1.071.8l3.3.446a1.509,1.509,0,0,1,1.25,1.7,1.2,1.2,0,0,1-.446.8l-2.411,2.321a1.474,1.474,0,0,0-.446,1.339l.536,3.214a1.563,1.563,0,0,1-1.25,1.7,1.61,1.61,0,0,1-.893-.179l-2.946-1.518a1.214,1.214,0,0,0-1.339,0l-2.768,1.607a1.428,1.428,0,0,1-1.964-.714,1.327,1.327,0,0,1-.179-.8l.536-3.214a1.554,1.554,0,0,0-.446-1.339l-2.411-2.321a1.359,1.359,0,0,1,0-2.054,1.825,1.825,0,0,1,.8-.446l3.3-.446a1.423,1.423,0,0,0,1.071-.8l1.429-2.946a1.821,1.821,0,0,1,1.429-.893m0-.893a2.386,2.386,0,0,0-2.143,1.339l-1.429,2.946a.491.491,0,0,1-.446.268l-3.3.446a2.189,2.189,0,0,0-1.875,1.607,2.222,2.222,0,0,0,.625,2.411l2.411,2.321c.179.089.179.357.179.536l-.625,3.3a2.556,2.556,0,0,0,.536,1.964A2.331,2.331,0,0,0,78,72.136a2.121,2.121,0,0,0,1.071-.268l2.946-1.607a.569.569,0,0,1,.536,0L85.5,71.779a2.377,2.377,0,0,0,1.071.268,2.331,2.331,0,0,0,1.786-.893,2.556,2.556,0,0,0,.536-1.964l-.536-3.214a.656.656,0,0,1,.179-.536l2.321-2.232a2.444,2.444,0,0,0,.625-2.411A2.189,2.189,0,0,0,89.6,59.189l-3.3-.446a.759.759,0,0,1-.446-.268l-1.429-2.946A2.415,2.415,0,0,0,82.282,54.1Z" transform="translate(-72.968 -54.1)" fill="#ff9d28"/>
      <path id="Path_203326" data-name="Path 203326" d="M112.121,71.663a3.172,3.172,0,0,1-.893-.179l-2.946-1.518a.971.971,0,0,0-.446-.089.669.669,0,0,0-.446.089l-2.946,1.518a1.1,1.1,0,0,1-.893.179,2.2,2.2,0,0,1-1.518-.714,1.924,1.924,0,0,1-.446-1.518l.536-3.3a1.079,1.079,0,0,0-.268-.893L99.532,63a1.978,1.978,0,0,1,1.071-3.3l3.3-.446a1.3,1.3,0,0,0,.8-.536l1.518-2.946a1.925,1.925,0,0,1,2.589-.893,2.152,2.152,0,0,1,.893.893l1.429,2.946a1.026,1.026,0,0,0,.8.536l3.3.446a1.93,1.93,0,0,1,1.607,2.232A2.037,2.037,0,0,1,116.317,63l-2.411,2.321a.856.856,0,0,0-.268.893l.536,3.3a1.832,1.832,0,0,1-.446,1.518,2.449,2.449,0,0,1-1.607.625Z" transform="translate(-75.753 -54.163)" fill="#ff9d28"/>
      <path id="Path_203327" data-name="Path 203327" d="M107.783,54.993a1.66,1.66,0,0,1,1.339.8l1.429,2.946a1.423,1.423,0,0,0,1.071.8l3.3.446a1.509,1.509,0,0,1,1.25,1.7,1.2,1.2,0,0,1-.446.8l-2.411,2.321a1.474,1.474,0,0,0-.446,1.339l.536,3.214a1.388,1.388,0,0,1-1.161,1.7h-.268a2.1,2.1,0,0,1-.714-.179l-2.946-1.518a1.214,1.214,0,0,0-1.339,0l-2.946,1.518a1.466,1.466,0,0,1-1.964-.625,1.766,1.766,0,0,1-.179-.982l.536-3.214a1.554,1.554,0,0,0-.446-1.339l-2.321-2.232a1.359,1.359,0,0,1,0-2.054,1.825,1.825,0,0,1,.8-.446l3.3-.446a1.423,1.423,0,0,0,1.071-.8l1.429-2.946a2.328,2.328,0,0,1,1.518-.8m0-.893a2.49,2.49,0,0,0-2.143,1.339l-1.429,2.946a.491.491,0,0,1-.446.268l-3.3.446A2.345,2.345,0,0,0,98.5,61.779a2.457,2.457,0,0,0,.714,1.339l2.411,2.321c.179.089.179.357.179.536l-.536,3.214a2.556,2.556,0,0,0,.536,1.964,2.331,2.331,0,0,0,1.786.893,2.121,2.121,0,0,0,1.071-.268l2.946-1.518c.089,0,.179-.089.268-.089a.328.328,0,0,1,.268.089l2.946,1.518a2.377,2.377,0,0,0,1.071.268,2.331,2.331,0,0,0,1.786-.893,2.556,2.556,0,0,0,.536-1.964l-.536-3.214a.656.656,0,0,1,.179-.536l2.411-2.321a2.374,2.374,0,0,0,.089-3.3,2.81,2.81,0,0,0-1.339-.714l-3.3-.446a.759.759,0,0,1-.446-.268L110.1,55.439A3.035,3.035,0,0,0,107.783,54.1Z" transform="translate(-75.7 -54.1)" fill="#ff9d28"/>
      <path id="Path_203328" data-name="Path 203328" d="M136.51,71.652a3.172,3.172,0,0,1-.893-.179l-2.946-1.518a.964.964,0,0,0-.982,0l-2.946,1.518a1.1,1.1,0,0,1-.893.179,2.2,2.2,0,0,1-1.518-.714,1.924,1.924,0,0,1-.446-1.518l.536-3.3a1.079,1.079,0,0,0-.268-.893L123.832,62.9a1.978,1.978,0,0,1,1.071-3.3l3.3-.446a1.3,1.3,0,0,0,.8-.536l1.429-2.946a1.925,1.925,0,0,1,2.589-.893,2.152,2.152,0,0,1,.893.893l1.429,2.946a1.026,1.026,0,0,0,.8.536l3.3.446a1.89,1.89,0,0,1,1.607,2.143,2.037,2.037,0,0,1-.536,1.071l-2.321,2.321a.856.856,0,0,0-.268.893l.536,3.3a1.832,1.832,0,0,1-.446,1.518,1.754,1.754,0,0,1-1.518.8Z" transform="translate(-78.356 -54.152)" fill="#ff9d28"/>
      <path id="Path_203329" data-name="Path 203329" d="M132.194,54.993a1.66,1.66,0,0,1,1.339.8l1.429,2.946a1.423,1.423,0,0,0,1.071.8l3.3.446a1.509,1.509,0,0,1,1.25,1.7,1.2,1.2,0,0,1-.446.8l-2.411,2.321a1.474,1.474,0,0,0-.446,1.339l.536,3.214a1.428,1.428,0,0,1-1.161,1.7h-.268a2.1,2.1,0,0,1-.714-.179l-2.946-1.518a1.214,1.214,0,0,0-1.339,0l-2.946,1.518a1.466,1.466,0,0,1-1.964-.625,1.766,1.766,0,0,1-.179-.982l.536-3.214a1.554,1.554,0,0,0-.446-1.339L123.979,62.4a1.359,1.359,0,0,1,0-2.054,1.825,1.825,0,0,1,.8-.446l3.3-.446a1.423,1.423,0,0,0,1.071-.8l1.429-2.946a3.209,3.209,0,0,1,1.607-.714m0-.893a2.256,2.256,0,0,0-2.054,1.339l-1.429,2.946a.491.491,0,0,1-.446.268l-3.3.446A2.345,2.345,0,0,0,123,61.779a2.457,2.457,0,0,0,.714,1.339l2.411,2.321c.179.089.179.357.179.536l-.536,3.214a2.556,2.556,0,0,0,.536,1.964,2.331,2.331,0,0,0,1.786.893,2.121,2.121,0,0,0,1.071-.268l2.857-1.607c.089,0,.179-.089.268-.089a.328.328,0,0,1,.268.089l2.946,1.518a2.377,2.377,0,0,0,1.071.268,2.331,2.331,0,0,0,1.786-.893,2.556,2.556,0,0,0,.536-1.964l-.536-3.214a.656.656,0,0,1,.179-.536l2.5-2.232a2.374,2.374,0,0,0,.089-3.3,2.456,2.456,0,0,0-1.339-.714l-3.3-.446a.759.759,0,0,1-.446-.268L134.6,55.439a3.057,3.057,0,0,0-2.411-1.339Z" transform="translate(-78.325 -54.1)" fill="#ff9d28"/>
      <path id="Path_203330" data-name="Path 203330" d="M161.821,71.663a3.172,3.172,0,0,1-.893-.179l-2.946-1.518a.964.964,0,0,0-.982,0l-2.946,1.518a1.1,1.1,0,0,1-.893.179,1.864,1.864,0,0,1-1.429-.714,1.924,1.924,0,0,1-.446-1.518l.536-3.3a1.079,1.079,0,0,0-.268-.893l-2.321-2.321a1.86,1.86,0,0,1,0-2.679A1.763,1.763,0,0,1,150.3,59.7l3.3-.446a1.3,1.3,0,0,0,.8-.536l1.429-2.946a1.925,1.925,0,0,1,2.589-.893,2.152,2.152,0,0,1,.893.893l1.429,2.946a1.026,1.026,0,0,0,.8.536l3.3.446a1.891,1.891,0,0,1,1.607,2.143,2.037,2.037,0,0,1-.536,1.071l-2.321,2.321a.857.857,0,0,0-.268.893l.536,3.3a2.127,2.127,0,0,1-.446,1.607,1.863,1.863,0,0,1-1.607.625Z" transform="translate(-81.078 -54.163)" fill="#ff9d28"/>
      <path id="Path_203331" data-name="Path 203331" d="M157.493,54.993a1.66,1.66,0,0,1,1.339.8l1.429,2.946a1.423,1.423,0,0,0,1.071.8l3.3.446a1.509,1.509,0,0,1,1.25,1.7,1.2,1.2,0,0,1-.446.8l-2.321,2.321a1.474,1.474,0,0,0-.446,1.339l.536,3.214a1.563,1.563,0,0,1-1.25,1.7,1.1,1.1,0,0,1-.893-.179l-2.946-1.518a1.214,1.214,0,0,0-1.339,0l-2.946,1.518a1.466,1.466,0,0,1-1.964-.625,1.766,1.766,0,0,1-.179-.982l.536-3.214a1.554,1.554,0,0,0-.446-1.339L149.457,62.4a1.359,1.359,0,0,1,0-2.054,1.825,1.825,0,0,1,.8-.446l3.3-.446a1.423,1.423,0,0,0,1.071-.8l1.429-2.946a2.2,2.2,0,0,1,1.429-.714m.089-.893a2.49,2.49,0,0,0-2.143,1.339l-1.429,2.946a.491.491,0,0,1-.446.268l-3.3.446a2.189,2.189,0,0,0-1.875,1.607,2.222,2.222,0,0,0,.625,2.411l2.321,2.321c.179.089.179.357.179.536l-.536,3.214a2.556,2.556,0,0,0,.536,1.964,2.331,2.331,0,0,0,1.786.893,2.121,2.121,0,0,0,1.071-.268l2.946-1.518c.089,0,.179-.089.268-.089a.328.328,0,0,1,.268.089l2.946,1.518a2.377,2.377,0,0,0,1.071.268,2.331,2.331,0,0,0,1.786-.893,2.556,2.556,0,0,0,.536-1.964l-.536-3.214a.656.656,0,0,1,.179-.536l2.321-2.321a2.444,2.444,0,0,0,.625-2.411A2.189,2.189,0,0,0,164.9,59.1l-3.3-.446a.759.759,0,0,1-.446-.268l-1.429-2.946a2.6,2.6,0,0,0-2.143-1.339Z" transform="translate(-81.035 -54.1)" fill="#ff9d28"/>
      <path id="Path_203332" data-name="Path 203332" d="M107.783,54.993a1.66,1.66,0,0,1,1.339.8l1.429,2.946a1.423,1.423,0,0,0,1.071.8l3.3.446a1.509,1.509,0,0,1,1.25,1.7,1.2,1.2,0,0,1-.446.8l-2.411,2.321a1.474,1.474,0,0,0-.446,1.339l.536,3.214a1.388,1.388,0,0,1-1.161,1.7h-.268a2.1,2.1,0,0,1-.714-.179l-2.946-1.518a1.214,1.214,0,0,0-1.339,0l-2.946,1.518a1.466,1.466,0,0,1-1.964-.625,1.766,1.766,0,0,1-.179-.982l.536-3.214a1.554,1.554,0,0,0-.446-1.339l-2.321-2.232a1.359,1.359,0,0,1,0-2.054,1.825,1.825,0,0,1,.8-.446l3.3-.446a1.423,1.423,0,0,0,1.071-.8l1.429-2.946a2.328,2.328,0,0,1,1.518-.8m0-.893a2.49,2.49,0,0,0-2.143,1.339l-1.429,2.946a.491.491,0,0,1-.446.268l-3.3.446A2.345,2.345,0,0,0,98.5,61.779a2.457,2.457,0,0,0,.714,1.339l2.411,2.321c.179.089.179.357.179.536l-.536,3.214a2.556,2.556,0,0,0,.536,1.964,2.331,2.331,0,0,0,1.786.893,2.121,2.121,0,0,0,1.071-.268l2.946-1.518c.089,0,.179-.089.268-.089a.328.328,0,0,1,.268.089l2.946,1.518a2.377,2.377,0,0,0,1.071.268,2.331,2.331,0,0,0,1.786-.893,2.556,2.556,0,0,0,.536-1.964l-.536-3.214a.656.656,0,0,1,.179-.536l2.411-2.321a2.374,2.374,0,0,0,.089-3.3,2.81,2.81,0,0,0-1.339-.714l-3.3-.446a.759.759,0,0,1-.446-.268L110.1,55.439A3.035,3.035,0,0,0,107.783,54.1Z" transform="translate(-75.7 -54.1)" fill="#ff9d28"/>
      <path id="Path_203333" data-name="Path 203333" d="M132.283,54.993a1.659,1.659,0,0,1,1.339.8l1.429,2.946a1.423,1.423,0,0,0,1.071.8l3.3.446a1.509,1.509,0,0,1,1.25,1.7,1.2,1.2,0,0,1-.446.8l-2.321,2.321a1.474,1.474,0,0,0-.446,1.339L138,69.368a1.563,1.563,0,0,1-1.25,1.7,1.61,1.61,0,0,1-.893-.179l-2.946-1.518a1.214,1.214,0,0,0-1.339,0l-2.946,1.518a1.682,1.682,0,0,1-.714.179,1.488,1.488,0,0,1-1.429-1.518v-.179l.536-3.214a1.554,1.554,0,0,0-.446-1.339l-2.411-2.321a1.359,1.359,0,0,1,0-2.054,1.825,1.825,0,0,1,.8-.446l3.3-.446a1.423,1.423,0,0,0,1.071-.8l1.429-2.946a2.328,2.328,0,0,1,1.518-.8m0-.893a2.386,2.386,0,0,0-2.143,1.339l-1.429,2.946a.491.491,0,0,1-.446.268l-3.3.446A2.345,2.345,0,0,0,123,61.779a2.457,2.457,0,0,0,.714,1.339l2.411,2.321c.179.089.179.357.179.536l-.536,3.214a2.556,2.556,0,0,0,.536,1.964,2.331,2.331,0,0,0,1.786.893,2.121,2.121,0,0,0,1.071-.268l2.946-1.518c.089,0,.179-.089.268-.089a.328.328,0,0,1,.268.089l2.946,1.518a2.377,2.377,0,0,0,1.071.268,2.331,2.331,0,0,0,1.786-.893,2.556,2.556,0,0,0,.536-1.964l-.536-3.214a.656.656,0,0,1,.179-.536l2.321-2.232a2.374,2.374,0,0,0,.089-3.3,2.457,2.457,0,0,0-1.339-.714l-3.3-.446a.759.759,0,0,1-.446-.268l-1.429-2.946a2.65,2.65,0,0,0-2.232-1.429Z" transform="translate(-78.325 -54.1)" fill="#ff9d28"/>
      <path id="Path_203334" data-name="Path 203334" d="M191.033,63.118a2.374,2.374,0,0,0,.089-3.3,2.81,2.81,0,0,0-1.339-.714l-3.3-.446a.759.759,0,0,1-.446-.268L184.6,55.439a3.035,3.035,0,0,0-2.321-1.339,2.49,2.49,0,0,0-2.143,1.339l-1.429,2.946a.491.491,0,0,1-.446.268l-3.3.446A2.345,2.345,0,0,0,173,61.779a2.456,2.456,0,0,0,.714,1.339l2.411,2.321c.179.089.179.357.179.536l-.536,3.214a2.556,2.556,0,0,0,.536,1.964,2.331,2.331,0,0,0,1.786.893,2.121,2.121,0,0,0,1.071-.268l2.946-1.518c.089,0,.179-.089.268-.089a.328.328,0,0,1,.268.089l2.946,1.518a2.377,2.377,0,0,0,1.071.268,2.331,2.331,0,0,0,1.786-.893,2.556,2.556,0,0,0,.536-1.964l-.536-3.214a.656.656,0,0,1,.179-.536Zm-3.214,1.7a1.474,1.474,0,0,0-.446,1.339l.536,3.214a1.388,1.388,0,0,1-1.161,1.7h-.268a2.1,2.1,0,0,1-.714-.179l-1.786-.893V56.6l1.071,2.232a1.423,1.423,0,0,0,1.071.8l3.3.446a1.509,1.509,0,0,1,1.25,1.7,1.2,1.2,0,0,1-.446.8Z" transform="translate(-83.683 -54.1)" fill="#ff9d28"/>
    </g>
  </g>
</svg>
