<svg xmlns="http://www.w3.org/2000/svg" xmlns:xlink="http://www.w3.org/1999/xlink" width="356" height="230" viewBox="0 0 356 230">
  <defs>
    <filter id="Path_180916" x="0" y="0" width="356" height="230" filterUnits="userSpaceOnUse">
      <feOffset dy="8" input="SourceAlpha"/>
      <feGaussianBlur stdDeviation="6" result="blur"/>
      <feFlood flood-color="#d9d9d9" flood-opacity="0.078"/>
      <feComposite operator="in" in2="blur"/>
    </filter>
    <filter id="Path_180916-2" x="0" y="0" width="356" height="230" filterUnits="userSpaceOnUse">
      <feOffset dx="2" dy="2" input="SourceAlpha"/>
      <feGaussianBlur stdDeviation="2" result="blur-2"/>
      <feFlood flood-color="#fff" result="color"/>
      <feComposite operator="out" in="SourceGraphic" in2="blur-2"/>
      <feComposite operator="in" in="color"/>
      <feComposite operator="in" in2="SourceGraphic"/>
    </filter>
  </defs>
  <g data-type="innerShadowGroup">
    <g transform="matrix(1, 0, 0, 1, 0, 0)" filter="url(#Path_180916)">
      <g id="Path_180916-3" data-name="Path 180916" transform="translate(18 10)" fill="#06051b">
        <path d="M 296 193.5 L 24 193.5 C 11.04204177856445 193.5 0.5 186.2647552490234 0.5 177.3714599609375 L 0.5 16.62858390808105 C 0.5 7.735249996185303 11.04204177856445 0.5 24 0.5 L 296 0.5 C 308.9579467773438 0.5 319.5 7.735249996185303 319.5 16.62858390808105 L 319.5 177.3714599609375 C 319.5 186.2647552490234 308.9579467773438 193.5 296 193.5 Z" stroke="none"/>
        <path d="M 24 1 C 20.85525512695312 1 17.80679321289062 1.42608642578125 14.9393310546875 2.26641845703125 C 12.1844482421875 3.073715209960938 9.71484375 4.22637939453125 7.598968505859375 5.692367553710938 C 3.343536376953125 8.6407470703125 1 12.52467346191406 1 16.62858581542969 L 1 177.3714599609375 C 1 181.4753723144531 3.343536376953125 185.3592529296875 7.598968505859375 188.3076171875 C 9.71484375 189.7736206054688 12.1844482421875 190.9262847900391 14.9393310546875 191.7335815429688 C 17.80679321289062 192.5739135742188 20.85525512695312 193 24 193 L 296 193 C 299.1447448730469 193 302.1932067871094 192.5739135742188 305.0606689453125 191.7335815429688 C 307.8155517578125 190.9262847900391 310.28515625 189.7736206054688 312.4010314941406 188.3076171875 C 316.6564636230469 185.3592529296875 319 181.4753723144531 319 177.3714599609375 L 319 16.62858581542969 C 319 12.52467346191406 316.6564636230469 8.6407470703125 312.4010314941406 5.692367553710938 C 310.28515625 4.22637939453125 307.8155517578125 3.073715209960938 305.0606689453125 2.26641845703125 C 302.1932067871094 1.42608642578125 299.1447448730469 1 296 1 L 24 1 M 24 0 L 296 0 C 309.2548217773438 0 320 7.444869995117188 320 16.62858581542969 L 320 177.3714599609375 C 320 186.5551300048828 309.2548217773438 194 296 194 L 24 194 C 10.74517822265625 194 0 186.5551300048828 0 177.3714599609375 L 0 16.62858581542969 C 0 7.444869995117188 10.74517822265625 0 24 0 Z" stroke="none" fill="#d9d9d9"/>
      </g>
    </g>
    <g id="Path_180916-4" data-name="Path 180916" transform="translate(18 10)" fill="#06051b">
      <path d="M 296 193.5 L 24 193.5 C 11.04204177856445 193.5 0.5 186.2647552490234 0.5 177.3714599609375 L 0.5 16.62858390808105 C 0.5 7.735249996185303 11.04204177856445 0.5 24 0.5 L 296 0.5 C 308.9579467773438 0.5 319.5 7.735249996185303 319.5 16.62858390808105 L 319.5 177.3714599609375 C 319.5 186.2647552490234 308.9579467773438 193.5 296 193.5 Z" stroke="none"/>
      <path d="M 24 1 C 20.85525512695312 1 17.80679321289062 1.42608642578125 14.9393310546875 2.26641845703125 C 12.1844482421875 3.073715209960938 9.71484375 4.22637939453125 7.598968505859375 5.692367553710938 C 3.343536376953125 8.6407470703125 1 12.52467346191406 1 16.62858581542969 L 1 177.3714599609375 C 1 181.4753723144531 3.343536376953125 185.3592529296875 7.598968505859375 188.3076171875 C 9.71484375 189.7736206054688 12.1844482421875 190.9262847900391 14.9393310546875 191.7335815429688 C 17.80679321289062 192.5739135742188 20.85525512695312 193 24 193 L 296 193 C 299.1447448730469 193 302.1932067871094 192.5739135742188 305.0606689453125 191.7335815429688 C 307.8155517578125 190.9262847900391 310.28515625 189.7736206054688 312.4010314941406 188.3076171875 C 316.6564636230469 185.3592529296875 319 181.4753723144531 319 177.3714599609375 L 319 16.62858581542969 C 319 12.52467346191406 316.6564636230469 8.6407470703125 312.4010314941406 5.692367553710938 C 310.28515625 4.22637939453125 307.8155517578125 3.073715209960938 305.0606689453125 2.26641845703125 C 302.1932067871094 1.42608642578125 299.1447448730469 1 296 1 L 24 1 M 24 0 L 296 0 C 309.2548217773438 0 320 7.444869995117188 320 16.62858581542969 L 320 177.3714599609375 C 320 186.5551300048828 309.2548217773438 194 296 194 L 24 194 C 10.74517822265625 194 0 186.5551300048828 0 177.3714599609375 L 0 16.62858581542969 C 0 7.444869995117188 10.74517822265625 0 24 0 Z" stroke="none"/>
    </g>
    <g transform="matrix(1, 0, 0, 1, 0, 0)" filter="url(#Path_180916-2)">
      <g id="Path_180916-5" data-name="Path 180916" transform="translate(18 10)" fill="#fff">
        <path d="M 296 193.5 L 24 193.5 C 11.04204177856445 193.5 0.5 186.2647552490234 0.5 177.3714599609375 L 0.5 16.62858390808105 C 0.5 7.735249996185303 11.04204177856445 0.5 24 0.5 L 296 0.5 C 308.9579467773438 0.5 319.5 7.735249996185303 319.5 16.62858390808105 L 319.5 177.3714599609375 C 319.5 186.2647552490234 308.9579467773438 193.5 296 193.5 Z" stroke="none"/>
        <path d="M 24 1 C 20.85525512695312 1 17.80679321289062 1.42608642578125 14.9393310546875 2.26641845703125 C 12.1844482421875 3.073715209960938 9.71484375 4.22637939453125 7.598968505859375 5.692367553710938 C 3.343536376953125 8.6407470703125 1 12.52467346191406 1 16.62858581542969 L 1 177.3714599609375 C 1 181.4753723144531 3.343536376953125 185.3592529296875 7.598968505859375 188.3076171875 C 9.71484375 189.7736206054688 12.1844482421875 190.9262847900391 14.9393310546875 191.7335815429688 C 17.80679321289062 192.5739135742188 20.85525512695312 193 24 193 L 296 193 C 299.1447448730469 193 302.1932067871094 192.5739135742188 305.0606689453125 191.7335815429688 C 307.8155517578125 190.9262847900391 310.28515625 189.7736206054688 312.4010314941406 188.3076171875 C 316.6564636230469 185.3592529296875 319 181.4753723144531 319 177.3714599609375 L 319 16.62858581542969 C 319 12.52467346191406 316.6564636230469 8.6407470703125 312.4010314941406 5.692367553710938 C 310.28515625 4.22637939453125 307.8155517578125 3.073715209960938 305.0606689453125 2.26641845703125 C 302.1932067871094 1.42608642578125 299.1447448730469 1 296 1 L 24 1 M 24 0 L 296 0 C 309.2548217773438 0 320 7.444869995117188 320 16.62858581542969 L 320 177.3714599609375 C 320 186.5551300048828 309.2548217773438 194 296 194 L 24 194 C 10.74517822265625 194 0 186.5551300048828 0 177.3714599609375 L 0 16.62858581542969 C 0 7.444869995117188 10.74517822265625 0 24 0 Z" stroke="none"/>
      </g>
    </g>
    <g id="Path_180916-6" data-name="Path 180916" transform="translate(18 10)" fill="none">
      <path d="M 296 193.5 L 24 193.5 C 11.04204177856445 193.5 0.5 186.2647552490234 0.5 177.3714599609375 L 0.5 16.62858390808105 C 0.5 7.735249996185303 11.04204177856445 0.5 24 0.5 L 296 0.5 C 308.9579467773438 0.5 319.5 7.735249996185303 319.5 16.62858390808105 L 319.5 177.3714599609375 C 319.5 186.2647552490234 308.9579467773438 193.5 296 193.5 Z" stroke="none"/>
      <path d="M 24 1 C 20.85525512695312 1 17.80679321289062 1.42608642578125 14.9393310546875 2.26641845703125 C 12.1844482421875 3.073715209960938 9.71484375 4.22637939453125 7.598968505859375 5.692367553710938 C 3.343536376953125 8.6407470703125 1 12.52467346191406 1 16.62858581542969 L 1 177.3714599609375 C 1 181.4753723144531 3.343536376953125 185.3592529296875 7.598968505859375 188.3076171875 C 9.71484375 189.7736206054688 12.1844482421875 190.9262847900391 14.9393310546875 191.7335815429688 C 17.80679321289062 192.5739135742188 20.85525512695312 193 24 193 L 296 193 C 299.1447448730469 193 302.1932067871094 192.5739135742188 305.0606689453125 191.7335815429688 C 307.8155517578125 190.9262847900391 310.28515625 189.7736206054688 312.4010314941406 188.3076171875 C 316.6564636230469 185.3592529296875 319 181.4753723144531 319 177.3714599609375 L 319 16.62858581542969 C 319 12.52467346191406 316.6564636230469 8.6407470703125 312.4010314941406 5.692367553710938 C 310.28515625 4.22637939453125 307.8155517578125 3.073715209960938 305.0606689453125 2.26641845703125 C 302.1932067871094 1.42608642578125 299.1447448730469 1 296 1 L 24 1 M 24 0 L 296 0 C 309.2548217773438 0 320 7.444869995117188 320 16.62858581542969 L 320 177.3714599609375 C 320 186.5551300048828 309.2548217773438 194 296 194 L 24 194 C 10.74517822265625 194 0 186.5551300048828 0 177.3714599609375 L 0 16.62858581542969 C 0 7.444869995117188 10.74517822265625 0 24 0 Z" stroke="none" fill="#d9d9d9"/>
    </g>
  </g>
</svg>
