<svg xmlns="http://www.w3.org/2000/svg" width="48" height="48" viewBox="0 0 48 48">
  <g id="Group_190684" data-name="Group 190684" transform="translate(0 0)">
    <path id="Path_188438" data-name="Path 188438" d="M1.58.74Z" transform="translate(0.833 0.743)" fill="#00d8ff"/>
    <path id="Path_188439" data-name="Path 188439" d="M47.441,35.538a.855.855,0,0,0-.869.84l-1.241,1.461c-.5.84-1.014,1.641-1.551,2.421-.807,1.2-1.675,2.381-2.544,3.562,0,0-.165.48-.331.86a5.067,5.067,0,0,1-.455-.48h0a.877.877,0,0,0,.5-.46,2.8,2.8,0,0,0,.165-.86c.124-1.341.186-4.622.29-5.683a27.615,27.615,0,0,0-.228-8.4,10.866,10.866,0,0,0-2.73-5.4,16.313,16.313,0,0,0-9.1-4.462,97.5,97.5,0,0,0-13.465-.52,23.321,23.321,0,0,1-8.274-1.3,7.177,7.177,0,0,1-4.385-3.862,13.871,13.871,0,0,1-.765-6.3v-3.3a8.246,8.246,0,0,1,.269-1.761,1.952,1.952,0,0,1,.124-.4h0a.782.782,0,0,0,.588-.18.731.731,0,0,0,.26-.541A.749.749,0,0,0,3.443.2a.8.8,0,0,0-.6-.2c-.7,0-1.22.46-1.655,1.4A26.9,26.9,0,0,0,.613,6.8a15.507,15.507,0,0,0,.538,7.2,9.4,9.4,0,0,0,5.461,5.4,25.4,25.4,0,0,0,9.184,1.821,123.265,123.265,0,0,1,13.134.42,14.156,14.156,0,0,1,7.86,3.482,8.479,8.479,0,0,1,2.275,4.142,25.184,25.184,0,0,1,.517,7.764v6.023h0c-.538-.56-1.076-1.141-1.655-1.7a19.755,19.755,0,0,0-2.068-1.681c-.29-.22-1.779-1.6-2.441-2.1a1.331,1.331,0,0,0-1.076-.34.926.926,0,0,0-.529.659.9.9,0,0,0,.239.8.808.808,0,0,0,.558.36c.641.72,1.613,2,1.841,2.161a42.261,42.261,0,0,1,3.516,4.322c.558.68,1.158,1.321,1.737,1.9a1.757,1.757,0,0,0,2.441.12,9.261,9.261,0,0,0,1.634-2.3c.621-1.081,1.22-2.141,1.8-3.221s1.138-2.2,1.655-3.362c.186-.42.724-1,.951-1.481a1.775,1.775,0,0,0,.228-.84.829.829,0,0,0-.3-.619.888.888,0,0,0-.675-.2ZM40.8,42.8a.861.861,0,0,0-.6-.26.777.777,0,0,1,.6.26Zm-.5,2.5c-.186-.26,0-.32.414-.26-.145.26-.29.42-.414.26Z" transform="translate(-0.414 0.001)" fill="#00d8ff"/>
  </g>
</svg>
