<svg xmlns="http://www.w3.org/2000/svg" xmlns:xlink="http://www.w3.org/1999/xlink" width="60" height="60" viewBox="0 0 60 60">
  <defs>
    <linearGradient id="linear-gradient" x2="1" y2="1" gradientUnits="objectBoundingBox">
      <stop offset="0" stop-color="#ac31e1"/>
      <stop offset="0.477" stop-color="#f336a9"/>
      <stop offset="1" stop-color="#fea234"/>
    </linearGradient>
  </defs>
  <g id="Group_196241" data-name="Group 196241" transform="translate(-225 -5803)">
    <rect id="Rectangle_153393" data-name="Rectangle 153393" width="60" height="60" rx="8" transform="translate(225 5803)" fill="url(#linear-gradient)"/>
    <g id="Group_196235" data-name="Group 196235" transform="translate(237.813 5815.813)">
      <path id="Path_203286" data-name="Path 203286" d="M31.054,26.788H16.121l-8.533,6.4v-6.4H3.321a2.133,2.133,0,0,1-2.133-2.133V3.321A2.133,2.133,0,0,1,3.321,1.188H31.054a2.133,2.133,0,0,1,2.133,2.133V24.654a2.133,2.133,0,0,1-2.133,2.133Z" fill="none" stroke="#fff" stroke-linecap="round" stroke-linejoin="round" stroke-width="2"/>
      <path id="Path_203287" data-name="Path 203287" d="M14.25,10.2a4.267,4.267,0,1,1,5.689,4.023,2.133,2.133,0,0,0-1.422,2.012V16.6" transform="translate(-1.329 -0.483)" fill="none" stroke="#fff" stroke-linecap="round" stroke-linejoin="round" stroke-width="2"/>
      <path id="Path_203288" data-name="Path 203288" d="M18.94,23.629a.533.533,0,0,1,0-1.067" transform="translate(-1.752 -2.175)" fill="none" stroke="#fff" stroke-width="2"/>
      <path id="Path_203289" data-name="Path 203289" d="M19,23.629a.533.533,0,0,0,0-1.067" transform="translate(-1.812 -2.175)" fill="none" stroke="#fff" stroke-width="2"/>
    </g>
  </g>
</svg>
