<svg id="typescript" xmlns="http://www.w3.org/2000/svg" width="80" height="80" viewBox="0 0 80 80">
  <path id="Path_180933" data-name="Path 180933" d="M0,40V0H80V80H0" fill="#007acc"/>
  <path id="Path_180934" data-name="Path 180934" d="M87.7,185.761v3.26H98.1v29.6h7.38v-29.6h10.4v-3.2a24.929,24.929,0,0,0-.08-3.3c0-.06-6.34-.08-14.04-.08l-14,.06v3.28Zm46.74-3.34a9.684,9.684,0,0,1,5,2.86,12.585,12.585,0,0,1,1.92,2.56c0,.12-3.46,2.46-5.56,3.76-.08.06-.4-.28-.72-.8a4.573,4.573,0,0,0-3.76-2.24c-2.4-.16-4,1.1-4,3.2a3.16,3.16,0,0,0,.36,1.52c.54,1.1,1.54,1.76,4.64,3.12,5.72,2.46,8.2,4.08,9.7,6.4a11.653,11.653,0,0,1,.94,9.74c-1.28,3.34-4.4,5.6-8.86,6.34a24.948,24.948,0,0,1-6.1-.06,15.1,15.1,0,0,1-8.14-4.26,14.3,14.3,0,0,1-2.08-3.08l.76-.48,3-1.74,2.26-1.32.52.7a10.883,10.883,0,0,0,3,2.92c2.6,1.34,6.08,1.16,7.8-.4a3,3,0,0,0,1.06-2.4,3.086,3.086,0,0,0-.6-2.04c-.64-.88-1.92-1.6-5.52-3.2-4.14-1.76-5.9-2.88-7.54-4.6a11.361,11.361,0,0,1-2.2-4,15.317,15.317,0,0,1-.12-5.14,9.744,9.744,0,0,1,8.2-7.6,19.385,19.385,0,0,1,6.08.2l-.04.04Z" transform="translate(-70.16 -145.621)" fill="#fff"/>
</svg>
