<svg xmlns="http://www.w3.org/2000/svg" xmlns:xlink="http://www.w3.org/1999/xlink" width="80" height="80" viewBox="0 0 80 80">
  <defs>
    <linearGradient id="linear-gradient" x1="0.5" y1="1.021" x2="0.5" y2="0.021" gradientUnits="objectBoundingBox">
      <stop offset="0" stop-color="#fff"/>
      <stop offset="1" stop-color="#fff" stop-opacity="0"/>
    </linearGradient>
  </defs>
  <g id="Visual_Studio" transform="translate(0 0.002)">
    <path id="Path_180937" data-name="Path 180937" d="M11.558,66.357a3.32,3.32,0,0,1-3.45.544L2.05,64.346A3.351,3.351,0,0,1,0,61.272V25.537a3.351,3.351,0,0,1,2.05-3.074L8.108,19.95a3.32,3.32,0,0,1,3.45.544l1.358,1.131A1.834,1.834,0,0,0,11,21.482a1.852,1.852,0,0,0-1,1.651V63.676a1.852,1.852,0,0,0,1,1.651,1.834,1.834,0,0,0,1.917-.143Z" transform="translate(0 -3.406)" fill="#52218a"/>
    <path id="Path_180938" data-name="Path 180938" d="M2.05,61.191A3.351,3.351,0,0,1,0,58.117V57.84a1.924,1.924,0,0,0,3.333,1.3L55,1.716A4.981,4.981,0,0,1,60.683.745L77.167,8.719A5.028,5.028,0,0,1,80,13.251v.193a3.157,3.157,0,0,0-5.158-2.454L12.917,62.029,11.558,63.2a3.32,3.32,0,0,1-3.45.544Z" transform="translate(0 -0.251)" fill="#6c33af"/>
    <path id="Path_180939" data-name="Path 180939" d="M2.05,22.46A3.351,3.351,0,0,0,0,25.534v.276a1.924,1.924,0,0,1,3.333-1.3L55,81.935a4.981,4.981,0,0,0,5.683.972l16.483-7.975A5.028,5.028,0,0,0,80,70.4v-.193a3.157,3.157,0,0,1-5.158,2.454L12.917,21.622,11.558,20.45a3.32,3.32,0,0,0-3.45-.5Z" transform="translate(0 -3.403)" fill="#854cc7"/>
    <path id="Path_180940" data-name="Path 180940" d="M71.683,79.754A4.981,4.981,0,0,1,66,78.782,2.931,2.931,0,0,0,71,76.7V3.819a2.932,2.932,0,0,0-5-2.1A4.981,4.981,0,0,1,71.683.745L88.167,8.711A5.028,5.028,0,0,1,91,13.243V67.256a5.028,5.028,0,0,1-2.833,4.532Z" transform="translate(-11 -0.251)" fill="#b179f1"/>
    <g id="Group_190576" data-name="Group 190576" transform="translate(0 -0.002)" opacity="0.25">
      <path id="Path_180941" data-name="Path 180941" d="M57.408,80.122a4.976,4.976,0,0,0,3.275-.369l16.483-7.966A5.028,5.028,0,0,0,80,67.255V13.242A5.028,5.028,0,0,0,77.167,8.71L60.683.744A4.947,4.947,0,0,0,55,1.716L28.433,31.252,12.917,18.469,11.558,17.3a3.32,3.32,0,0,0-3.008-.7,2.118,2.118,0,0,0-.442.151L2.05,19.307A3.349,3.349,0,0,0,0,22.13V58.367A3.349,3.349,0,0,0,2.05,61.19L8.108,63.7a2.118,2.118,0,0,0,.442.151,3.32,3.32,0,0,0,3.008-.7l1.358-1.131L28.433,49.245,55,78.781A4.993,4.993,0,0,0,57.408,80.122ZM60,23.227,39.342,40.249,60,57.27Zm-50,5.52,10.342,11.5L10,51.75Z" transform="translate(0 -0.248)" fill-rule="evenodd" fill="url(#linear-gradient)"/>
    </g>
  </g>
</svg>
