<svg xmlns="http://www.w3.org/2000/svg" xmlns:xlink="http://www.w3.org/1999/xlink" width="252" height="64" viewBox="0 0 252 64">
  <defs>
    <linearGradient id="linear-gradient" y1="0.5" x2="1" y2="0.5" gradientUnits="objectBoundingBox">
      <stop offset="0.493" stop-color="#bb0625"/>
      <stop offset="1" stop-color="#bb0625"/>
    </linearGradient>
  </defs>
  <g id="AAA" transform="translate(-200 -6162)">
    <g id="Group_195558" data-name="Group 195558" transform="translate(200 6162)">
      <path id="Path_107651" data-name="Path 107651" d="M59.882,87.765,54.4,90.449l.047,16.684,1.068.25q6.69,1.53,13.508,2.412c8.344,11.331,18.381,12.7,18.381,12.7s10.04-1.369,18.384-12.7q6.793-.882,13.481-2.409l1.093-.358.036-16.532-5.577-2.775-.044.779.044-.211A101.573,101.573,0,0,0,116.8,67.413L87.406,58.5,58.014,67.413A101.482,101.482,0,0,0,60,88.355" transform="translate(-54.401 -58.495)" fill="#fff"/>
      <path id="Path_107652" data-name="Path 107652" d="M110.321,129.118a26,26,0,0,1-12.593-7.488c-8.277-8.486-12.77-22.54-13.033-40.718l25.375-7.779,25.877,7.779c-.263,18.178-4.755,32.232-13.033,40.718A26,26,0,0,1,110.321,129.118Z" transform="translate(-77.075 -68.745)" fill="#99daf0"/>
      <path id="Path_107653" data-name="Path 107653" d="M101.268,61.062,73.4,69.519c0,48.436,27.873,52.234,27.873,52.234s27.873-3.8,27.873-52.234Z" transform="translate(-68.275 -59.408)" fill="#303030"/>
      <path id="Path_107654" data-name="Path 107654" d="M109.178,127.58a26,26,0,0,1-12.593-7.488c-8.278-8.486-12.77-22.54-13.033-40.718L109.178,71.6,134.8,79.374c-.263,18.178-4.755,32.232-13.033,40.718A26,26,0,0,1,109.178,127.58Z" transform="translate(-76.185 -67.558)" fill="#99daf0"/>
      <path id="Path_107655" data-name="Path 107655" d="M109.916,126.618a26,26,0,0,1-12.593-7.488c-8.278-8.486-12.77-22.54-13.033-40.718l25.626-7.776,25.626,7.776c-.263,18.178-4.755,32.232-13.033,40.718A26,26,0,0,1,109.916,126.618Z" transform="translate(-76.76 -66.814)" fill="#99daf0"/>
      <path id="Path_107656" data-name="Path 107656" d="M102.428,206.835c2.142,7.282,5.374,13.238,9.647,17.619a25.388,25.388,0,0,0,11.8,7.125,25.385,25.385,0,0,0,11.8-7.125c4.273-4.381,7.506-10.337,9.647-17.619Z" transform="translate(-90.884 -172.165)" fill="#99daf0"/>
      <path id="Path_107657" data-name="Path 107657" d="M163.108,276.794a138.964,138.964,0,0,1-15.159.661c-5.815-.255-13.8-.788-13.8-.788s1.7,3.261,7.249,6.45,7.169,3.5,7.169,3.5a42.189,42.189,0,0,0,9.327-4.884c4.514-3.206,5.21-4.935,5.21-4.935" transform="translate(-115.59 -226.185)" fill="#209bda"/>
      <g id="Group_144500" data-name="Group 144500" transform="translate(24.892 52.383)">
        <path id="Path_107658" data-name="Path 107658" d="M193.218,292.781l-1.506-.879-1.561.772.351-1.738-1.2-1.281,1.723-.195.82-1.563.713,1.617,1.706.315-1.282,1.194Z" transform="translate(-183.431 -287.253)" fill="#fff"/>
        <g id="Group_144499" data-name="Group 144499" transform="translate(0)">
          <path id="Path_107659" data-name="Path 107659" d="M225.651,288.054l-.925-.54-.96.475.216-1.068-.737-.788,1.059-.12.5-.961.438.994,1.049.193-.788.735Z" transform="translate(-209.862 -285.052)" fill="#fff"/>
          <path id="Path_107660" data-name="Path 107660" d="M165.166,288.054l-.925-.54-.96.475.216-1.068-.738-.788,1.06-.12.5-.961.438.994,1.049.193-.788.735Z" transform="translate(-162.759 -285.052)" fill="#fff"/>
        </g>
      </g>
      <path id="Path_107661" data-name="Path 107661" d="M92.956,119.4v.974s4.332-4.77,7.347-5.217,12.538,2.672,12.828,2.1c1.076-2.119,6.829-3.4,6.937-3.363.764.229-.2,2.436,3.372,1.517s6.97-2.1,8.713-1.412,4.044,3.115,4.694,3.751a19.057,19.057,0,0,1,2.477,2.608,2.188,2.188,0,0,0,1.024.889v-.875l-9.2-20.523-.443-.988-6.732,7.747-.466-1.328-6.594-8.03-7.629,9.816-4.111-4.159Z" transform="translate(-83.508 -87.402)" fill="#fff"/>
      <path id="Path_107662" data-name="Path 107662" d="M110.718,142.074l-4.378.377s-4.448,3.341-5.268,3.945c-.458.337-4.765,6.654-4.765,6.654Z" transform="translate(-86.118 -122.072)" fill="#58c0e8"/>
      <path id="Path_107663" data-name="Path 107663" d="M121.054,123.378l-2.155-1.487-9.267,11.062Z" transform="translate(-96.495 -106.463)" fill="#abe0f6"/>
      <path id="Path_107664" data-name="Path 107664" d="M229.623,113.8l-8.154,15,2.394-.434Z" transform="translate(-183.588 -100.203)" fill="#abe0f6"/>
      <path id="Path_107665" data-name="Path 107665" d="M174.394,102.263l-7.629,8.681,1.6,1.5Z" transform="translate(-140.988 -91.278)" fill="#58c0e8"/>
      <g id="Group_144503" data-name="Group 144503" transform="translate(22.916 15.461)">
        <g id="Group_144501" data-name="Group 144501">
          <path id="Path_107666" data-name="Path 107666" d="M156.23,133.118l.016-.2-.761.038Z" transform="translate(-155.119 -130.451)" fill="#f15e12"/>
          <path id="Path_107667" data-name="Path 107667" d="M154.972,131.049l.062-.25-1.205-.226Z" transform="translate(-153.828 -128.637)" fill="#f15e12"/>
          <path id="Path_107668" data-name="Path 107668" d="M157.2,129.914l.108-.217-.717-.237Z" transform="translate(-155.976 -127.776)" fill="#f15e12"/>
          <path id="Path_107669" data-name="Path 107669" d="M156.908,127.343l.152-.2-1.015-.691Z" transform="translate(-155.554 -125.449)" fill="#f15e12"/>
          <path id="Path_107670" data-name="Path 107670" d="M159.322,127.051l.17-.128-.574-.52Z" transform="translate(-157.792 -125.412)" fill="#f15e12"/>
          <path id="Path_107671" data-name="Path 107671" d="M159.969,124.612l.216-.124-.694-1.051Z" transform="translate(-158.238 -123.117)" fill="#f15e12"/>
          <path id="Path_107672" data-name="Path 107672" d="M162.389,125.318l.191-.053-.337-.7Z" transform="translate(-160.381 -123.992)" fill="#f15e12"/>
          <path id="Path_107673" data-name="Path 107673" d="M163.982,123.3l.25-.028-.254-1.244Z" transform="translate(-161.733 -122.027)" fill="#f15e12"/>
          <path id="Path_107674" data-name="Path 107674" d="M165.559,124.875l-.039-.8-.159.775Z" transform="translate(-162.81 -123.607)" fill="#f15e12"/>
          <path id="Path_107675" data-name="Path 107675" d="M166.576,123.6l.22.088.232-1.255Z" transform="translate(-163.756 -122.342)" fill="#f15e12"/>
          <path id="Path_107676" data-name="Path 107676" d="M167.756,125.781l.2.1.26-.769Z" transform="translate(-164.675 -124.413)" fill="#f15e12"/>
          <path id="Path_107677" data-name="Path 107677" d="M169.713,124.635l-.844.891.194.154.668-1.064Z" transform="translate(-165.541 -124.029)" fill="#f15e12"/>
          <path id="Path_107678" data-name="Path 107678" d="M169.844,128l.142.141.512-.584Z" transform="translate(-166.3 -126.302)" fill="#f15e12"/>
          <path id="Path_107679" data-name="Path 107679" d="M170.583,128.659l.131.234,1-.723Z" transform="translate(-166.876 -126.779)" fill="#f15e12"/>
          <path id="Path_107680" data-name="Path 107680" d="M171.283,131.286l.715-.333-.763.139Z" transform="translate(-167.384 -128.931)" fill="#f15e12"/>
        </g>
        <path id="Path_107681" data-name="Path 107681" d="M157.718,128.425l2.46.917.864-1.29a1.682,1.682,0,0,0-1.834-1.416A1.7,1.7,0,0,0,157.718,128.425Z" transform="translate(-156.856 -125.584)" fill="#ffe938"/>
      </g>
      <path id="Path_107682" data-name="Path 107682" d="M92.956,133.151l11.647-18.12,11.741,13.729-.542.231L105.172,117.47Z" transform="translate(-83.509 -101.156)" fill="#209bda"/>
      <g id="Group_144504" data-name="Group 144504" transform="translate(34.241 5.328)">
        <path id="Path_107683" data-name="Path 107683" d="M206.137,77.479v1.263a.636.636,0,0,0,.462.158,3.176,3.176,0,0,0,.766-.272.886.886,0,0,1,.573-.04.46.46,0,0,1,.229.143s-.118-.319-.2-.525a2.3,2.3,0,0,0-.126-.29l.322-.437a.616.616,0,0,0-.529-.187c-.333.044-.636.3-.947.345A.761.761,0,0,1,206.137,77.479Z" transform="translate(-205.89 -77.286)" fill="#7d0b15"/>
        <line id="Line_200" data-name="Line 200" y2="4.507" transform="translate(0 0.31)" fill="none" stroke="#1a1818" stroke-linecap="round" stroke-miterlimit="10" stroke-width="0.5"/>
      </g>
      <path id="Path_107684" data-name="Path 107684" d="M165.323,97.966l7.7-11.541,8.009,10.083,2.314-4.263,3.718-1.757L177.6,107.864l-3.688,1.764,6.316-11.48-6.954-8.136-7.33,8.671Z" transform="translate(-139.864 -79.028)" fill="#209bda"/>
      <path id="Path_107685" data-name="Path 107685" d="M70.124,185.442H82.66s.714-1.332,3.364-1.9,7.083-1.332,9.377-1.64,3.414-1.024,2.956-1.588-2.711-.83-3.127-1.919a1.816,1.816,0,0,1,.122-1.713,26.118,26.118,0,0,0-2.5-1.081C77.075,169.115,70.124,185.442,70.124,185.442Z" transform="translate(-65.728 -146.831)" fill="#6bab3c"/>
      <path id="Path_107686" data-name="Path 107686" d="M103.29,189.605a2.43,2.43,0,0,1-1.226-.708,2.822,2.822,0,0,0,.576-.108,1.81,1.81,0,0,1-.9-.509,3.362,3.362,0,0,0,.637-.111,1.689,1.689,0,0,1-.9-.566l-.026-.031a2.761,2.761,0,0,0,.534-.091,1.28,1.28,0,0,1-.683-.431,2.2,2.2,0,0,1-.537-1.238,1.831,1.831,0,0,1-.494,1.232,1.739,1.739,0,0,1-.746.465s.261.046.6.078l-.006.007a2.276,2.276,0,0,1-.979.61s.286.051.678.093a2.571,2.571,0,0,1-.955.534s.286.051.691.1a3.641,3.641,0,0,1-.3.239,4.8,4.8,0,0,1-1.137-.854,4.71,4.71,0,0,0,.953-.178,2.985,2.985,0,0,1-1.487-.843,5.7,5.7,0,0,0,1.053-.183,2.791,2.791,0,0,1-1.481-.936l-.043-.052a4.575,4.575,0,0,0,.883-.149,2.122,2.122,0,0,1-1.129-.713,3.642,3.642,0,0,1-.887-2.047c0,.051,0,.123-.011.209a2.986,2.986,0,0,1-.807,1.828,2.883,2.883,0,0,1-1.233.769s.431.077,1,.129l-.01.01a3.737,3.737,0,0,1-1.619,1.009s.472.085,1.121.153a4.264,4.264,0,0,1-1.58.884s.472.085,1.142.161a5.819,5.819,0,0,1-.869.643,2,2,0,0,1-.644-.434,3.419,3.419,0,0,0,.637-.111,1.693,1.693,0,0,1-.9-.566l-.026-.031a2.74,2.74,0,0,0,.534-.091,1.284,1.284,0,0,1-.683-.431,2.2,2.2,0,0,1-.536-1.238,1.832,1.832,0,0,1-.495,1.232,1.737,1.737,0,0,1-.746.465s.261.046.6.078l-.006.007a2.275,2.275,0,0,1-.979.61s.286.051.678.093a2.582,2.582,0,0,1-.955.534s.286.051.691.1a3.445,3.445,0,0,1-1.3.732.987.987,0,0,0,1.54.22c.13-.1.577.279.986.279a1.486,1.486,0,0,1,.568.133c.205.2.544-.241.96-.193a.844.844,0,0,0,.527-.04c.246-.063.575.843.868.62a2.919,2.919,0,0,1,1.483-.423c.011,0,.362.285.372.285.862,0,1.251-.066,1.539.138,1.189.843,1.88.457,2.151.065a1.6,1.6,0,0,1,.711-.21c.522,0,3.728.384,2.859.224a2.859,2.859,0,0,1-1.242-.575c.248.046.978-.222.857-.231a1.012,1.012,0,0,1-.744-.362A1.662,1.662,0,0,0,103.29,189.605Z" transform="translate(-80.432 -153.896)" fill="#2a5a27"/>
      <path id="Path_107687" data-name="Path 107687" d="M260.948,107.565l-1.183,2.27L269.849,130.9l-9.409,1.458,11.29-1.84Z" transform="translate(-213.41 -95.382)" fill="#209bda"/>
      <path id="Path_107688" data-name="Path 107688" d="M174,182.15h36.233s-2.048-1.665-6.889-5.9c-2.039-2.133-5.214-7.1-11.974-6.35a26.937,26.937,0,0,0-9.879,3.487c-1.019.666-1.172,1.178-.509,1.486s5.045.768,5.657,2.1-.1,1.947-2.446,2.971-6.676,1.23-8.052,1.333C174,181.28,174,182.15,174,182.15Z" transform="translate(-146.622 -143.54)" fill="#6bab3c"/>
      <path id="Path_107689" data-name="Path 107689" d="M267.754,192.714c-2.794-.307-.678-1.783-.734-1.792a2.98,2.98,0,0,1-1.487-.843,5.72,5.72,0,0,0,1.053-.183,2.793,2.793,0,0,1-1.481-.937l-.044-.052a4.706,4.706,0,0,0,.883-.148,2.127,2.127,0,0,1-1.129-.713,3.639,3.639,0,0,1-.887-2.047c0,.051,0,.122-.011.209a2.986,2.986,0,0,1-.807,1.828,2.879,2.879,0,0,1-1.233.769s.431.077,1,.13l-.01.01a3.739,3.739,0,0,1-1.619,1.009s.472.085,1.121.153a4.254,4.254,0,0,1-1.579.884s.472.085,1.142.161a5.923,5.923,0,0,1-.869.643,2,2,0,0,1-.644-.435,3.393,3.393,0,0,0,.637-.11,1.693,1.693,0,0,1-.9-.566l-.026-.031a2.736,2.736,0,0,0,.534-.091,1.282,1.282,0,0,1-.683-.431,2.205,2.205,0,0,1-.537-1.238,1.829,1.829,0,0,1-.495,1.233,1.739,1.739,0,0,1-.746.465s.261.046.6.078l-.006.007a2.266,2.266,0,0,1-.98.61s.286.051.678.093a2.586,2.586,0,0,1-.955.534s.286.052.691.1a3.44,3.44,0,0,1-1.3.732.986.986,0,0,0,1.54.219,1.883,1.883,0,0,1,.976-.376,1.672,1.672,0,0,1,.6.114,1.6,1.6,0,0,0,.938.481.838.838,0,0,0,.527-.039,2.281,2.281,0,0,0,.809-.414,3.15,3.15,0,0,1,1.582-.62h.031a3.074,3.074,0,0,1,1.781.621" transform="translate(-211.215 -156.049)" fill="#2a5a27"/>
      <g id="Group_144507" data-name="Group 144507" transform="translate(1.441 30.092)">
        <path id="Path_107690" data-name="Path 107690" d="M58.891,190.965l-2.123-1.715,5.564-2.622,1.723,4.337v.906s-4.47-.858-4.61-.858S58.891,190.965,58.891,190.965Z" transform="translate(-56.768 -186.628)" fill="#1e1e1e"/>
        <path id="Path_107691" data-name="Path 107691" d="M314.1,190.965l2.125-1.715-5.566-2.622-1.723,4.337v.906s4.47-.858,4.61-.858S314.1,190.965,314.1,190.965Z" transform="translate(-253.143 -186.628)" fill="#1e1e1e"/>
        <path id="Path_107692" data-name="Path 107692" d="M88.309,216.921a135.755,135.755,0,0,1-30.23-3.416l-1.31-.3v-15l2.042.467a132.187,132.187,0,0,0,59,0l2.042-.467v15l-1.31.3A135.754,135.754,0,0,1,88.309,216.921Z" transform="translate(-56.768 -195.581)" fill="#303030"/>
        <path id="Path_107693" data-name="Path 107693" d="M124.073,219.144a133.824,133.824,0,0,1-59.729,0V207.658a133.838,133.838,0,0,0,59.729,0Z" transform="translate(-62.668 -202.895)" fill="url(#linear-gradient)"/>
        <g id="Group_144505" data-name="Group 144505" transform="translate(7.268 8.509)">
          <path id="Path_107694" data-name="Path 107694" d="M94.418,233.058l-2.711-.428-.648,1.257-1.434-.226,3.5-6.593,1.59.25,1.4,7.365-1.443-.228Zm-.749-4.248-1.424,2.76,1.97.311Z" transform="translate(-89.624 -226.419)" fill="#fff"/>
          <path id="Path_107695" data-name="Path 107695" d="M127.909,231.344a3.269,3.269,0,0,1,2.994,2.607l-1.581-.165a1.742,1.742,0,0,0-1.549-1.177,2.077,2.077,0,0,0-2.283,2.108,2.1,2.1,0,0,0,1.821,2.535,1.716,1.716,0,0,0,1.75-.843l1.58.165a3.221,3.221,0,0,1-3.446,1.936,3.6,3.6,0,0,1,.713-7.166Z" transform="translate(-116.437 -229.71)" fill="#fff"/>
          <path id="Path_107696" data-name="Path 107696" d="M162.049,239.759l-2.741-.125-.512,1.321-1.449-.066,2.781-6.941,1.607.073,2.168,7.166-1.459-.066Zm-1.193-4.139-1.124,2.9,1.991.091Z" transform="translate(-142.364 -231.741)" fill="#fff"/>
          <path id="Path_107697" data-name="Path 107697" d="M198.018,238.226a3.356,3.356,0,0,1-3.6,3.549l-2.408.023-.063-7.051,2.408-.022A3.363,3.363,0,0,1,198.018,238.226Zm-3.66,2.348a2.329,2.329,0,0,0-.042-4.657l-.977.009.042,4.657Z" transform="translate(-169.307 -232.341)" fill="#fff"/>
          <path id="Path_107698" data-name="Path 107698" d="M227.395,234.4l-2.612.149.1,1.765,2.316-.133.061,1.12-2.316.132.1,1.866,2.612-.149.063,1.15-3.991.228-.384-7.051,3.991-.228Z" transform="translate(-193.756 -231.203)" fill="#fff"/>
          <path id="Path_107699" data-name="Path 107699" d="M246.407,230.2l1.56-.177,2.742,4.965,1.614-5.459,1.55-.176.759,7.01-1.374.156-.493-4.56-1.341,4.768-1.04.118-2.338-4.35.494,4.559-1.374.156Z" transform="translate(-211.719 -228.188)" fill="#fff"/>
          <path id="Path_107700" data-name="Path 107700" d="M282.914,225.247l1.537-.27,1.991,2.92.918-3.43,1.517-.266-1.537,4.933.405,2.419-1.361.239-.405-2.419Z" transform="translate(-240.148 -224.2)" fill="#fff"/>
        </g>
      </g>
    </g>
    <text id="AAA_Academy" data-name="AAA Academy" transform="translate(278 6202)" fill="#fff" font-size="24" font-family="Poppins-Medium, Poppins" font-weight="500"><tspan x="0" y="0">AAA Academy</tspan></text>
  </g>
</svg>
