<svg xmlns="http://www.w3.org/2000/svg" width="56" height="34" viewBox="0 0 56 34">
  <g id="ABP_Icon" data-name="ABP Icon" transform="translate(-2236.368 -620.309)">
    <g id="Group_196209" data-name="Group 196209" transform="translate(2236.368 620.309)">
      <path id="Path_1455" data-name="Path 1455" d="M72.781,6.183c.277-.248.534-.508.819-.73a6.478,6.478,0,0,1,6.838-1,6.722,6.722,0,0,1,4.241,5.592,7.069,7.069,0,0,1-5.425,7.938,6.3,6.3,0,0,1-2.662.007.416.416,0,0,1-.386-.5c.021-.3.008-.637,0-.955s.116-.4.417-.328a5.038,5.038,0,0,0,4.055-.713,5.13,5.13,0,0,0,2.3-3.624,5.441,5.441,0,0,0-1.989-5.109,5.017,5.017,0,0,0-5.289-.58,5.353,5.353,0,0,0-2.978,4.564c-.028,1.431-.007,2.864-.014,4.3,0,.148.081.375-.1.424-.153.042-.235-.177-.321-.3A6.884,6.884,0,0,1,71,11.159q0-3.341-.008-6.682a.875.875,0,0,1,.3-.717,13.159,13.159,0,0,1,1.047-.866c.273-.2.367-.108.366.205q0,1.3,0,2.6a.681.681,0,0,0,.073.48" transform="translate(-68.133 -1.117)" fill="#fff"/>
      <path id="Path_1456" data-name="Path 1456" d="M110.311,15.056c.034-1.279-.014-2.839.044-4.4a5.211,5.211,0,1,1,10.422-.007,5.451,5.451,0,0,1-2.806,5.022,5.08,5.08,0,0,1-5.582-.49c-.082-.062-.153-.21-.279-.119-.105.077-.05.213-.05.326,0,1.3-.009,2.6.012,3.9.007.429-.126.576-.553.568-1.208-.02-1.208,0-1.208-1.269Zm8.775-4.109a3.513,3.513,0,1,0-7.021.01,3.658,3.658,0,0,0,1.028,2.56,3.407,3.407,0,0,0,2.482,1.04,3.58,3.58,0,0,0,3.512-3.605" transform="translate(-64.782 -0.763)" fill="#fff"/>
      <path id="Path_1457" data-name="Path 1457" d="M99.93,7.468V3.322c0-.608.007-.613.574-.615h.586c.586,0,.593,0,.594.594V6.726c0,.14-.075.322.063.4s.245-.093.35-.172a5.06,5.06,0,0,1,6.361.169,5.515,5.515,0,0,1,1.444,6.419,5.162,5.162,0,0,1-5.634,3.063,5.32,5.32,0,0,1-4.28-4.877c-.112-1.516-.011-3.033-.053-4.262m8.771,3.854a3.521,3.521,0,1,0-3.528,3.555,3.586,3.586,0,0,0,3.528-3.555" transform="translate(-65.669 -1.127)" fill="#fff"/>
      <path id="Path_1458" data-name="Path 1458" d="M100.027,12.892c0,.946-.011,1.712,0,2.479.008.36-.13.5-.471.475-.193-.016-.386,0-.586,0-.579,0-.579,0-.663-.607-.054-.385-.232-.14-.331-.058a5.064,5.064,0,0,1-6.334.016,5.512,5.512,0,0,1-1.661-6.331,5.184,5.184,0,0,1,5.47-3.307,5.3,5.3,0,0,1,4.5,4.612c.129.966.028,1.935.068,2.723m-8.725-2.2A3.507,3.507,0,1,0,95.016,7.3,3.551,3.551,0,0,0,91.3,10.694" transform="translate(-66.554 -0.764)" fill="#fff"/>
      <path id="Path_1459" data-name="Path 1459" d="M70.245,5.11c.139.161.082.359.082.537.008,1.851-.042,3.7.02,5.554a8,8,0,0,0,5.763,7.372,7.654,7.654,0,0,0,8.542-3.421c.072-.108.111-.327.272-.271s.077.256.078.392c.006.738,0,1.475,0,2.212a.805.805,0,0,1-.281.641A9.468,9.468,0,0,1,76.2,20.618a9.769,9.769,0,0,1-6.922-5.726,9.846,9.846,0,0,1,.7-9.518c.063-.1.107-.239.26-.263" transform="translate(-68.368 -0.817)" fill="#fff"/>
      <path id="Path_1460" data-name="Path 1460" d="M85.53,17.065a.722.722,0,0,1-.077-.492V11.409a7.958,7.958,0,0,0-6.872-8.09,7.2,7.2,0,0,0-4.652.93c-.511.3-.54.283-.542-.325V3.056c0-.763,0-.763.7-1.058A9.553,9.553,0,0,1,84.909,4.673a10.085,10.085,0,0,1,2.414,7.313,9.945,9.945,0,0,1-1.676,4.977.688.688,0,0,1-.119.1" transform="translate(-67.918 -1.309)" fill="#fff"/>
      <path id="Path_1461" data-name="Path 1461" d="M75.1,13.513c0,1.07-.007,2.139,0,3.209,0,.368-.125.445-.422.264a.169.169,0,0,0-.039-.018,1.794,1.794,0,0,1-1.285-2.045c.118-1.464.019-2.946.032-4.42a4.262,4.262,0,1,1,8.522-.223,4.366,4.366,0,0,1-3.92,4.633,4.417,4.417,0,0,1-1.65-.2.447.447,0,0,1-.352-.5c.014-.389.012-.78,0-1.171-.01-.371.11-.369.391-.21a2.464,2.464,0,0,0,2.161.186,2.592,2.592,0,0,0,1.513-1.608,2.585,2.585,0,0,0-3.276-3.345,2.628,2.628,0,0,0-1.66,2.288c-.049,1.053-.01,2.11-.01,3.165h-.008" transform="translate(-67.922 -0.686)" fill="#fff"/>
      <path id="Path_1471" data-name="Path 1471" d="M77.439,11.977a1.639,1.639,0,0,1-1.465-.84,1.763,1.763,0,0,1,0-1.734,1.64,1.64,0,0,1,1.461-.846,1.579,1.579,0,0,1,1.175.477,1.7,1.7,0,0,1,.481,1.209,1.684,1.684,0,0,1-.457,1.243,1.565,1.565,0,0,1-1.193.491" transform="translate(-67.701 -0.373)" fill="#fff"/>
    </g>
    <g id="Group_196208" data-name="Group 196208" transform="translate(2236.368 644.308)">
      <path id="Path_1462" data-name="Path 1462" d="M133.528,11.679c0-.756.015-1.513-.006-2.268a.584.584,0,0,1,.47-.665,4.394,4.394,0,0,1,3.557-.039c.215.115.4,0,.6-.067a4.278,4.278,0,0,1,2.326-.228,1.752,1.752,0,0,1,1.473,1.58,21.6,21.6,0,0,1,.075,2.863c.011.462,0,.925,0,1.387,0,.222-.08.356-.318.333a.732.732,0,0,0-.09,0c-.945.01-.944.01-.945-.97V10.782c0-.46-.1-.9-.572-1.049a1.984,1.984,0,0,0-1.6.133c-.127.067-.1.207-.087.334.1,1.308.021,2.619.047,3.928.007.31-.114.465-.422.441a.74.74,0,0,0-.09,0c-.838.02-.838.02-.838-.842V10.813c0-.458-.092-.907-.536-1.078a1.955,1.955,0,0,0-1.525.069c-.2.087-.145.32-.146.5v3.654c0,.583-.024.6-.571.609-.1,0-.206-.009-.309,0-.345.032-.482-.127-.477-.484.012-.8,0-1.6,0-2.405Z" transform="translate(-120.048 -4.801)" fill="#fff"/>
      <path id="Path_1463" data-name="Path 1463" d="M141.684,11.681c0-.77.01-1.542,0-2.313a.531.531,0,0,1,.42-.6,4.472,4.472,0,0,1,3.641-.037c.182.1.345,0,.515-.055a4.186,4.186,0,0,1,2.584-.207,1.645,1.645,0,0,1,1.242,1.424,34.859,34.859,0,0,1,.092,4.339.3.3,0,0,1-.337.337,4.906,4.906,0,0,0-.58.007c-.334.043-.443-.094-.439-.438.016-1.067.009-2.128,0-3.19a2.361,2.361,0,0,0-.071-.64.816.816,0,0,0-.816-.656h-.49c-.789.039-.854.134-.841.926.019,1.2,0,2.4.012,3.607,0,.306-.1.4-.394.39-1.059-.045-.96.234-.965-1.008,0-.96,0-1.91-.006-2.867a1.03,1.03,0,0,0-.295-.822.953.953,0,0,0-.8-.273h-.044c-1.024.05-1.071.1-1.068,1.149,0,1.078,0,2.158.019,3.236.008.407-.061.613-.531.587-.839-.047-.841-.013-.84-.912v-1.98" transform="translate(-118.758 -4.801)" fill="#fff"/>
      <path id="Path_1464" data-name="Path 1464" d="M128.286,14.109c0,.887,0,.936-.809,1.185a3.831,3.831,0,0,1-4.418-1.009,4.763,4.763,0,0,1-.858-4.843,3.721,3.721,0,0,1,3.02-2.7,4,4,0,0,1,2.5.258.707.707,0,0,1,.482.806c-.028.3.08.765-.063.886-.226.191-.454-.215-.693-.338a2.709,2.709,0,0,0-3.464.707A3.765,3.765,0,0,0,123.89,13a2.834,2.834,0,0,0,3.8.744c.594-.367.594-.367.593.368" transform="translate(-121.885 -5.614)" fill="#fff"/>
      <path id="Path_1465" data-name="Path 1465" d="M127.751,11.507a3.085,3.085,0,0,1,.848-2.271,2.867,2.867,0,0,1,2.189-.888,2.942,2.942,0,0,1,2.2.925,3.163,3.163,0,0,1,.858,2.29,3.145,3.145,0,0,1-.879,2.283,2.924,2.924,0,0,1-2.211.894,2.858,2.858,0,0,1-2.194-.925,3.076,3.076,0,0,1-.8-2.309m1.371.048v.277a1.739,1.739,0,0,0,1.163,1.59,1.483,1.483,0,0,0,1.72-.533,2.195,2.195,0,0,0,.3-2.176,1.664,1.664,0,0,0-.961-1.027,1.581,1.581,0,0,0-1.377.1,1.834,1.834,0,0,0-.849,1.763" transform="translate(-120.935 -4.8)" fill="#fff"/>
      <path id="Path_1466" data-name="Path 1466" d="M152.86,11.874c-.536,0-1.072-.007-1.607,0-.4.007-.49.139-.325.513a1.807,1.807,0,0,0,1.617,1.122,2.943,2.943,0,0,0,1.763-.386c.243-.143.337-.116.342.2.016.895-.02,1-.851,1.222a3.338,3.338,0,0,1-3.561-.79,3.713,3.713,0,0,1-.247-4.107,2.819,2.819,0,0,1,3.178-1.194,2.465,2.465,0,0,1,1.723,2.524c.009.138,0,.277.008.415.029.366-.143.49-.479.48-.521-.016-1.041,0-1.561,0Zm-.612-.939h.978c.29,0,.4-.116.315-.432a1.182,1.182,0,0,0-1.3-.942,1.487,1.487,0,0,0-1.3,1.087c-.042.223.072.279.241.282.355.007.713,0,1.068,0" transform="translate(-117.516 -4.799)" fill="#fff"/>
      <path id="Path_1467" data-name="Path 1467" d="M168.8,12.136v1.942c0,.242-.057.427-.323.464a7.191,7.191,0,0,1-2.965.027,1.672,1.672,0,0,1-1.382-1.683,1.693,1.693,0,0,1,1.356-1.713,5.063,5.063,0,0,1,1.325-.162c.229,0,.538.143.664-.2a1.05,1.05,0,0,0-.412-1.04,1.9,1.9,0,0,0-1.648-.019c-.76.255-.837.19-.751-.627a.5.5,0,0,1,.382-.452,3.911,3.911,0,0,1,2.276-.241,1.723,1.723,0,0,1,1.47,1.813c.016.633,0,1.264,0,1.9m-1.292.533c-.06-.2.186-.634-.309-.7a2.253,2.253,0,0,0-1.27.176.714.714,0,0,0-.429.7.69.69,0,0,0,.429.651,2.514,2.514,0,0,0,1.32.1c.173-.017.244-.166.253-.334s0-.338,0-.589" transform="translate(-115.205 -4.799)" fill="#fff"/>
      <path id="Path_1468" data-name="Path 1468" d="M162.441,13.752c.112.445-.181.64-.592.793a3.208,3.208,0,0,1-3.823-1.269,3.491,3.491,0,0,1,.6-4.186,3.318,3.318,0,0,1,3.536-.409,1.453,1.453,0,0,1,.206,1.308c-.151.138-.276-.02-.4-.082a2.223,2.223,0,0,0-1.635-.251A1.956,1.956,0,0,0,159,11.922a1.891,1.891,0,0,0,2.083,1.544,2.2,2.2,0,0,0,.939-.27c.34-.225.448-.133.422.252-.006.077,0,.154,0,.3" transform="translate(-116.233 -4.8)" fill="#fff"/>
      <path id="Path_1469" data-name="Path 1469" d="M169.042,10.673c0-1.456.011-2.913-.007-4.369-.006-.41.116-.524.485-.513.877.028.878.009.878.952,0,2.737-.01,5.474.008,8.209,0,.491-.124.65-.583.617-.83-.058-.78.187-.783-.861V10.675" transform="translate(-114.407 -5.79)" fill="#fff"/>
      <path id="Path_1470" data-name="Path 1470" d="M154.741,11.783c0-.77.016-1.542-.007-2.312a.674.674,0,0,1,.482-.723,5.164,5.164,0,0,1,2.457-.315c.368.028.5.213.5.6-.008.768.009.768-.711.7-1.252-.115-1.364-.013-1.364,1.253,0,1.034-.009,2.066,0,3.1,0,.354-.1.485-.463.474-.9-.03-.9-.011-.9-.932V11.783" transform="translate(-116.681 -4.788)" fill="#fff"/>
      <path id="Path_1472" data-name="Path 1472" d="M163.723,11.52c0,.848-.014,1.695.006,2.542.009.367-.07.533-.47.5-.884-.078-.9.194-.9-.985,0-1.493.015-2.987-.007-4.48-.006-.464.138-.631.59-.609.855.041.773-.148.777.821v2.218" transform="translate(-115.493 -4.773)" fill="#fff"/>
      <path id="Path_1473" data-name="Path 1473" d="M163.889,7.092a.883.883,0,0,1-.261.615.822.822,0,0,1-.607.238.851.851,0,1,1,.866-.854" transform="translate(-115.512 -5.7)" fill="#fff"/>
    </g>
  </g>
</svg>
