<svg xmlns="http://www.w3.org/2000/svg" width="49.736" height="49.736" viewBox="0 0 49.736 49.736">
  <g id="Developer_Icon" data-name="Developer Icon" transform="translate(-0.202 -0.586)">
    <path id="Path_203267" data-name="Path 203267" d="M29.983,44.691,20.81,40.74V35.471s2.268-.921,2.268-6.585c1.79,0,2.47-5.267-.019-5.267A6.957,6.957,0,0,0,24.21,18.35c-1.28-5.267-13.956-5.267-15.243,0-5.408-1.131-1.1,4.507-1.1,5.269-2.56,0-2.56,5.267,0,5.267,0,5.664,2.473,6.585,2.473,6.585V40.74l-9.15,3.949" transform="translate(0 4.645)" fill="none" stroke="#fff" stroke-linecap="round" stroke-linejoin="round" stroke-width="1.5"/>
    <path id="Path_203268" data-name="Path 203268" d="M25.863,27.092V36.75l9.6-9.658h6.4a3.21,3.21,0,0,0,3.2-3.219V4.556a3.21,3.21,0,0,0-3.2-3.219h-25.6a3.21,3.21,0,0,0-3.2,3.219v6.439" transform="translate(4.125)" fill="none" stroke="#fff" stroke-linecap="round" stroke-linejoin="round" stroke-width="1.5"/>
    <path id="Path_203269" data-name="Path 203269" d="M20.188,7.274l4.8,4.829-4.8,4.829" transform="translate(6.6 2.111)" fill="none" stroke="#fff" stroke-linecap="round" stroke-linejoin="round" stroke-width="1.5"/>
    <path id="Path_203270" data-name="Path 203270" d="M28.5,10.836h4.8" transform="translate(9.487 3.378)" fill="none" stroke="#fff" stroke-linecap="round" stroke-linejoin="round" stroke-width="1.5"/>
  </g>
</svg>
