<svg xmlns="http://www.w3.org/2000/svg" width="228" height="48" viewBox="0 0 228 48">
  <g id="doohclick" transform="translate(0)">
    <g id="night" transform="translate(0)">
      <g id="Group_148304" data-name="Group 148304">
        <g id="Group_148303" data-name="Group 148303" transform="translate(0 0.177)">
          <path id="Path_123363" data-name="Path 123363" d="M276.93,66a4.583,4.583,0,1,0,3.319,1.34A4.588,4.588,0,0,0,276.93,66" transform="translate(-111.939 -27.341)" fill="#ff3a00"/>
          <path id="Path_123364" data-name="Path 123364" d="M19.984,18.865a7.96,7.96,0,0,0-6.4-3.2c-4.052,0-6.661,3.354-6.661,7.061a6.755,6.755,0,0,0,6.82,7.026A7.582,7.582,0,0,0,19.984,26.6Zm.265,16.764V33.557a10.825,10.825,0,0,1-7.191,2.607A13,13,0,0,1,3.3,31.8,13.844,13.844,0,0,1,0,22.749C0,15.135,5.648,9.28,12.681,9.28a11.48,11.48,0,0,1,7.3,2.395V.3h6.926V35.605Z" transform="translate(0 -0.3)" fill="#fff"/>
          <path id="Path_123365" data-name="Path 123365" d="M65.293,36.054a6.747,6.747,0,0,0,6.82-7.026,6.824,6.824,0,1,0-13.64,0,6.754,6.754,0,0,0,6.82,7.026m0-20.495A13.445,13.445,0,1,1,53.376,35.811,13.445,13.445,0,0,1,65.293,15.559" transform="translate(-21.184 -6.58)" fill="#fff"/>
          <path id="Path_123366" data-name="Path 123366" d="M116.747,36.054a6.75,6.75,0,0,0,6.82-7.026,6.824,6.824,0,1,0-13.64,0,6.757,6.757,0,0,0,6.82,7.026m0-20.495a13.452,13.452,0,1,1-9.714,3.845,13.456,13.456,0,0,1,9.714-3.845" transform="translate(-42.335 -6.58)" fill="#fff"/>
          <path id="Path_123367" data-name="Path 123367" d="M162.476,35.628H155.55V.3h6.926V11.674a11.469,11.469,0,0,1,7.038-2.395,11.637,11.637,0,0,1,8.948,4.154c1.708,2.024,2.68,4.631,2.68,9.05V35.628H174.2V21.944c0-2.553-.589-3.884-1.549-4.842a5.434,5.434,0,0,0-3.887-1.436,8.248,8.248,0,0,0-6.29,3.2Z" transform="translate(-63.934 -0.3)" fill="#fff"/>
          <path id="Path_123368" data-name="Path 123368" d="M230.662,36.451a13.759,13.759,0,0,1-11.779,5.825C210.89,42.276,205,36.3,205,28.813a13.61,13.61,0,0,1,13.953-13.533,13.834,13.834,0,0,1,10.9,5.178l-4.918,4.33a7.506,7.506,0,0,0-5.984-3.1,6.952,6.952,0,0,0-7.009,7.1,6.86,6.86,0,0,0,7.168,7.061,7.6,7.6,0,0,0,6.2-3.418Z" transform="translate(-84.259 -6.465)" fill="#fff"/>
        </g>
        <rect id="Rectangle_36210" data-name="Rectangle 36210" width="6.95" height="35.452" transform="translate(149.572)" fill="#fff"/>
        <rect id="Rectangle_36211" data-name="Rectangle 36211" width="6.95" height="24.825" transform="translate(161.545 10.627)" fill="#fff"/>
        <path id="Path_123369" data-name="Path 123369" d="M317.72,36.451a13.766,13.766,0,0,1-11.776,5.825c-8.022,0-13.9-5.984-13.9-13.463a13.617,13.617,0,0,1,13.949-13.533A13.861,13.861,0,0,1,316.9,20.458l-4.918,4.33a7.512,7.512,0,0,0-5.99-3.1,6.946,6.946,0,0,0-7,7.1,6.858,6.858,0,0,0,7.162,7.061,7.588,7.588,0,0,0,6.2-3.418Z" transform="translate(-120.035 -6.288)" fill="#fff"/>
        <path id="Path_123370" data-name="Path 123370" d="M353.813,21.195l14.271,14.257H358.73L347.772,24.237V35.452H340.82V0h6.952V17.935L356.7,9.55h9.783Z" transform="translate(-140.084)" fill="#fff"/>
      </g>
    </g>
  </g>
</svg>
