<svg xmlns="http://www.w3.org/2000/svg" xmlns:xlink="http://www.w3.org/1999/xlink" width="150.289" height="64" viewBox="0 0 150.289 64">
  <defs>
    <clipPath id="clip-path">
      <path id="Path_201970" data-name="Path 201970" d="M117.01,10.279a5.731,5.731,0,0,1,5.768-5.73,5.73,5.73,0,1,1,0,11.46l-.158,0a5.68,5.68,0,0,1-5.61-5.733m26.5,0a5.768,5.768,0,0,1,11.536,0,5.789,5.789,0,0,1-5.768,5.731l-.158,0a5.68,5.68,0,0,1-5.61-5.733M141.343,4.19a9.361,9.361,0,0,0-5.316-2.148h-.091a8.925,8.925,0,0,0-5.227,1.969,10.062,10.062,0,1,0,2.164,6.268A8.736,8.736,0,0,0,132.6,8.13a4.013,4.013,0,0,1,6.849.359,10.038,10.038,0,0,0,19.737,3.67,12.109,12.109,0,0,0,.18-1.88A10.047,10.047,0,0,0,141.343,4.19" transform="translate(-112.685 -0.251)" fill="#fff"/>
    </clipPath>
  </defs>
  <g id="HTT" transform="translate(0 -0.134)">
    <path id="Path_201958" data-name="Path 201958" d="M0,53.459V55.18H4.894v14.5H7.224V55.18h4.868V53.459Z" transform="translate(0 -5.682)" fill="#fff"/>
    <path id="Path_201959" data-name="Path 201959" d="M18.563,53.432V69.673h9.608V67.929H20.894V62.343H27.4V60.6H20.894V55.177h7.277V53.432Z" transform="translate(-1.833 -5.679)" fill="#fff"/>
    <path id="Path_201960" data-name="Path 201960" d="M43.056,53.225c3.869,0,6.943,1.768,8.276,4.91H48.539a5.693,5.693,0,0,0-5.483-3.048,6.434,6.434,0,1,0,0,12.867,5.712,5.712,0,0,0,5.483-3.025h2.793c-1.333,3.118-4.407,4.863-8.276,4.863-5,0-8.916-3.4-8.916-8.26s3.92-8.307,8.916-8.307" transform="translate(-3.372 -5.658)" fill="#fff"/>
    <path id="Path_201961" data-name="Path 201961" d="M70.44,62.324h-9.1v7.352H59.013V53.459h2.331v7.119h9.1V53.459h2.331V69.676H70.44Z" transform="translate(-5.829 -5.682)" fill="#fff"/>
    <path id="Path_201962" data-name="Path 201962" d="M88.947,53.459h12.092v1.722H96.172V69.676H93.84V55.181H88.947Z" transform="translate(-8.785 -5.682)" fill="#fff"/>
    <path id="Path_201963" data-name="Path 201963" d="M117.117,55.178h-7.276V60.6h6.507v1.744h-6.507v5.585h7.276v1.744h-9.607V53.433h9.607Z" transform="translate(-10.619 -5.68)" fill="#fff"/>
    <path id="Path_201964" data-name="Path 201964" d="M134.485,66.081H126.7l-1.435,3.607H122.8l6.456-16.125h2.691l6.43,16.125H135.92Zm-3.893-9.912-3.228,8.19h6.456Z" transform="translate(-12.129 -5.693)" fill="#fff"/>
    <path id="Path_201965" data-name="Path 201965" d="M145.174,53.589h2.511L154.243,66.9,160.8,53.589h2.486v16.1h-2.331V57.684l-5.892,12.006h-1.64l-5.918-12.028V69.689h-2.331Z" transform="translate(-14.339 -5.696)" fill="#fff"/>
    <path id="Path_201966" data-name="Path 201966" d="M17.641,29.547H7.512v10H1V15.26H7.512v9.514H17.641V15.26h6.511V39.544H17.641Z" transform="translate(-0.099 -1.687)" fill="#fff"/>
    <rect id="Rectangle_153369" data-name="Rectangle 153369" width="6.511" height="24.284" transform="translate(30.492 13.573)" fill="#fff"/>
    <path id="Path_201967" data-name="Path 201967" d="M59.173,15.26c6.548,0,9.823,3.424,9.823,7.645,0,3.043-1.828,5.915-5.94,7.023l6.169,9.617H61.877l-5.56-9.168H54.755v9.168H48.244V15.26Zm-.381,4.912H54.755v6.02h4.037c2.437,0,3.58-1.143,3.58-3.045,0-1.8-1.143-2.975-3.58-2.975" transform="translate(-4.765 -1.687)" fill="#fff"/>
    <path id="Path_201968" data-name="Path 201968" d="M94.114,20H84.252v4.912h8.719v4.567H84.252V34.8h9.862v4.739H77.74V15.26H94.114Z" transform="translate(-7.678 -1.687)" fill="#fff"/>
    <path id="Path_201969" data-name="Path 201969" d="M122.958,40.576h7.66a5.337,5.337,0,0,0,2.974-.806,3.342,3.342,0,0,0,1.442-3.492,39.082,39.082,0,0,0-1.622-7.969,15.828,15.828,0,0,0-1.352-2.776A1.516,1.516,0,0,0,129.627,25c-.27.179-.541.448-.811.627-.541.537-1.172,1.074-1.712,1.522a6.274,6.274,0,0,1-6.038,1.254,7.914,7.914,0,0,1-3.335-2.149,11.717,11.717,0,0,0-1.622-1.343,1.428,1.428,0,0,0-2.253.448,14.462,14.462,0,0,0-.9,1.612c-1.081,2.418-1.622,6-2.073,8.685-.36,2.328.451,3.761,2.343,4.387a7.722,7.722,0,0,0,2.073.358c2.523.179,5.137.179,7.66.179" transform="translate(-10.944 -2.657)" fill="#03a9f4" fill-rule="evenodd"/>
    <g id="Group_196195" data-name="Group 196195" transform="translate(101.555 0.134)" clip-path="url(#clip-path)">
      <rect id="Rectangle_153371" data-name="Rectangle 153371" width="46.684" height="20.147" transform="translate(0.089 -0.001)" fill="#fff"/>
      <rect id="Rectangle_153372" data-name="Rectangle 153372" width="46.684" height="20.147" transform="translate(0.089 -0.001)" fill="#fff" stroke="#000" stroke-width="0.5"/>
    </g>
    <path id="Path_201971" data-name="Path 201971" d="M151.958,40.576h7.66a5.337,5.337,0,0,0,2.974-.806,3.342,3.342,0,0,0,1.442-3.492,39.083,39.083,0,0,0-1.622-7.969,15.83,15.83,0,0,0-1.352-2.776A1.516,1.516,0,0,0,158.627,25c-.27.179-.541.448-.811.627-.541.537-1.172,1.074-1.712,1.522a6.274,6.274,0,0,1-6.038,1.254,7.914,7.914,0,0,1-3.335-2.149,11.714,11.714,0,0,0-1.622-1.343,1.428,1.428,0,0,0-2.253.448,14.462,14.462,0,0,0-.9,1.612c-1.082,2.418-1.622,6-2.073,8.685-.36,2.328.451,3.761,2.343,4.387a7.722,7.722,0,0,0,2.073.358c2.523.179,5.137.179,7.66.179" transform="translate(-13.808 -2.657)" fill="#e60000" fill-rule="evenodd"/>
    <rect id="Rectangle_153373" data-name="Rectangle 153373" width="150" height="63.631" transform="translate(0 0.502)" fill="none"/>
  </g>
</svg>
