<svg xmlns="http://www.w3.org/2000/svg" xmlns:xlink="http://www.w3.org/1999/xlink" width="220" height="40.001" viewBox="0 0 220 40.001">
  <defs>
    <linearGradient id="linear-gradient" x1="1.055" y1="1.103" x2="0.09" y2="0.101" gradientUnits="objectBoundingBox">
      <stop offset="0" stop-color="#01adf6"/>
      <stop offset="0.526" stop-color="#840264"/>
      <stop offset="1" stop-color="#ce1d2c"/>
    </linearGradient>
  </defs>
  <g id="ITP" transform="translate(8310 13198)">
    <path id="Path_171716" data-name="Path 171716" d="M108.363,48.213v7.168h-4.3a10.526,10.526,0,0,1-7.169-2.247q-2.571-2.247-2.571-7.342V34.819h-3.36V27.8h3.36V21.075h8.454V27.8h5.541v7.02h-5.537V45.893a2.318,2.318,0,0,0,.593,1.775,2.9,2.9,0,0,0,1.977.544ZM117.3,24.931a5.121,5.121,0,0,1-3.629-1.314,4.242,4.242,0,0,1-1.409-3.238,4.3,4.3,0,0,1,1.409-3.288,5.123,5.123,0,0,1,3.629-1.31,5.057,5.057,0,0,1,3.585,1.31,4.3,4.3,0,0,1,1.409,3.288,4.246,4.246,0,0,1-1.409,3.238,5.057,5.057,0,0,1-3.585,1.314m4.2,2.868V55.381H113.06V27.794Zm41.331-.3a10.91,10.91,0,0,1,8.182,3.115q3.041,3.115,3.04,8.652V55.381h-8.4V40.4a5.7,5.7,0,0,0-1.409-4.128,5.886,5.886,0,0,0-7.762,0,5.7,5.7,0,0,0-1.4,4.128V55.381h-8.4V40.4a5.7,5.7,0,0,0-1.409-4.128,5.886,5.886,0,0,0-7.762,0A5.7,5.7,0,0,0,136.1,40.4V55.381h-8.454V27.794H136.1v3.461a9.049,9.049,0,0,1,3.36-2.744,10.572,10.572,0,0,1,4.7-1.011,11.425,11.425,0,0,1,5.562,1.335,9.568,9.568,0,0,1,3.832,3.807,11.106,11.106,0,0,1,3.906-3.708,10.551,10.551,0,0,1,5.389-1.436ZM206,41.143a21.481,21.481,0,0,1-.148,2.472H186.719a5.752,5.752,0,0,0,1.656,3.93A5.057,5.057,0,0,0,191.96,48.9a4.442,4.442,0,0,0,4.4-2.672h9a12.35,12.35,0,0,1-2.5,4.894,12.5,12.5,0,0,1-4.524,3.411,14.526,14.526,0,0,1-6.081,1.236,14.8,14.8,0,0,1-7.218-1.731,12.305,12.305,0,0,1-4.944-4.943,15.259,15.259,0,0,1-1.776-7.511,15.434,15.434,0,0,1,1.755-7.518,12.147,12.147,0,0,1,4.919-4.944,16,16,0,0,1,14.387-.045,12.07,12.07,0,0,1,4.87,4.8A14.559,14.559,0,0,1,206,41.141m-8.651-2.221a4.346,4.346,0,0,0-1.481-3.461,5.463,5.463,0,0,0-3.708-1.285,5.353,5.353,0,0,0-3.584,1.236,5.49,5.49,0,0,0-1.8,3.508Z" transform="translate(-8346.861 -13213.777)" fill="#fff"/>
    <path id="Path_171717" data-name="Path 171717" d="M5.093,25.023A5.177,5.177,0,0,1,1.424,23.7,4.285,4.285,0,0,1,0,20.425,4.345,4.345,0,0,1,1.423,17.1a5.177,5.177,0,0,1,3.669-1.323A5.11,5.11,0,0,1,8.716,17.1a4.346,4.346,0,0,1,1.423,3.321A4.289,4.289,0,0,1,8.716,23.7a5.112,5.112,0,0,1-3.624,1.328m4.245,2.9V55.777H.8V27.914Zm23.168-.3a10.113,10.113,0,0,1,7.816,3.171A12.371,12.371,0,0,1,43.242,39.5V55.777H34.753V40.649A6.113,6.113,0,0,0,33.3,36.3a5.077,5.077,0,0,0-3.895-1.548A5.077,5.077,0,0,0,25.514,36.3a6.119,6.119,0,0,0-1.448,4.344V55.775H15.53V27.914h8.538V31.6a9,9,0,0,1,3.5-2.921,11.115,11.115,0,0,1,4.943-1.069" transform="translate(-8309.998 -13213.776)" fill="#fff"/>
    <g id="Group_196199" data-name="Group 196199" transform="translate(-8130 -13198)">
      <path id="Rectangle_68627" data-name="Rectangle 68627" d="M5.714,0H34.286A5.714,5.714,0,0,1,40,5.714V34.286A5.714,5.714,0,0,1,34.286,40H5.714A5.714,5.714,0,0,1,0,34.286V5.714A5.714,5.714,0,0,1,5.714,0Z" transform="translate(0 0)" fill="url(#linear-gradient)"/>
      <path id="Path_171721" data-name="Path 171721" d="M324.934,65.634v3.481h-2.375V59.423h4.98a4.086,4.086,0,0,1,1.754.33,2.717,2.717,0,0,1,1.567,2.077,4.764,4.764,0,0,1,.087.878,2.911,2.911,0,0,1-.61,1.908,2.748,2.748,0,0,1-1.726.936,6.354,6.354,0,0,1-1.014.077Zm0-2.106h2.505c.747,0,1.124-.314,1.124-.949a.857.857,0,0,0-.705-.949,2.567,2.567,0,0,0-.42-.035h-2.506Z" transform="translate(-317.417 -36.516)" fill="#fff"/>
      <path id="Path_171722" data-name="Path 171722" d="M347.15,59.419h5.237a3.154,3.154,0,0,1,2.2.711,2.732,2.732,0,0,1,.909,2.125,2.676,2.676,0,0,1-1.02,2.154,3.193,3.193,0,0,1,.8,1.442q.077.286.217,3.257h-2.336l-.084-1.829q-.109-.571-.185-.919a1.261,1.261,0,0,0-1.02-.946,2.2,2.2,0,0,0-.469-.048h-1.965v3.742h-2.286Zm2.286,3.889h2.514c.514,0,.841-.154.971-.462a.832.832,0,0,0,.087-.371c0-.591-.354-.883-1.055-.883h-2.518Z" transform="translate(-332.417 -36.511)" fill="#fff"/>
      <path id="Path_171723" data-name="Path 171723" d="M376.724,59.4a5.045,5.045,0,0,1,3.657,1.358,5.154,5.154,0,0,1,0,6.984,5.585,5.585,0,0,1-7.3,0,4.591,4.591,0,0,1-1.366-3.486,4.666,4.666,0,0,1,1.385-3.519,5.007,5.007,0,0,1,3.623-1.338Zm0,2.154a2.6,2.6,0,0,0-2.279,1.1,2.691,2.691,0,0,0-.5,1.607,2.735,2.735,0,0,0,.518,1.633,2.377,2.377,0,0,0,1.375.946,3.142,3.142,0,0,0,.883.124,2.616,2.616,0,0,0,2.286-1.1,2.85,2.85,0,0,0-.019-3.247,2.45,2.45,0,0,0-1.385-.954,3.5,3.5,0,0,0-.884-.114Z" transform="translate(-347.404 -36.497)" fill="#fff"/>
      <path id="Path_171718" data-name="Path 171718" d="M355.874,26.323a3.209,3.209,0,0,0-5.828,0l-1.473-.682a4.833,4.833,0,0,1,8.774,0Z" transform="translate(-333.175 -14.195)" fill="#fff"/>
      <path id="Path_171719" data-name="Path 171719" d="M328.538,31.692a5.982,5.982,0,1,1,5.982-5.981h0a5.98,5.98,0,0,1-5.981,5.981Zm0-10.343a4.354,4.354,0,1,0,3.077,1.277,4.354,4.354,0,0,0-3.077-1.277" transform="translate(-317.302 -12.299)" fill="#fff"/>
      <path id="Path_171719-2" data-name="Path 171719" d="M328.538,31.692a5.982,5.982,0,1,1,5.982-5.981h0a5.98,5.98,0,0,1-5.981,5.981Zm0-10.343a4.354,4.354,0,1,0,3.077,1.277,4.354,4.354,0,0,0-3.077-1.277" transform="translate(-300.066 -12.299)" fill="#fff"/>
    </g>
  </g>
</svg>
