<svg xmlns="http://www.w3.org/2000/svg" width="50.094" height="49.589" viewBox="0 0 50.094 49.589">
  <g id="Manager_Icon" data-name="Manager Icon" transform="translate(-0.141 -0.439)">
    <path id="Path_203271" data-name="Path 203271" d="M6.787,32.971a5.6,5.6,0,1,0-5.6-5.6,5.6,5.6,0,0,0,5.6,5.6Z" transform="translate(0 7.149)" fill="none" stroke="#fff" stroke-linecap="round" stroke-linejoin="round" stroke-width="1.5"/>
    <path id="Path_203272" data-name="Path 203272" d="M13.815,34.328A9.6,9.6,0,0,0,1.188,33.083" transform="translate(0 10.451)" fill="none" stroke="#fff" stroke-linecap="round" stroke-linejoin="round" stroke-width="1.5"/>
    <path id="Path_203273" data-name="Path 203273" d="M34.1,32.971a5.6,5.6,0,1,0-5.6-5.6A5.6,5.6,0,0,0,34.1,32.971Z" transform="translate(9.487 7.149)" fill="none" stroke="#fff" stroke-linecap="round" stroke-linejoin="round" stroke-width="1.5"/>
    <path id="Path_203274" data-name="Path 203274" d="M27.441,34.328a9.6,9.6,0,0,1,12.627-1.246" transform="translate(9.12 10.451)" fill="none" stroke="#fff" stroke-linecap="round" stroke-linejoin="round" stroke-width="1.5"/>
    <path id="Path_203275" data-name="Path 203275" d="M35.1,39.7a12.915,12.915,0,0,0-25.6,0" transform="translate(2.887 9.488)" fill="none" stroke="#fff" stroke-linecap="round" stroke-linejoin="round" stroke-width="1.5"/>
    <path id="Path_203276" data-name="Path 203276" d="M13.458,22.51a7.467,7.467,0,1,0,7.467-7.467,7.467,7.467,0,0,0-7.467,7.467" transform="translate(4.262 4.812)" fill="none" stroke="#fff" stroke-linecap="round" stroke-linejoin="round" stroke-width="1.5"/>
    <path id="Path_203277" data-name="Path 203277" d="M31.075,13.454a31.36,31.36,0,0,1-19.2,0V1.189l5.333,6.4,4.267-6.4,4.267,6.4,5.333-6.4Z" transform="translate(3.712)" fill="none" stroke="#fff" stroke-linecap="round" stroke-linejoin="round" stroke-width="1.5"/>
  </g>
</svg>
