<svg xmlns="http://www.w3.org/2000/svg" width="49.5" height="49.804" viewBox="0 0 49.5 49.804">
  <g id="Outsource_Icon" data-name="Outsource Icon" transform="translate(-0.438 -0.438)">
    <path id="Path_203249" data-name="Path 203249" d="M7.587,43.412,3.321,38.036a9.6,9.6,0,0,1-2.133-5.995V21.013a3.2,3.2,0,0,1,3.2-3.2h0a3.2,3.2,0,0,1,3.2,3.2V29.29" transform="translate(0 5.775)" fill="none" stroke="#fff" stroke-linecap="round" stroke-linejoin="round" stroke-width="1.5"/>
    <path id="Path_203250" data-name="Path 203250" d="M15.548,40.932v-6.4a9.451,9.451,0,0,0-1.621-5.312l-2.432-3.669a3.008,3.008,0,0,0-4.267-.939h0a2.987,2.987,0,0,0-1,3.819l2.923,4.8" transform="translate(1.64 7.957)" fill="none" stroke="#fff" stroke-linecap="round" stroke-linejoin="round" stroke-width="1.5"/>
    <path id="Path_203251" data-name="Path 203251" d="M32.063,43.412l4.267-5.376a9.6,9.6,0,0,0,2.133-5.995V21.013a3.2,3.2,0,0,0-3.2-3.2h0a3.2,3.2,0,0,0-3.2,3.2V29.29" transform="translate(10.725 5.775)" fill="none" stroke="#fff" stroke-linecap="round" stroke-linejoin="round" stroke-width="1.5"/>
    <path id="Path_203252" data-name="Path 203252" d="M24.938,40.932v-6.4a9.451,9.451,0,0,1,1.621-5.312l2.432-3.669a3.008,3.008,0,0,1,4.267-.939h0a2.987,2.987,0,0,1,1,3.819l-2.923,4.8" transform="translate(8.25 7.957)" fill="none" stroke="#fff" stroke-linecap="round" stroke-linejoin="round" stroke-width="1.5"/>
    <path id="Path_203253" data-name="Path 203253" d="M22.3,1.188,9.5,8.5l12.8,7.317L35.1,8.5Z" transform="translate(2.887)" fill="none" stroke="#fff" stroke-linecap="round" stroke-linejoin="round" stroke-width="1.5"/>
    <path id="Path_203254" data-name="Path 203254" d="M12.7,24.9l9.6,5.483V13.936L9.5,6.618V18.5" transform="translate(2.887 1.887)" fill="none" stroke="#fff" stroke-linecap="round" stroke-linejoin="round" stroke-width="1.5"/>
    <path id="Path_203255" data-name="Path 203255" d="M28.6,24.9,19,30.384V13.936L31.8,6.618V18.5" transform="translate(6.188 1.887)" fill="none" stroke="#fff" stroke-linecap="round" stroke-linejoin="round" stroke-width="1.5"/>
  </g>
</svg>
