<svg id="TCC" xmlns="http://www.w3.org/2000/svg" xmlns:xlink="http://www.w3.org/1999/xlink" width="166" height="64" viewBox="0 0 166 64">
  <defs>
    <linearGradient id="linear-gradient" x1="0.059" y1="0.161" x2="1.147" y2="0.895" gradientUnits="objectBoundingBox">
      <stop offset="0.168" stop-color="#00d6d6"/>
      <stop offset="0.582" stop-color="#048ce8"/>
      <stop offset="1" stop-color="#0745f9"/>
    </linearGradient>
    <linearGradient id="linear-gradient-2" x1="0.403" y1="0.016" x2="0.662" y2="0.993" gradientUnits="objectBoundingBox">
      <stop offset="0.028" stop-color="#00d6d6"/>
      <stop offset="0.337" stop-color="#048ce8"/>
      <stop offset="0.648" stop-color="#0745f9"/>
    </linearGradient>
  </defs>
  <g id="Group_193065" data-name="Group 193065" transform="translate(70.917 54.666)">
    <path id="Path_192822" data-name="Path 192822" d="M587.448,460.8a3.217,3.217,0,0,1,3.165,2.047h-1.067a2.151,2.151,0,0,0-2.1-1.271,2.689,2.689,0,0,0,0,5.366,2.155,2.155,0,0,0,2.1-1.262h1.067a3.214,3.214,0,0,1-3.165,2.028,3.454,3.454,0,1,1,0-6.907Z" transform="translate(-583.985 -460.472)" fill="#fff"/>
    <path id="Path_192823" data-name="Path 192823" d="M648.8,477.54a2.746,2.746,0,1,1,2.754-2.755,2.651,2.651,0,0,1-2.754,2.755Zm0-.776a1.812,1.812,0,0,0,1.841-1.979,1.795,1.795,0,0,0-1.813-1.97,1.985,1.985,0,0,0-.028,3.948Z" transform="translate(-638.013 -470.275)" fill="#fff"/>
    <path id="Path_192824" data-name="Path 192824" d="M708.519,474.372c0-1.087-.593-1.64-1.47-1.64-.9,0-1.518.572-1.518,1.717v2.93h-.881v-3.007c0-1.087-.593-1.64-1.47-1.64-.9,0-1.519.572-1.519,1.717v2.93h-.892v-5.321h.892v.766a1.948,1.948,0,0,1,1.695-.863,2.024,2.024,0,0,1,1.969,1.182,1.989,1.989,0,0,1,1.9-1.182,2.067,2.067,0,0,1,2.175,2.28v3.133h-.881v-3Z" transform="translate(-685.568 -470.197)" fill="#fff"/>
    <path id="Path_192825" data-name="Path 192825" d="M790.07,474.372c0-1.087-.593-1.64-1.47-1.64-.9,0-1.518.572-1.518,1.717v2.93H786.2v-3.007c0-1.087-.593-1.64-1.47-1.64-.9,0-1.518.572-1.518,1.717v2.93h-.892v-5.321h.892v.766a1.948,1.948,0,0,1,1.694-.863,2.024,2.024,0,0,1,1.969,1.182,1.989,1.989,0,0,1,1.9-1.182,2.067,2.067,0,0,1,2.175,2.28v3.133h-.881v-3Z" transform="translate(-756.536 -470.197)" fill="#fff"/>
    <path id="Path_192826" data-name="Path 192826" d="M863.84,472.05a2.232,2.232,0,0,1,2,1.057v-.97h.9v5.321h-.9v-.99a2.246,2.246,0,0,1-2.009,1.077,2.568,2.568,0,0,1-2.539-2.766,2.531,2.531,0,0,1,2.549-2.73Zm.177.766a1.818,1.818,0,1,0,1.828,1.768A1.808,1.808,0,0,0,864.016,472.817Z" transform="translate(-825.261 -470.276)" fill="#fff"/>
    <path id="Path_192827" data-name="Path 192827" d="M922.61,474.378a1.435,1.435,0,0,0-1.5-1.64c-.911,0-1.541.563-1.541,1.707v2.939h-.892v-5.321h.892v.757a1.991,1.991,0,0,1,1.724-.855,2.072,2.072,0,0,1,2.195,2.28v3.133h-.881Z" transform="translate(-875.202 -470.207)" fill="#fff"/>
    <path id="Path_192828" data-name="Path 192828" d="M970.788,460.015a2.348,2.348,0,0,1,1.99,1.038V458.24h.9v7.178h-.9v-1a2.208,2.208,0,0,1-2,1.087,2.569,2.569,0,0,1-2.547-2.764,2.53,2.53,0,0,1,2.555-2.727Zm.166.766a1.818,1.818,0,1,0,1.832,1.767,1.807,1.807,0,0,0-1.832-1.767Z" transform="translate(-918.324 -458.24)" fill="#fff"/>
    <path id="Path_192829" data-name="Path 192829" d="M1050.393,460.8a3.217,3.217,0,0,1,3.165,2.047h-1.067a2.151,2.151,0,0,0-2.1-1.271,2.689,2.689,0,0,0,0,5.366,2.155,2.155,0,0,0,2.1-1.262h1.067a3.213,3.213,0,0,1-3.165,2.028,3.454,3.454,0,1,1,0-6.907Z" transform="translate(-986.852 -460.472)" fill="#fff"/>
    <path id="Path_192830" data-name="Path 192830" d="M1111.7,477.54a2.571,2.571,0,0,1-2.655-2.755,2.541,2.541,0,0,1,2.655-2.736,2.45,2.45,0,0,1,2.577,2.541,4.448,4.448,0,0,1-.03.533h-4.291a1.682,1.682,0,0,0,1.744,1.668,1.475,1.475,0,0,0,1.509-.98h.961A2.413,2.413,0,0,1,1111.7,477.54Zm-1.734-3.132h3.391a1.569,1.569,0,0,0-1.694-1.61,1.658,1.658,0,0,0-1.694,1.61Z" transform="translate(-1040.861 -470.276)" fill="#fff"/>
    <path id="Path_192831" data-name="Path 192831" d="M1166.116,474.378a1.436,1.436,0,0,0-1.5-1.64c-.911,0-1.542.563-1.542,1.707v2.939h-.892v-5.321h.892v.757a1.991,1.991,0,0,1,1.724-.855,2.072,2.072,0,0,1,2.195,2.28v3.133h-.881Z" transform="translate(-1087.114 -470.207)" fill="#fff"/>
    <path id="Path_192832" data-name="Path 192832" d="M1211.149,464.376h-.7v-.727h.7V462.31h.891v1.338h1.4v.727h-1.4v3.133c0,.524.2.709.745.709h.657v.746h-.8c-.949,0-1.488-.388-1.488-1.456v-3.132Z" transform="translate(-1129.111 -461.787)" fill="#fff"/>
    <path id="Path_192833" data-name="Path 192833" d="M1245.647,477.54a2.571,2.571,0,0,1-2.655-2.755,2.541,2.541,0,0,1,2.655-2.736,2.45,2.45,0,0,1,2.578,2.541,4.422,4.422,0,0,1-.03.533H1243.9a1.682,1.682,0,0,0,1.744,1.668,1.475,1.475,0,0,0,1.509-.98h.96A2.414,2.414,0,0,1,1245.647,477.54Zm-1.734-3.132h3.39a1.569,1.569,0,0,0-1.694-1.61,1.658,1.658,0,0,0-1.693,1.61Z" transform="translate(-1157.429 -470.276)" fill="#fff"/>
    <path id="Path_192834" data-name="Path 192834" d="M1297.04,477.376h-.892v-5.321h.892v.863a1.811,1.811,0,0,1,1.734-.961v.913h-.237c-.853,0-1.5.377-1.5,1.61Z" transform="translate(-1203.691 -470.199)" fill="#fff"/>
  </g>
  <path id="Path_192835" data-name="Path 192835" d="M358.01,230.44h19.65l-1.9,4.9h-5.642v18.542h-6.212V235.336h-5.9Z" transform="translate(-314.51 -202.729)" fill="#fff"/>
  <path id="Path_192836" data-name="Path 192836" d="M500.2,248.965h-7.923l-1.2,3.609h-6.53l8.146-22.125h7.163l8.114,22.125H501.4ZM496.231,237.1l-2.377,7.156h4.787Z" transform="translate(-425.661 -202.735)" fill="#fff"/>
  <path id="Path_192837" data-name="Path 192837" d="M713.2,230.44v17.418h6.941v4.708H706.99V230.44Z" transform="translate(-621.074 -202.729)" fill="#fff"/>
  <path id="Path_192838" data-name="Path 192838" d="M862.364,235.367h-8.083v3.609h7.131v4.676h-7.131v3.986h8.083v4.927H848.07V230.44h14.3Z" transform="translate(-745.005 -202.729)" fill="#fff"/>
  <path id="Path_192839" data-name="Path 192839" d="M1024.722,230.44v22.125h-6.212l-8.273-12.364v12.364h-6.212V230.44h6.212l8.273,12.523V230.44Z" transform="translate(-882.011 -202.729)" fill="#fff"/>
  <path id="Path_192840" data-name="Path 192840" d="M1217.24,230.44h18.066v4.9h-5.959v17.228h-6.212V235.336h-5.9v-4.9Z" transform="translate(-1069.306 -202.729)" fill="#fff"/>
  <path id="Path_192841" data-name="Path 192841" d="M29.367,52.237a25.633,25.633,0,0,1-8.8-12.875c-.957-3.22-.957-11.929-.957-14.011V.17H12.838L12.9,25.731H.11v7.006H12.9a36.91,36.91,0,0,0,4.7,16.946C21.044,55.358,24.49,58.2,31.374,61.8a37.2,37.2,0,0,0,13.673,2.365V57.631S35.964,57.822,29.367,52.237Z" transform="translate(-0.11 -0.17)" fill="url(#linear-gradient)"/>
  <g id="Group_193066" data-name="Group 193066" transform="translate(12.803 0.936)">
    <path id="Path_192842" data-name="Path 192842" d="M162.667,20.648l-4.609,3.622A25.335,25.335,0,0,0,148.9,16.56,26.179,26.179,0,0,0,137.168,14c-4.663,0-16.254,2.651-21.608,12.875A24.582,24.582,0,0,0,112.5,39.561a23.671,23.671,0,0,0,7.266,17.8,23.808,23.808,0,0,0,17.975,7.195,25.441,25.441,0,0,0,12.221-3.01c.23-.118.459-.249.687-.378.047.054,7.669.054,7.669.054s-1.988,4.921-8.893,7.56a33.94,33.94,0,0,1-12.258,2.206c-10.227,0-18.308-3.579-24.215-10.55a32.009,32.009,0,0,1-7.431-21.319,29.988,29.988,0,0,1,9-22.11,30.644,30.644,0,0,1,22.553-8.972,32.469,32.469,0,0,1,14.784,3.311A28.889,28.889,0,0,1,162.667,20.648Z" transform="translate(-105.511 -8.022)" fill="url(#linear-gradient-2)"/>
  </g>
  <path id="Path_192843" data-name="Path 192843" d="M249.077,123.865a37.308,37.308,0,0,0-2.549-3.834c-1.144-1.344-5.8-7.437-17.126-6.5-11.857,1.515-17.786,12.686-16.254,21.964.174,2.838,2.677,8.33,7.458,11.929a17.014,17.014,0,0,0,11.383,3.527v-6.825a12.166,12.166,0,0,1-8.126-2.762c-4.207-3.22-4.4-8.709-4.207-11.171a12.189,12.189,0,0,1,7.266-9.466c8.114-2.63,12.587,1.166,14.206,3.036.075.085.2.244.2.244Z" transform="translate(-187.047 -99.799)" fill="#0745f9"/>
</svg>
