<svg xmlns="http://www.w3.org/2000/svg" width="50.029" height="49.765" viewBox="0 0 50.029 49.765">
  <g id="Team_Icon" data-name="Team Icon" transform="translate(-0.171 -0.438)">
    <path id="Path_203258" data-name="Path 203258" d="M2.967,29.35a5.6,5.6,0,1,0,5.6-5.6,5.6,5.6,0,0,0-5.6,5.6Z" transform="translate(0.619 7.838)" fill="none" stroke="#fff" stroke-linecap="round" stroke-linejoin="round" stroke-width="1.5"/>
    <path id="Path_203259" data-name="Path 203259" d="M17.186,38.05a9.067,9.067,0,0,0-16,0" transform="translate(0 11.137)" fill="none" stroke="#fff" stroke-linecap="round" stroke-linejoin="round" stroke-width="1.5"/>
    <path id="Path_203260" data-name="Path 203260" d="M26.717,29.35a5.6,5.6,0,1,0,5.6-5.6,5.6,5.6,0,0,0-5.6,5.6Z" transform="translate(8.869 7.838)" fill="none" stroke="#fff" stroke-linecap="round" stroke-linejoin="round" stroke-width="1.5"/>
    <path id="Path_203261" data-name="Path 203261" d="M40.936,38.05a9.067,9.067,0,0,0-16,0" transform="translate(8.25 11.137)" fill="none" stroke="#fff" stroke-linecap="round" stroke-linejoin="round" stroke-width="1.5"/>
    <path id="Path_203262" data-name="Path 203262" d="M14.842,6.787a5.6,5.6,0,1,0,5.6-5.6,5.6,5.6,0,0,0-5.6,5.6Z" transform="translate(4.744)" fill="none" stroke="#fff" stroke-linecap="round" stroke-linejoin="round" stroke-width="1.5"/>
    <path id="Path_203263" data-name="Path 203263" d="M27.718,13.888a9.107,9.107,0,0,0-13.867,0" transform="translate(4.399 3.299)" fill="none" stroke="#fff" stroke-linecap="round" stroke-linejoin="round" stroke-width="1.5"/>
    <path id="Path_203264" data-name="Path 203264" d="M14.329,31.213a17.658,17.658,0,0,0,12.681-.038" transform="translate(4.566 10.416)" fill="none" stroke="#fff" stroke-linecap="round" stroke-linejoin="round" stroke-width="1.5"/>
    <path id="Path_203265" data-name="Path 203265" d="M11.481,9.5A17.53,17.53,0,0,0,5.934,22.3c0,.54.032,1.067.081,1.6" transform="translate(1.649 2.887)" fill="none" stroke="#fff" stroke-linecap="round" stroke-linejoin="round" stroke-width="1.5"/>
    <path id="Path_203266" data-name="Path 203266" d="M33.41,23.9c.047-.529.081-1.067.081-1.6A17.523,17.523,0,0,0,27.944,9.5" transform="translate(9.295 2.887)" fill="none" stroke="#fff" stroke-linecap="round" stroke-linejoin="round" stroke-width="1.5"/>
  </g>
</svg>
