<svg xmlns="http://www.w3.org/2000/svg" width="190" height="64" viewBox="0 0 190 64">
  <g id="Raaghu-mascot-white" transform="translate(-422.471 -319.146)">
    <g id="Group_172300" data-name="Group 172300" transform="translate(415.47 313.449)">
      <rect id="Rectangle_147918" data-name="Rectangle 147918" width="190" height="64" transform="translate(7 5.697)" fill="none"/>
      <g id="Layer0_0_FILL" data-name="Layer0 0 FILL" transform="translate(16.571 17.091)">
        <path id="Path_129585" data-name="Path 129585" d="M330.92,81.979l-.017-.065q-.067-.02-2.119.606t-2.278.737q-.017.176,0,1.769,0,.109-.015.378l-10.737,0a1.9,1.9,0,0,0-.585.078,1.138,1.138,0,0,0-.489.324.958.958,0,0,0,.046,1.4,2.746,2.746,0,0,0,1.382.685q.65.141,1.871.3.7.089,2.111.226.2.017.491.035.278.015.846.013v.015h.217l.017-.013-.007,0h.015l.041.009v0h.359l-.309.028-1.974.059q.117.156.317.439.174.233.3.385a.33.33,0,0,0,.13.089.384.384,0,0,0,.156.037q1.115.013,2.347-.007a.3.3,0,0,0,.143-.046q.094-.059.143-.085a.419.419,0,0,1,.248-.052.249.249,0,0,1,.178.12.266.266,0,0,1-.041.376.315.315,0,0,1-.189.089.2.2,0,0,1-.18-.076.385.385,0,0,0-.237-.141,1.947,1.947,0,0,0-.267-.011l-1.043,0q-.615,0-1.043.011a.648.648,0,0,1-.324-.063.674.674,0,0,1-.239-.215,8.723,8.723,0,0,0-.587-.726.548.548,0,0,0-.141-.109.481.481,0,0,0-.17-.063q-.535-.067-2.139-.237h-.187a1.419,1.419,0,0,0,.606,1.1,6.055,6.055,0,0,0,1.172.637,9.592,9.592,0,0,0,1.619.478q.687.143,1.676.256l.924.089q.565.054,1.571.063-.646.052-1.006.074t-.726.024a8.378,8.378,0,0,1-.861-.041q-.494-.043-1-.135-.2-.033-.5-.107-.176-.039-.563-.135.017.026.117.2.059.091.1.143a3.5,3.5,0,0,0,1.269.885,10.612,10.612,0,0,0,4.586.969h.341q0,.167.022.489a3.707,3.707,0,0,1-.011.478.934.934,0,0,0,.109.6,1.172,1.172,0,0,0,.183.235.553.553,0,0,1,.024.156q.015.3.02.767l.011.765a3.241,3.241,0,0,0,.606,1.893,3.2,3.2,0,0,0,1.6,1.159,9.343,9.343,0,0,0,.926.283q.289.067,2.693.591a.975.975,0,0,0,.356.467,1.247,1.247,0,0,0,.583.206q.309.037.8.059l.8.033a.875.875,0,0,0,.648-.217,1,1,0,0,0,.35-.646.878.878,0,0,0-.146-.661.93.93,0,0,0-.617-.359q-.391-.074-.919-.128-.085-.011-.926-.089a.767.767,0,0,0-.35.046.707.707,0,0,0-.3.191.366.366,0,0,1-.2.124.662.662,0,0,1-.23-.007l-.609-.1a6.1,6.1,0,0,1-.6-.117q-.8-.2-1.078-.276-.606-.159-1.069-.322a2.194,2.194,0,0,1-.976-.648,2.1,2.1,0,0,1-.469-1.091,4.9,4.9,0,0,1-.041-.593q0-.4-.007-.6a.447.447,0,0,1,.013-.128q.013-.057.022-.1a20.014,20.014,0,0,0,6.751,2.954q.2.043.474.089l.478.072q.009,0,.2,0a4.18,4.18,0,0,1-1.143-1.889q-.167-.026-.228-.039a15.552,15.552,0,0,1-2.369-.826q-1-.441-2.239-1.128-.248-.137-.254-.293a.553.553,0,0,1,.217-.383q1.326-1.278,1.987-1.921l1.1-1.061a.927.927,0,0,0,.243-.3.86.86,0,0,0-.107-.363l-2.754-6.208a3.291,3.291,0,0,1-.159-.456.875.875,0,0,1,0-.465.814.814,0,0,1,.25-.38,3.493,3.493,0,0,1,.339-.259q.237-.159.35-.239a1.458,1.458,0,0,1,.143-.08l.143-.067M324.6,86.485a.614.614,0,0,1,.356.091q.3.248.724.615.237.2.715.624a.3.3,0,0,1,.1.143.242.242,0,0,1-.039.191l-.039-.028q-.217-.167-.256-.2l-.552-.472q-.326-.278-.543-.48a.784.784,0,0,0-.6-.224l-5.214.015-.111,0h0l-.143,0-.037,0-.265,0a.061.061,0,0,1,0,.013.5.5,0,0,1-.117.178.514.514,0,0,1-.556.115.508.508,0,0,1-.165-.115.485.485,0,0,1-.15-.359.5.5,0,0,1,.15-.365.5.5,0,0,1,.35-.146h.009a.507.507,0,0,1,.363.146.473.473,0,0,1,.133.246h5.832l.061,0m-2.9,1.967,0,.007c-.012,0-.016-.007-.013-.007h.011M347.95,99.561l-.017-.093a.622.622,0,0,0-.13.041q-.53.333-1.267.706-.07.03-1.306.633a8.108,8.108,0,0,0-2.48,1.817l-.352.378q-.1-.072-.1-.078a9,9,0,0,0-3.121-2.3q-.417-.193-1-.5-.656-.354-.985-.528l-.393-.211q.039.283.048.3.148.443.424,1.33.252.8.459,1.322a9.868,9.868,0,0,0,1.9,3.141,5.43,5.43,0,0,0,2.05,1.45,1.859,1.859,0,0,0,1.308.028,4.672,4.672,0,0,0,1.276-.678,7.029,7.029,0,0,0,1.554-1.65,12.787,12.787,0,0,0,1.291-2.413,20.054,20.054,0,0,0,.839-2.608.261.261,0,0,0,0-.083m.193-16.871a1.643,1.643,0,0,0-1.043.022,1.541,1.541,0,0,0-1,1.589q-.011.283-.07,1.639h.015v.824A3.1,3.1,0,0,0,346.274,88a1.352,1.352,0,0,0,.793.746,1.813,1.813,0,0,0,1.463-.087,1.568,1.568,0,0,0,.95-1.269,15.65,15.65,0,0,0,.111-2.68,2.235,2.235,0,0,0-.53-1.441,1.874,1.874,0,0,0-.917-.58m-.919,1.167a.459.459,0,0,1,.328-.148.471.471,0,0,1,.339.122.467.467,0,0,1,.013.661.453.453,0,0,1-.328.148.479.479,0,0,1-.346-.124.424.424,0,0,1-.139-.322.475.475,0,0,1,.133-.337M334.346,95.587a5.688,5.688,0,0,0,.256,1.065,3.82,3.82,0,0,0,.509.976,5.864,5.864,0,0,0,1.926,1.619q.882.48,2.667,1.406a13.557,13.557,0,0,1,1.415.822,5.266,5.266,0,0,1,1.2,1.111.071.071,0,0,0,.035.022l.072.026a5.725,5.725,0,0,1,1.919-1.585q.341-.183,1.1-.578.722-.37,1.1-.58.641-.343.93-.511.517-.289.909-.548a4.7,4.7,0,0,0,2.082-4.649,5.287,5.287,0,0,0-1.365-3.134,8.622,8.622,0,0,0-5.808-3.017,8.746,8.746,0,0,0-3.647.361,9.125,9.125,0,0,0-3.171,1.826,5.676,5.676,0,0,0-2.134,5.369M338.612,83.2a1.438,1.438,0,0,0-.83-.524,1.726,1.726,0,0,0-1.437.256,1.665,1.665,0,0,0-.8,1.239,11.534,11.534,0,0,0-.087,1.241q0,.419.009,1.25a3.147,3.147,0,0,0,.08.587q.041.2.141.58a1.169,1.169,0,0,0,.635.743,2.858,2.858,0,0,0,.513.213,1.659,1.659,0,0,0,1.017,0,1.444,1.444,0,0,0,.778-.559,1.785,1.785,0,0,0,.3-.948q.009-.309.009-.767,0-.506,0-.763,0-.511.009-.767,0-.454-.013-.765a1.786,1.786,0,0,0-.328-1.015m-1.48,1.3a.469.469,0,0,1-.148-.346.46.46,0,0,1,.154-.335.536.536,0,0,1,.359-.139.439.439,0,0,1,.32.154.455.455,0,0,1,0,.663.488.488,0,0,1-.337.139.46.46,0,0,1-.348-.137m-7.1-13.389a6.338,6.338,0,0,0-.9,1.089,3.2,3.2,0,0,0-.539,1,1.356,1.356,0,0,0,1.4-.635,1.277,1.277,0,0,0,.037-1.458m3.658,3.33q-.68.161-1.139.283a17.289,17.289,0,0,0-1.939.654,11.051,11.051,0,0,0-1.815.935,4.708,4.708,0,0,0-1.6,1.635,5.693,5.693,0,0,0-.633,1.832,10.332,10.332,0,0,0-.12,1.976q1.728-.543,3.071-.887,1.632-.419,3.082-.641,1.908-.293,3.115-.43,1.711-.2,3.132-.239.513-.58,1.315-1.689a7.984,7.984,0,0,0,.863-1.322l-.4-.059q-1.489-.246-2.713-.348a20.837,20.837,0,0,0-2.73-.061.4.4,0,0,1-.124-.013q-.113-.028-.124-.028-.028-.285-.024-.93a8.349,8.349,0,0,0-.041-.943q-.791.187-1.178.276m-3.034,2.947a1.453,1.453,0,0,1,.824-.55,9.4,9.4,0,0,1,2.441-.333q.093.011.328.026t.4.046a1.143,1.143,0,0,1,.937.7,1.176,1.176,0,0,1-.113,1.178.953.953,0,0,1-.75.417q-.839.08-1.739.176l-1.222.13a1.28,1.28,0,0,1-.85-.2,1.146,1.146,0,0,1-.476-.691,1.07,1.07,0,0,1,.222-.9m4.11.28a.613.613,0,0,0-.587-.637.647.647,0,0,0-.467.163.593.593,0,0,0-.2.441.609.609,0,0,0,.167.439.594.594,0,0,0,.424.2.6.6,0,0,0,.461-.165.6.6,0,0,0,.2-.443m-3.421.209v0a.617.617,0,0,0,.163.459.585.585,0,0,0,.446.191.618.618,0,0,0,.459-.172.64.64,0,0,0,.024-.9.6.6,0,0,0-.443-.2.645.645,0,0,0-.459.172.608.608,0,0,0-.189.446m-.43-7.727a.31.31,0,0,0-.07.078l-.061.089a2.653,2.653,0,0,1,.52,1.372,2.386,2.386,0,0,1-.365,1.38,2.442,2.442,0,0,1-1.239,1.1,2.6,2.6,0,0,1-1.656.013,7.822,7.822,0,0,0-.593,1.645,4.96,4.96,0,0,0-.22,1.5.78.78,0,0,0,.107-.115,5.436,5.436,0,0,1,1.506-1.376,12.291,12.291,0,0,1,2.76-1.278,23.754,23.754,0,0,1,3.736-.9,33.762,33.762,0,0,1,3.83-.367l.726-.043q-.109-.143-.109-.148-.165-.233-.222-.3a11.368,11.368,0,0,0-6.649-4.03.474.474,0,0,0-.413.089q-.526.433-1.589,1.291m-.272.313-.45.409a1.738,1.738,0,0,1,.265.963,1.615,1.615,0,0,1-.278.882,1.632,1.632,0,0,1-.73.6,1.922,1.922,0,0,1-1.069.12l-.263.546a1.879,1.879,0,0,0,1.391.072,2.256,2.256,0,0,0,1.185-.876,2.344,2.344,0,0,0,.443-1.426,1.837,1.837,0,0,0-.493-1.287m11.216-1.017q-.026-3.363-.078-3.539a13.357,13.357,0,0,0-4.291.626,9.717,9.717,0,0,0-3.615,1.543,11.758,11.758,0,0,1,4.049,1.9,12.867,12.867,0,0,1,3.093,3.249h.809q.052-.4.033-3.775m7.51-2.228a20.956,20.956,0,0,0-2.363-.772,19.067,19.067,0,0,0-2.363-.487A4.7,4.7,0,0,0,343,65.946v7.295q.55,0,.615,0a.284.284,0,0,0,.174-.043.421.421,0,0,0,.117-.137,7.723,7.723,0,0,1,1.669-2,13.8,13.8,0,0,1,5.447-2.973,6.723,6.723,0,0,0-1.654-.874m16.252,21.288a.462.462,0,0,0-.167.063.536.536,0,0,0-.143.109,8.733,8.733,0,0,0-.587.726.675.675,0,0,1-.239.215.642.642,0,0,1-.324.063q-.428-.013-1.041-.013l-1.046,0a1.947,1.947,0,0,0-.267.011.385.385,0,0,0-.237.141.2.2,0,0,1-.18.076.315.315,0,0,1-.189-.089.266.266,0,0,1-.041-.376.249.249,0,0,1,.178-.12.427.427,0,0,1,.248.05q.05.028.143.087a.309.309,0,0,0,.143.043q1.232.022,2.35.009a.38.38,0,0,0,.154-.037.363.363,0,0,0,.13-.089q.126-.152.3-.385.2-.283.319-.441l-1.976-.057-.306-.028h.356v0l.041-.009q.754.007,1.089-.011.3-.017.493-.035,1.406-.137,2.111-.226,1.215-.154,1.867-.3a2.769,2.769,0,0,0,1.382-.685,1.011,1.011,0,0,0,.326-.689,1.029,1.029,0,0,0-.28-.715,1.121,1.121,0,0,0-.489-.322,1.9,1.9,0,0,0-.585-.078l-10.735,0q-.015-.269-.015-.38.015-1.591,0-1.769-.222-.109-2.278-.737t-2.119-.6l-.017.065.143.065q.087.046.143.08.113.083.35.241a3.285,3.285,0,0,1,.339.257.828.828,0,0,1,.25.38.883.883,0,0,1,0,.467,3.724,3.724,0,0,1-.159.456L352.3,90.136a.861.861,0,0,0-.106.363.927.927,0,0,0,.243.3l1.1,1.061q.661.643,1.987,1.921a.553.553,0,0,1,.217.383q-.007.156-.254.293-1.237.687-2.239,1.128a15.242,15.242,0,0,1-2.369.826q-.061.015-.228.039a4.194,4.194,0,0,1-1.143,1.891h.2l.476-.074q.28-.043.476-.089a20.254,20.254,0,0,0,7.421-3.421,1.44,1.44,0,0,0,.419-.43.934.934,0,0,0,.109-.6,3.73,3.73,0,0,1-.011-.478q.017-.322.022-.489h.341a10.612,10.612,0,0,0,4.586-.969,3.5,3.5,0,0,0,1.269-.885q.041-.052.1-.143.1-.17.115-.2l-.563.135q-.3.074-.5.107-.506.089-1,.135a8.433,8.433,0,0,1-.863.041q-.367,0-.726-.024t-1.006-.076q1.009-.007,1.571-.061l.924-.089q.989-.113,1.676-.256a9.586,9.586,0,0,0,1.619-.478,6.214,6.214,0,0,0,1.172-.637,1.421,1.421,0,0,0,.6-1.1h-.189q-1.6.17-2.134.237m1.074-2.415a.5.5,0,0,1,.361.146.5.5,0,0,1,.148.365.509.509,0,0,1-.869.359.466.466,0,0,1-.122-.193h-.265l-.037,0-.141,0h0q-3.552-.009-5.327-.02a.918.918,0,0,0-.326.05.847.847,0,0,0-.276.174q-.217.2-.543.483l-.552.472q-.044.037-.3.228a.244.244,0,0,1-.039-.191.3.3,0,0,1,.1-.143q.478-.419.715-.624.424-.367.724-.615a.68.68,0,0,1,.417-.093H366.2a.487.487,0,0,1,.135-.246.5.5,0,0,1,.361-.146m-3.482,2.361s0,0-.013.007l0-.007h.011m-3.149-10.829q-.03-.339-.139-1.417a1.333,1.333,0,0,0-.467.619,1.953,1.953,0,0,0-.111.8,2.076,2.076,0,0,0,.2.8,1.3,1.3,0,0,0,.5.576,6.852,6.852,0,0,0,.011-1.376m-1.535-1.756a.24.24,0,0,1,.178-.072.236.236,0,0,1,.176.074v0a.244.244,0,0,1,.076.178.241.241,0,0,1-.076.174.223.223,0,0,1-.072.052v.009l.02,2.091,1.078,1.967.022-.085.143-1.059a2.059,2.059,0,0,1-.85-1.645,1.65,1.65,0,0,1,.654-1.515l-.1-.5-.352.333a1.871,1.871,0,0,0-.424-.343,1.7,1.7,0,0,0-.472-.161,1.592,1.592,0,0,0-.885.2l-.487-1.237a.258.258,0,0,1-.228-.009.424.424,0,0,1-.133-.187,12.969,12.969,0,0,0-4.267-5.141.868.868,0,0,0-.311-.152.64.64,0,0,0-.341.015q-.113.028-.452.107-.287.065-.45.117a13.682,13.682,0,0,0-4.058,2.239,9.927,9.927,0,0,0-1.643,1.567q-.054.067-.252.361l.483.041q.293.02.987.046a28.758,28.758,0,0,1,5.256.791,15.9,15.9,0,0,1,3.88,1.491,5.481,5.481,0,0,1,2.569,3.078s.036.168.1.491q-.161-.372-.265-.585a5.64,5.64,0,0,0-2.4-2.537,15.337,15.337,0,0,0-2.878-1.2,28.41,28.41,0,0,0-7.777-1.178q-2.843-.054-4.019-.041a37.352,37.352,0,0,0-4.017.248l-1.782.241v1.719a21.744,21.744,0,0,1,2.906.078q1.208.1,2.854.367a.48.48,0,0,1,.959.033.458.458,0,0,1-.141.339.465.465,0,0,1-.341.141.489.489,0,0,1-.167-.028q-.2.25-.867,1.135-.937,1.252-1.208,1.621a.588.588,0,0,1-.191.185.56.56,0,0,1-.263.076q-2.106.128-2.967.233-2.193.263-4.091.589-.982.167-2.143.472-.837.215-2.113.6-.111.033-.917.306l.05.748a30.612,30.612,0,0,1,7.136-1.776,65.665,65.665,0,0,1,8.973-.628,48.67,48.67,0,0,1,8.253.576,50.218,50.218,0,0,1,5.793,1.276.064.064,0,0,1,0-.015.044.044,0,0,0,0-.033q-1.065-1.9-1.467-2.6a.539.539,0,0,0-.309-.248q-.211-.085-.524-.193l-.528-.18a22.572,22.572,0,0,0-6.162-1.159l-1.009-.05V75.478l-.176-.1a.541.541,0,0,1-.217-.289.374.374,0,0,1,.076-.315.416.416,0,0,1,.565-.1.349.349,0,0,1,.163.272.565.565,0,0,1-.1.354l-.072.106a.225.225,0,0,0-.043.115q0,.428,0,1.952.269.044.359.048.465.041,1.389.115.824.072,1.389.143a22.463,22.463,0,0,1,4.886,1.263,1.1,1.1,0,0,1,.6.522q.157.285.676,1.2.424.75.674,1.209a1.651,1.651,0,0,0,.278.383q.783.309,1.476.656.011-.165.02-.25a2.482,2.482,0,0,1,.039-.315q.046-.269.143-.315a1.567,1.567,0,0,0,.63-.548,3.413,3.413,0,0,0,.354-.75.545.545,0,0,0,0-.4s0-.005,0-.007l-1.128-1.989a.087.087,0,0,1-.013-.046l-.02-2.115a.268.268,0,0,1-.1-.063.23.23,0,0,1-.07-.174.237.237,0,0,1,.07-.176v0m-.446-8.729a.4.4,0,0,0-.291-.124.387.387,0,0,0-.259.126.523.523,0,0,0-.161.289,3.086,3.086,0,0,0-.02.409q0,1.009-.011,3.026-.007,1.778-.035,3.028a2.329,2.329,0,0,0,.133.767q.083.241.267.73a1.4,1.4,0,0,1,.9-.111,1.734,1.734,0,0,1,.763.433q.287-.241.311-.354t-.185-.376a3.115,3.115,0,0,0-.635-.559,1.087,1.087,0,0,0-.246-.13q-.189-.07-.289-.115-.013-.187-.013-.241l-.048-6.162V67.6q0-.1-.013-.167A.511.511,0,0,0,358.085,67.14Z" transform="translate(-314.394 -65.883)" fill="#fff"/>
      </g>
    </g>
    <g id="raadhuds" transform="translate(494.486 331.277)">
      <text id="_Copyright_Trialog" data-name="© Copyright Trialog" transform="translate(-0.016 25.868)" fill="#fff" font-size="25" font-family="Poppins-Medium, Poppins" font-weight="500"><tspan x="0" y="0">RAAGHU</tspan></text>
      <text id="_Copyright_Trialog-2" data-name="© Copyright Trialog" transform="translate(1.984 36.868)" fill="#fff" font-size="8" font-family="Poppins-Regular, Poppins" letter-spacing="0.435em"><tspan x="0" y="0">DESIGN SYSTEM</tspan></text>
    </g>
  </g>
</svg>
