<svg xmlns="http://www.w3.org/2000/svg" width="26.225" height="26.527" viewBox="0 0 26.225 26.527">
  <g id="dark-mode-icon" transform="translate(-1.078 -1.076)">
    <path id="Path_129696" data-name="Path 129696" d="M14.838,8.188a6.65,6.65,0,1,1-6.65,6.65A6.658,6.658,0,0,1,14.838,8.188Zm0,11.3a4.65,4.65,0,1,0-4.65-4.65A4.656,4.656,0,0,0,14.838,19.488Z" transform="translate(-0.674 -0.674)" fill="#dfdfdf"/>
    <path id="Path_129697" data-name="Path 129697" d="M21,5.313a1,1,0,0,1-1-1v-3a1,1,0,0,1,2,0v3A1,1,0,0,1,21,5.313Z" transform="translate(-6.836 0.764)" fill="#dfdfdf"/>
    <path id="Path_129699" data-name="Path 129699" d="M41.062,22h-3a1,1,0,0,1,0-2h3a1,1,0,0,1,0,2Z" transform="translate(-14.76 -6.836)" fill="#dfdfdf"/>
    <path id="Path_129705" data-name="Path 129705" d="M35.186,36.186a1,1,0,0,1-.707-.293l-2.122-2.122a1,1,0,0,1,1.414-1.414l2.122,2.122a1,1,0,0,1-.707,1.707Z" transform="translate(-12.309 -12.378)" fill="#dfdfdf"/>
    <path id="Path_129707" data-name="Path 129707" d="M35.186,36.186a1,1,0,0,1-.707-.293l-2.122-2.122a1,1,0,0,1,1.414-1.414l2.122,2.122a1,1,0,0,1-.707,1.707Z" transform="translate(-27.766 -27.677)" fill="#dfdfdf"/>
    <path id="Path_129708" data-name="Path 129708" d="M35.186,36.186a1,1,0,0,1-.707-.293l-2.122-2.122a1,1,0,0,1,1.414-1.414l2.122,2.122a1,1,0,0,1-.707,1.707Z" transform="translate(-12.311 40.574) rotate(-90)" fill="#dfdfdf"/>
    <path id="Path_129709" data-name="Path 129709" d="M35.186,36.186a1,1,0,0,1-.707-.293l-2.122-2.122a1,1,0,0,1,1.414-1.414l2.122,2.122a1,1,0,0,1-.707,1.707Z" transform="translate(-27.613 55.871) rotate(-90)" fill="#dfdfdf"/>
    <path id="Path_129701" data-name="Path 129701" d="M21,42.062a1,1,0,0,1-1-1v-3a1,1,0,0,1,2,0v3A1,1,0,0,1,21,42.062Z" transform="translate(-6.836 -14.459)" fill="#dfdfdf"/>
    <path id="Path_129703" data-name="Path 129703" d="M4.313,22h-3a1,1,0,0,1,0-2h3a1,1,0,0,1,0,2Z" transform="translate(0.766 -6.836)" fill="#dfdfdf"/>
  </g>
</svg>
