<?xml version="1.0" encoding="UTF-8"?><svg id="a" xmlns="http://www.w3.org/2000/svg" viewBox="0 0 3000 2843"><defs><style>.b{fill:#0083b2;}.c{fill:#fff;}.c,.d{stroke-width:3px;}.c,.d,.e{stroke:#110a11;stroke-miterlimit:10;}.f{fill:#8bc5eb;}.d,.e{fill:none;}.g{fill:#110a11;}.e{stroke-width:9px;}.h{fill:#231f20;}.i{fill:#e5f0f9;}</style></defs><rect class="i" width="3000" height="2843"/><g><path class="h" d="M231.76,1789.47h70.11c14.02,0,25.56,3.83,34.62,11.5,9.05,7.67,13.58,22.9,13.58,45.68s-4.46,38.42-13.37,46.45c-8.91,8.03-19.94,12.05-33.08,12.05-6.28,0-13.29-.62-21.03-1.86-7.74-1.24-12.05-1.93-12.93-2.08v50.83h-37.9v-162.57Zm65.95,81.72c4.96,0,8.62-1.93,10.96-5.81,2.33-3.87,3.51-10.04,3.51-18.51,0-15.63-4.75-23.44-14.24-23.44h-28.26v47.76h28.04Z"/><path class="h" d="M371.32,1945.24c-5.55-5.4-8.33-12.63-8.33-21.69v-11.39c0-9.35,3.29-16.83,9.86-22.46,6.57-5.62,16.43-8.43,29.58-8.43h26.73v-5.7c0-3.51-.59-6.21-1.75-8.11-1.17-1.9-3.47-3.29-6.9-4.16-3.43-.88-8.58-1.31-15.45-1.31h-34.62v-21.69c14.02-4.96,30.31-7.52,48.86-7.67,15.92,0,27.86,2.96,35.82,8.87,7.96,5.92,11.94,16.4,11.94,31.44v79.09h-30.02l-5.92-12.05c-3.36,3.21-8.43,6.24-15.23,9.09-6.79,2.85-14.35,4.27-22.68,4.27-9.06,0-16.36-2.7-21.91-8.11Zm50.61-19.39c3.65-1.1,6.06-2.01,7.23-2.74v-24.1l-14.02,1.31c-9.64,1.02-14.46,5.11-14.46,12.27v4.6c0,6.72,4.02,10.08,12.05,10.08,2.48,.15,5.55-.33,9.2-1.42Z"/><path class="h" d="M601.8,1854.76l-15.12,3.72c2.04,2.48,3.65,5.48,4.82,8.98,1.17,3.51,1.75,8.03,1.75,13.58,0,11.25-3.47,20.05-10.41,26.4-6.94,6.35-17.78,9.53-32.54,9.53h-21.69c-3.21,0-5.81,.55-7.78,1.64s-2.96,2.74-2.96,4.93c0,3.8,3.14,5.7,9.42,5.7h30.45c14.02,0,24.72,2.81,32.1,8.43,7.37,5.62,11.06,14.93,11.06,27.93v2.63c0,12.27-3.76,21.72-11.28,28.37-7.52,6.64-18.88,9.97-34.07,9.97h-36.15c-11.25,0-20.49-2.49-27.71-7.45-7.23-4.97-10.85-11.83-10.85-20.59v-2.85c0-5.55,1.57-10.52,4.71-14.9,3.14-4.38,7.34-7.82,12.6-10.3-8.03-4.96-12.05-11.76-12.05-20.38,0-5.99,1.72-11.06,5.15-15.23,3.43-4.16,8.14-6.97,14.13-8.43-11.98-7.01-17.97-18.19-17.97-33.52,0-13.15,4.02-22.9,12.05-29.25,8.03-6.35,20.74-9.53,38.12-9.53h64.19v20.59Zm-71.64,102.54c-4.24,0-7.56,.95-9.97,2.85-2.41,1.9-3.62,4.53-3.62,7.89v1.75c0,3.21,1.13,5.77,3.4,7.67,2.26,1.9,5.66,2.85,10.19,2.85h20.81c4.38,0,7.85-.84,10.41-2.52,2.55-1.68,3.83-4.2,3.83-7.56v-2.85c0-3.21-1.21-5.7-3.62-7.45-2.41-1.75-5.81-2.63-10.19-2.63h-21.25Zm26.18-71.75c1.97-2.12,2.96-5.44,2.96-9.97,0-4.82-1.02-8.25-3.07-10.3-2.05-2.04-5.33-3.07-9.86-3.07h-12.05c-4.68,0-8,1.02-9.97,3.07-1.97,2.05-2.96,5.41-2.96,10.08s.99,8.07,2.96,10.19c1.97,2.12,5.15,3.18,9.53,3.18h12.27c4.82,0,8.22-1.06,10.19-3.18Z"/><path class="h" d="M635.33,1947.87c-7.74-3.51-13.4-9.53-16.98-18.08-3.58-8.54-5.37-20.7-5.37-36.48s1.64-28.66,4.93-37.36c3.29-8.69,8.69-14.82,16.21-18.4,7.52-3.58,18.15-5.37,31.88-5.37,12.41,0,22.13,1.21,29.14,3.61,7.01,2.41,12.08,6.57,15.23,12.49,3.14,5.92,4.71,14.35,4.71,25.31,0,11.83-3.36,20.23-10.08,25.2-6.72,4.97-16.51,7.45-29.36,7.45h-25.2c.29,4.97,1.21,8.76,2.74,11.39,1.53,2.63,4.2,4.53,8,5.7,3.8,1.17,9.35,1.75,16.65,1.75h33.08v22.13c-6.87,1.9-13.62,3.36-20.27,4.38-6.65,1.02-14.35,1.53-23.11,1.53-13.73,0-24.47-1.75-32.21-5.26Zm36.15-63.98c3.65,0,6.28-.77,7.89-2.3,1.61-1.53,2.41-4.12,2.41-7.78,0-5.26-1.2-8.98-3.61-11.17-2.41-2.19-6.46-3.29-12.16-3.29-5.99,0-10.15,1.72-12.49,5.15-2.34,3.43-3.51,9.9-3.51,19.39h21.47Z"/><path class="h" d="M797.78,1943.82c-5.92-6.35-8.87-15.01-8.87-25.96v-83.69h37.9v71.86c0,5.26,1.2,8.91,3.62,10.95,2.41,2.05,5.95,3.07,10.63,3.07,3.07,0,6.5-.73,10.3-2.19,3.8-1.46,6.94-3.29,9.42-5.48v-78.22h37.68v117.87h-31.33l-6.35-11.61c-13.73,8.62-26.58,12.93-38.56,12.93-10.37,0-18.51-3.18-24.43-9.53Z"/><path class="h" d="M920.36,1834.16h31.33l6.57,11.61c4.23-3.65,9.6-6.83,16.1-9.53,6.5-2.7,12.82-4.05,18.95-4.05,13.73,0,23.26,3.8,28.59,11.39,5.33,7.6,8,18.11,8,31.55v76.9h-37.9v-71.86c0-9.35-4.6-14.02-13.8-14.02-7.16,0-13.8,2.56-19.94,7.67v78.22h-37.9v-117.87Z"/><path class="h" d="M1058.61,1939.66c-7.01-9.13-10.52-24.21-10.52-45.24,0-15.04,1.35-27.06,4.05-36.04,2.7-8.98,7.23-15.59,13.58-19.83,6.35-4.23,15.23-6.35,26.62-6.35,8.91,0,18.26,1.68,28.04,5.04v-52.36h37.9v167.17h-31.99l-5.92-10.95c-4.24,3.65-8.98,6.61-14.24,8.87-5.26,2.26-10.59,3.4-15.99,3.4-14.02,0-24.54-4.56-31.55-13.69Zm61.78-22.02v-53.02c-5.55-2.77-10.66-4.16-15.34-4.16-4.97,0-8.76,.84-11.39,2.52-2.63,1.68-4.57,4.79-5.81,9.31-1.24,4.53-1.86,11.25-1.86,20.16s.55,15.08,1.64,19.39c1.1,4.31,2.88,7.27,5.37,8.87,2.48,1.61,6.06,2.41,10.74,2.41,5.84,0,11.39-1.82,16.65-5.48Z"/><path class="h" d="M1198.83,1947.87c-7.74-3.51-13.4-9.53-16.98-18.08-3.58-8.54-5.37-20.7-5.37-36.48s1.64-28.66,4.93-37.36c3.29-8.69,8.69-14.82,16.21-18.4,7.52-3.58,18.15-5.37,31.88-5.37,12.41,0,22.13,1.21,29.14,3.61,7.01,2.41,12.08,6.57,15.23,12.49,3.14,5.92,4.71,14.35,4.71,25.31,0,11.83-3.36,20.23-10.08,25.2-6.72,4.97-16.51,7.45-29.36,7.45h-25.2c.29,4.97,1.21,8.76,2.74,11.39,1.53,2.63,4.2,4.53,8,5.7,3.8,1.17,9.35,1.75,16.65,1.75h33.08v22.13c-6.87,1.9-13.62,3.36-20.27,4.38-6.65,1.02-14.35,1.53-23.11,1.53-13.73,0-24.47-1.75-32.21-5.26Zm36.15-63.98c3.65,0,6.28-.77,7.89-2.3,1.61-1.53,2.41-4.12,2.41-7.78,0-5.26-1.2-8.98-3.61-11.17-2.41-2.19-6.46-3.29-12.16-3.29-5.99,0-10.15,1.72-12.49,5.15-2.34,3.43-3.51,9.9-3.51,19.39h21.47Z"/><path class="h" d="M1297.2,1834.16h29.36l8.55,17.09c4.38-5.84,9.05-10.44,14.02-13.8,4.96-3.36,10.59-5.04,16.87-5.04,3.65,0,6.72,.37,9.2,1.1v38.78c-6.43-.58-11.17-.88-14.24-.88-5.7,0-10.66,.88-14.9,2.63-4.24,1.75-7.89,4.46-10.95,8.11v69.89h-37.9v-117.87Z"/><path class="h" d="M1466.15,1952.71c-8.76-8.98-13.15-24.35-13.15-46.12,0-15.63,1.93-27.93,5.81-36.92,3.87-8.98,9.53-15.34,16.98-19.06,7.45-3.72,17.01-5.59,28.7-5.59,7.45,0,14.39,.48,20.81,1.42,6.43,.95,13.37,2.52,20.81,4.71v21.69h-29.58c-6.72,0-11.91,.95-15.56,2.85-3.65,1.9-6.24,5.19-7.78,9.86-1.53,4.68-2.3,11.54-2.3,20.59s.73,15.81,2.19,20.27c1.46,4.46,3.98,7.45,7.56,8.98,3.58,1.53,9.02,2.3,16.32,2.3h30.89v21.47c-5.7,2.05-12.71,3.72-21.03,5.04-8.33,1.31-16.21,1.97-23.66,1.97-15.92,0-28.26-4.49-37.03-13.47Z"/><path class="h" d="M1583.04,1960.16c-7.96-3.87-13.73-10.15-17.31-18.84-3.58-8.69-5.37-20.56-5.37-35.6,0-15.92,1.79-28.23,5.37-36.92,3.58-8.69,9.31-14.82,17.2-18.4,7.89-3.58,18.77-5.37,32.64-5.37s24.79,1.83,32.75,5.48c7.96,3.65,13.73,9.86,17.31,18.62,3.58,8.76,5.37,20.96,5.37,36.59s-1.72,27.53-5.15,36.15c-3.43,8.62-9.13,14.79-17.09,18.51-7.96,3.72-19.03,5.59-33.19,5.59s-24.58-1.93-32.53-5.81Zm43.27-26.18c2.34-1.31,4.05-4.13,5.15-8.44,1.1-4.31,1.64-10.99,1.64-20.05s-.55-15.7-1.64-19.94c-1.1-4.23-2.81-7.01-5.15-8.33-2.34-1.31-5.92-1.97-10.74-1.97s-8.36,.66-10.63,1.97c-2.27,1.31-3.94,4.05-5.04,8.22-1.1,4.16-1.64,10.85-1.64,20.05s.55,15.92,1.64,20.16c1.1,4.24,2.81,7.01,5.15,8.33,2.33,1.31,5.84,1.97,10.52,1.97s8.4-.66,10.74-1.97Z"/><path class="h" d="M1689.63,1847h31.33l6.57,11.61c4.23-3.65,9.6-6.83,16.1-9.53,6.5-2.7,12.82-4.05,18.95-4.05,13.73,0,23.26,3.8,28.59,11.39,5.33,7.6,8,18.11,8,31.55v76.9h-37.9v-71.86c0-9.35-4.6-14.02-13.8-14.02-7.16,0-13.8,2.56-19.94,7.67v78.22h-37.9v-117.87Z"/><path class="h" d="M1838.61,1964.65c-8.33-1.02-14.97-2.55-19.94-4.6v-22.13h53.46c3.65,0,6.21-.47,7.67-1.42,1.46-.95,2.19-2.74,2.19-5.37v-3.29c0-2.19-.77-3.87-2.3-5.04-1.53-1.17-4.27-1.75-8.22-1.75h-19.28c-10.96,0-19.68-2.59-26.18-7.78-6.5-5.18-9.75-13.55-9.75-25.09v-7.01c0-8.03,1.5-14.6,4.49-19.72,2.99-5.11,8.11-8.98,15.34-11.61,7.23-2.63,17.12-3.94,29.69-3.94,7.45,0,15.37,.62,23.77,1.86,8.4,1.24,14.71,2.67,18.95,4.27v22.13h-50.61c-3.36,0-5.77,.51-7.23,1.53-1.46,1.02-2.19,2.85-2.19,5.48v3.07c0,2.63,.84,4.42,2.52,5.37,1.68,.95,4.64,1.42,8.87,1.42h19.5c12.12,0,20.92,2.74,26.4,8.22,5.48,5.48,8.22,13.33,8.22,23.55v11.17c0,11.69-4.05,19.98-12.16,24.87-8.11,4.9-20.63,7.34-37.57,7.34-8.76,0-17.31-.51-25.63-1.53Z"/><path class="h" d="M1955.27,1960.82c-5.77-2.7-9.94-7.19-12.49-13.47-2.56-6.28-3.62-14.82-3.18-25.63l1.1-44.7h-18.19v-24.1l19.72-5.92,4.82-33.08h30.02v33.08h25.63v30.02h-25.63v44.48c0,4.68,.8,8.07,2.41,10.19,1.61,2.12,4.02,3.32,7.23,3.61l14.9,1.53v28.04h-23c-9.79,0-17.57-1.35-23.33-4.05Z"/><path class="h" d="M2018.48,1847h29.36l8.55,17.09c4.38-5.84,9.05-10.44,14.02-13.8,4.96-3.36,10.59-5.04,16.87-5.04,3.65,0,6.72,.37,9.2,1.1v38.78c-6.43-.58-11.17-.88-14.24-.88-5.7,0-10.66,.88-14.9,2.63-4.24,1.75-7.89,4.46-10.95,8.11v69.89h-37.9v-117.87Z"/><path class="h" d="M2120.47,1956.66c-5.92-6.35-8.87-15.01-8.87-25.96v-83.69h37.9v71.86c0,5.26,1.2,8.91,3.62,10.95,2.41,2.05,5.95,3.07,10.63,3.07,3.07,0,6.5-.73,10.3-2.19,3.8-1.46,6.94-3.29,9.42-5.48v-78.22h37.68v117.87h-31.33l-6.35-11.61c-13.73,8.62-26.58,12.93-38.56,12.93-10.37,0-18.51-3.18-24.43-9.53Z"/><path class="h" d="M2252.91,1952.71c-8.76-8.98-13.15-24.35-13.15-46.12,0-15.63,1.93-27.93,5.81-36.92,3.87-8.98,9.53-15.34,16.98-19.06,7.45-3.72,17.01-5.59,28.7-5.59,7.45,0,14.39,.48,20.81,1.42,6.43,.95,13.37,2.52,20.81,4.71v21.69h-29.58c-6.72,0-11.91,.95-15.56,2.85-3.65,1.9-6.24,5.19-7.78,9.86-1.53,4.68-2.3,11.54-2.3,20.59s.73,15.81,2.19,20.27c1.46,4.46,3.98,7.45,7.56,8.98,3.58,1.53,9.02,2.3,16.32,2.3h30.89v21.47c-5.7,2.05-12.71,3.72-21.03,5.04-8.33,1.31-16.21,1.97-23.66,1.97-15.92,0-28.26-4.49-37.03-13.47Z"/><path class="h" d="M2373.96,1960.82c-5.77-2.7-9.94-7.19-12.49-13.47-2.56-6.28-3.62-14.82-3.18-25.63l1.1-44.7h-18.19v-24.1l19.72-5.92,4.82-33.08h30.02v33.08h25.63v30.02h-25.63v44.48c0,4.68,.8,8.07,2.41,10.19,1.61,2.12,4.02,3.32,7.23,3.61l14.9,1.53v28.04h-23.01c-9.79,0-17.57-1.35-23.33-4.05Z"/><path class="h" d="M2438.04,1829.69c-.88-.88-1.31-2.04-1.31-3.51v-23.01c0-3.36,1.61-5.04,4.82-5.04h29.36c3.07,0,4.6,1.68,4.6,5.04v23.01c0,3.21-1.53,4.82-4.6,4.82h-29.36c-1.46,0-2.63-.44-3.51-1.31Zm-.88,17.31h37.9v117.87h-37.9v-117.87Z"/><path class="h" d="M2516.36,1960.16c-7.96-3.87-13.73-10.15-17.31-18.84-3.58-8.69-5.37-20.56-5.37-35.6,0-15.92,1.79-28.23,5.37-36.92,3.58-8.69,9.31-14.82,17.2-18.4,7.89-3.58,18.77-5.37,32.64-5.37s24.79,1.83,32.75,5.48c7.96,3.65,13.73,9.86,17.31,18.62,3.58,8.76,5.37,20.96,5.37,36.59s-1.72,27.53-5.15,36.15c-3.43,8.62-9.13,14.79-17.09,18.51-7.96,3.72-19.03,5.59-33.19,5.59s-24.58-1.93-32.53-5.81Zm43.27-26.18c2.34-1.31,4.05-4.13,5.15-8.44,1.1-4.31,1.64-10.99,1.64-20.05s-.55-15.7-1.64-19.94c-1.1-4.23-2.81-7.01-5.15-8.33-2.34-1.31-5.92-1.97-10.74-1.97s-8.36,.66-10.63,1.97c-2.27,1.31-3.94,4.05-5.04,8.22-1.1,4.16-1.64,10.85-1.64,20.05s.55,15.92,1.64,20.16c1.1,4.24,2.81,7.01,5.15,8.33,2.33,1.31,5.84,1.97,10.52,1.97s8.4-.66,10.74-1.97Z"/><path class="h" d="M2622.95,1847h31.33l6.57,11.61c4.23-3.65,9.6-6.83,16.1-9.53,6.5-2.7,12.82-4.05,18.95-4.05,13.73,0,23.26,3.8,28.59,11.39,5.33,7.6,8,18.11,8,31.55v76.9h-37.9v-71.86c0-9.35-4.6-14.02-13.8-14.02-7.16,0-13.8,2.56-19.94,7.67v78.22h-37.9v-117.87Z"/></g><g><path class="h" d="M606.71,2221.71h13.49l25.99,103.16,29.94-103.16h13.16l29.78,103.16,26-103.16h13.49l-31.1,121.09h-14.15l-30.6-102.83-30.77,102.83h-14.15l-31.1-121.09Z"/><path class="h" d="M781.68,2339.68c-5.21-2.74-8.97-7.35-11.27-13.82-2.3-6.47-3.46-15.52-3.46-27.15s1.18-20.84,3.54-27.31c2.36-6.47,6.17-11.02,11.43-13.66,5.27-2.63,12.56-3.95,21.88-3.95,8.01,0,14.42,.88,19.25,2.63,4.83,1.76,8.39,4.75,10.69,8.97,2.3,4.22,3.46,10.06,3.46,17.52s-2.17,12.86-6.5,16.21c-4.33,3.35-10.5,5.02-18.51,5.02h-32.25c.11,7.57,.88,13.41,2.3,17.52,1.42,4.11,4.06,7.13,7.9,9.05,3.84,1.92,9.38,2.88,16.62,2.88h28.3v7.9c-5.92,.77-11.19,1.34-15.8,1.73-4.61,.38-9.82,.58-15.63,.58-9.43,0-16.76-1.37-21.96-4.11Zm29.37-44.09c5.04,0,8.72-.93,11.02-2.8,2.3-1.86,3.46-5.1,3.46-9.71,0-7.35-1.62-12.42-4.85-15.22-3.24-2.8-8.86-4.2-16.86-4.2-6.36,0-11.24,.93-14.64,2.8-3.4,1.87-5.81,5.05-7.24,9.54-1.43,4.5-2.14,11.02-2.14,19.58h31.26Z"/><path class="h" d="M852.35,2256.1v-4.61c2.52,0,3.78-1.26,3.78-3.79v-8.23h-1.48c-.77,0-1.43-.27-1.97-.82-.55-.55-.82-1.32-.82-2.3v-13.16c0-2.19,.93-3.29,2.8-3.29h7.9c1.53,0,2.3,1.1,2.3,3.29v23.53c0,3.62-.93,6.14-2.8,7.57-1.87,1.43-4.06,2.14-6.58,2.14-.77,0-1.81-.11-3.13-.33Z"/><path class="h" d="M886.4,2254.94h9.87l3.12,15.3c4.28-5.15,8.89-9.16,13.82-12.01,4.94-2.85,10.37-4.28,16.29-4.28,2.96,0,5.7,.28,8.23,.82v13.33c-4.94-.55-8.12-.82-9.54-.82-5.82,0-10.83,1.04-15.06,3.13-4.22,2.08-8.8,5.43-13.74,10.04v62.36h-13v-87.86Z"/><path class="h" d="M965.78,2339.68c-5.21-2.74-8.97-7.35-11.27-13.82-2.3-6.47-3.46-15.52-3.46-27.15s1.18-20.84,3.54-27.31c2.36-6.47,6.17-11.02,11.43-13.66,5.27-2.63,12.56-3.95,21.88-3.95,8.01,0,14.42,.88,19.25,2.63,4.83,1.76,8.39,4.75,10.69,8.97,2.3,4.22,3.46,10.06,3.46,17.52s-2.17,12.86-6.5,16.21c-4.33,3.35-10.5,5.02-18.51,5.02h-32.25c.11,7.57,.88,13.41,2.3,17.52,1.42,4.11,4.06,7.13,7.9,9.05,3.84,1.92,9.38,2.88,16.62,2.88h28.3v7.9c-5.92,.77-11.19,1.34-15.8,1.73-4.61,.38-9.82,.58-15.63,.58-9.43,0-16.76-1.37-21.96-4.11Zm29.37-44.09c5.04,0,8.72-.93,11.02-2.8,2.3-1.86,3.46-5.1,3.46-9.71,0-7.35-1.62-12.42-4.85-15.22-3.24-2.8-8.86-4.2-16.86-4.2-6.36,0-11.24,.93-14.64,2.8-3.4,1.87-5.81,5.05-7.24,9.54-1.43,4.5-2.14,11.02-2.14,19.58h31.26Z"/><path class="h" d="M1093.29,2336.55c-3.78-4.28-5.68-11.57-5.68-21.88v-97.4h13v95.76c0,7.24,.99,12.17,2.96,14.81,1.97,2.63,5.1,4.22,9.38,4.77l8.89,.99v9.38h-11.19c-7.79,0-13.57-2.14-17.36-6.42Z"/><path class="h" d="M1137.05,2337.87c-4.11-3.95-6.17-9.32-6.17-16.12v-6.25c0-7.13,2.33-12.78,6.99-16.95,4.66-4.17,11.49-6.25,20.48-6.25h29.78v-10.86c0-5.92-1.62-10.31-4.85-13.16-3.24-2.85-9.19-4.28-17.85-4.28h-27.31v-7.73c10.31-1.75,21-2.63,32.08-2.63s18.45,2.17,23.44,6.5c4.99,4.33,7.49,11.22,7.49,20.65v62.03h-10.04l-2.47-10.04c-.77,.66-3.15,1.92-7.16,3.78-4.01,1.87-8.58,3.54-13.74,5.02-5.16,1.48-10.04,2.22-14.64,2.22-6.58,0-11.93-1.97-16.04-5.92Zm32.66-5.43c4.28-1.09,8.14-2.25,11.6-3.46,3.46-1.21,5.73-2.03,6.83-2.47v-27.64l-26.82,1.15c-6.03,.22-10.45,1.7-13.24,4.44-2.8,2.74-4.2,6.47-4.2,11.19v3.95c0,5.05,1.45,8.72,4.36,11.02,2.9,2.3,6.44,3.46,10.61,3.46,2.96,0,6.58-.55,10.86-1.65Z"/><path class="h" d="M1225.49,2316.81v-61.86h13v58.57c0,7.02,1.56,11.9,4.69,14.64,3.13,2.74,7.92,4.11,14.4,4.11,4.94,0,9.54-.68,13.82-2.06,4.28-1.37,8.77-3.48,13.49-6.33v-68.94h13v87.86h-10.2l-2.8-9.71c-11.19,7.13-22.21,10.7-33.07,10.7-17.55,0-26.32-8.99-26.32-26.98Z"/><path class="h" d="M1322.39,2254.94h10.2l2.8,9.71c4.61-3.18,9.71-5.84,15.3-7.98,5.59-2.14,11.19-3.21,16.78-3.21,9.1,0,15.9,2.8,20.4,8.39,4.5,5.59,6.75,12.67,6.75,21.22v59.72h-13v-58.24c0-5.7-1.62-10.34-4.85-13.9-3.24-3.56-7.71-5.35-13.41-5.35-5.27,0-9.95,.69-14.07,2.06-4.11,1.37-8.75,3.54-13.9,6.5v68.94h-13v-87.86Z"/><path class="h" d="M1425.14,2334c-6.09-6.53-9.13-18.18-9.13-34.96,0-11.74,1.4-20.89,4.2-27.48,2.8-6.58,6.77-11.16,11.93-13.74,5.16-2.58,11.57-3.87,19.25-3.87,10.53,0,20.24,.77,29.12,2.3v7.73h-25.67c-6.03,0-10.89,.99-14.56,2.96-3.68,1.97-6.47,5.51-8.39,10.61-1.92,5.1-2.88,12.37-2.88,21.8s1.01,15.99,3.04,20.98c2.03,4.99,4.91,8.45,8.64,10.37,3.73,1.92,8.5,2.88,14.31,2.88h26.82v7.57c-10.31,1.75-20.57,2.63-30.77,2.63-11.19,0-19.83-3.26-25.91-9.79Z"/><path class="h" d="M1499.75,2217.27h13v47.38c4.5-3.18,9.57-5.84,15.22-7.98,5.65-2.14,11.32-3.21,17.03-3.21,8.88,0,15.6,2.74,20.15,8.23,4.55,5.49,6.83,12.56,6.83,21.22v59.89h-13v-58.41c0-5.59-1.65-10.17-4.94-13.74-3.29-3.56-7.73-5.35-13.33-5.35-5.27,0-9.95,.69-14.07,2.06-4.11,1.37-8.75,3.54-13.9,6.5v68.94h-13v-125.53Z"/><path class="h" d="M1596.58,2238.57c-.49-.49-.74-1.12-.74-1.89v-12.83c0-1.75,.88-2.63,2.63-2.63h9.21c1.64,0,2.47,.88,2.47,2.63v12.83c0,1.76-.82,2.63-2.47,2.63h-9.21c-.77,0-1.4-.25-1.89-.74Zm-.08,16.37h13v87.86h-13v-87.86Z"/><path class="h" d="M1634.5,2254.94h10.2l2.8,9.71c4.61-3.18,9.71-5.84,15.3-7.98,5.59-2.14,11.19-3.21,16.78-3.21,9.1,0,15.9,2.8,20.4,8.39,4.5,5.59,6.75,12.67,6.75,21.22v59.72h-13v-58.24c0-5.7-1.62-10.34-4.85-13.9-3.24-3.56-7.71-5.35-13.41-5.35-5.27,0-9.95,.69-14.07,2.06-4.11,1.37-8.75,3.54-13.9,6.5v68.94h-13v-87.86Z"/><path class="h" d="M1809.72,2262.18l-19.74,1.64c2.19,1.43,4.03,2.88,5.51,4.36,1.48,1.48,2.8,3.73,3.95,6.75,1.15,3.02,1.73,6.83,1.73,11.44,0,7.68-2.47,14.04-7.4,19.08-4.94,5.05-12.83,7.57-23.69,7.57h-13.98c-4.94,0-8.67,.71-11.19,2.14-2.53,1.43-3.78,3.84-3.78,7.24,0,2.41,.9,4.22,2.71,5.43,1.81,1.21,3.98,1.81,6.5,1.81h29.12c10.2,0,17.79,1.97,22.79,5.92,4.99,3.95,7.49,10.04,7.49,18.26v3.62c0,8.12-2.77,14.42-8.31,18.92-5.54,4.5-13.57,6.75-24.1,6.75h-24.51c-8.89,0-15.93-1.84-21.14-5.51-5.21-3.68-7.82-9.08-7.82-16.21v-3.95c0-4.83,1.32-8.94,3.95-12.34,2.63-3.4,6.09-6.03,10.37-7.9-2.74-1.32-4.83-3.1-6.25-5.35-1.43-2.25-2.14-4.8-2.14-7.65,0-8.33,4.94-13.55,14.81-15.63-5.7-2.3-9.74-5.73-12.09-10.28-2.36-4.55-3.54-9.63-3.54-15.22,0-18.86,11.3-28.3,33.89-28.3h46.89v7.4Zm-54.62,77.66c-5.27,0-9.74,1.29-13.41,3.87-3.68,2.58-5.51,6.44-5.51,11.6v3.62c0,9.76,6.52,14.64,19.58,14.64h20.4c6.8,0,12.04-1.29,15.71-3.87,3.67-2.58,5.51-6.5,5.51-11.76v-3.29c0-4.72-1.48-8.37-4.44-10.94-2.96-2.58-8.01-3.87-15.14-3.87h-22.7Zm29.7-41.79c3.02-3.29,4.53-7.68,4.53-13.16,0-13.27-6.36-19.91-19.09-19.91h-9.38c-6.58,0-11.57,1.45-14.97,4.36-3.4,2.91-5.1,7.71-5.1,14.4,0,12.83,6.03,19.25,18.1,19.25h9.87c7.68,0,13.02-1.65,16.04-4.94Z"/><path class="h" d="M1882.11,2343.13c-7.46-.44-12.56-.99-15.3-1.64v-7.9h36.03c6.14,0,10.64-.82,13.49-2.47,2.85-1.65,4.28-5.1,4.28-10.37v-3.95c0-8.23-5.32-12.34-15.96-12.34h-12.34c-8.45,0-14.95-1.64-19.5-4.94-4.55-3.29-6.83-8.89-6.83-16.78v-4.61c0-8.33,2.44-14.42,7.32-18.26,4.88-3.84,12.75-5.76,23.61-5.76,4.72,0,10.28,.25,16.7,.74,6.42,.49,11.44,1.07,15.06,1.73v7.9h-33.89c-5.92,0-10.31,.99-13.16,2.96-2.85,1.97-4.28,5.54-4.28,10.69v3.62c0,4.72,1.4,7.87,4.2,9.46,2.8,1.59,7.1,2.39,12.92,2.39h12.5c8.01,0,14.2,1.87,18.59,5.59,4.39,3.73,6.58,9.11,6.58,16.12v6.09c0,8.34-2.69,14.15-8.06,17.44-5.38,3.29-13.16,4.94-23.36,4.94-4.94,0-11.13-.22-18.59-.66Z"/><path class="h" d="M1965.85,2340c-5.49-2.52-9.57-7.05-12.26-13.57-2.69-6.52-4.03-15.77-4.03-27.72s1.37-21.36,4.11-27.89c2.74-6.52,6.8-11,12.17-13.41,5.37-2.41,12.61-3.62,21.72-3.62s16.23,1.23,21.72,3.7c5.48,2.47,9.6,6.97,12.34,13.49,2.74,6.53,4.11,15.77,4.11,27.72s-1.37,21.2-4.11,27.72c-2.74,6.53-6.83,11.05-12.26,13.57-5.43,2.53-12.7,3.79-21.8,3.79s-16.23-1.26-21.72-3.79Zm35.95-9.29c3.46-1.59,6.11-4.85,7.98-9.79,1.86-4.94,2.8-12.34,2.8-22.21s-.9-17.25-2.71-22.13c-1.81-4.88-4.47-8.12-7.98-9.71-3.51-1.59-8.28-2.39-14.31-2.39s-10.94,.8-14.4,2.39c-3.46,1.59-6.09,4.83-7.9,9.71-1.81,4.88-2.71,12.26-2.71,22.13s.9,17.28,2.71,22.21c1.81,4.94,4.44,8.2,7.9,9.79,3.46,1.59,8.25,2.38,14.4,2.38s10.78-.79,14.23-2.38Z"/><path class="h" d="M2060.79,2340c-5.49-2.52-9.57-7.05-12.26-13.57-2.69-6.52-4.03-15.77-4.03-27.72s1.37-21.36,4.11-27.89c2.74-6.52,6.8-11,12.17-13.41,5.37-2.41,12.61-3.62,21.72-3.62s16.23,1.23,21.72,3.7c5.48,2.47,9.6,6.97,12.34,13.49,2.74,6.53,4.11,15.77,4.11,27.72s-1.37,21.2-4.11,27.72c-2.74,6.53-6.83,11.05-12.26,13.57-5.43,2.53-12.7,3.79-21.8,3.79s-16.23-1.26-21.72-3.79Zm35.95-9.29c3.46-1.59,6.11-4.85,7.98-9.79,1.86-4.94,2.8-12.34,2.8-22.21s-.9-17.25-2.71-22.13c-1.81-4.88-4.47-8.12-7.98-9.71-3.51-1.59-8.28-2.39-14.31-2.39s-10.94,.8-14.4,2.39c-3.45,1.59-6.09,4.83-7.9,9.71-1.81,4.88-2.71,12.26-2.71,22.13s.9,17.28,2.71,22.21c1.81,4.94,4.44,8.2,7.9,9.79,3.46,1.59,8.25,2.38,14.4,2.38s10.78-.79,14.23-2.38Z"/><path class="h" d="M2142.56,2254.94h10.2l2.8,9.71c4.61-3.18,9.71-5.84,15.3-7.98,5.59-2.14,11.19-3.21,16.78-3.21,9.1,0,15.9,2.8,20.4,8.39,4.5,5.59,6.75,12.67,6.75,21.22v59.72h-13v-58.24c0-5.7-1.62-10.34-4.85-13.9-3.24-3.56-7.71-5.35-13.41-5.35-5.27,0-9.95,.69-14.07,2.06-4.11,1.37-8.75,3.54-13.9,6.5v68.94h-13v-87.86Z"/><path class="h" d="M2237.74,2342.23c-.49-.49-.74-1.12-.74-1.89v-13.16c0-1.75,.88-2.63,2.63-2.63h7.24c1.75,0,2.63,.88,2.63,2.63v13.16c0,1.75-.88,2.63-2.63,2.63h-7.24c-.77,0-1.4-.25-1.89-.74Z"/></g><g><rect class="c" x="774.34" y="571.4" width="1303.84" height="840.61"/><rect class="f" x="1335.6" y="793.13" width="743.75" height="456.85" transform="translate(-135.76 272.2) rotate(-8.77)"/><g><rect class="f" x="1043.47" y="681.12" width="232.51" height="24.79"/><rect class="f" x="1043.47" y="728.69" width="158.83" height="21.41"/></g><rect class="f" x="1099.56" y="1276.52" width="187.6" height="44.65" rx="16.8" ry="16.8"/><rect class="f" x="889.58" y="1276.52" width="187.6" height="44.65" rx="16.8" ry="16.8"/><polyline class="d" points="1334.26 956.36 1362.65 843.43 1702.95 554.49 1991.62 755.29 2069.53 853.43"/><rect class="d" x="1342.81" y="776.48" width="743.75" height="456.85" transform="translate(-133.14 273.11) rotate(-8.77)"/><g><circle class="g" cx="1698.17" cy="482.31" r="29.24" transform="translate(156.34 1342.05) rotate(-45)"/><path class="e" d="M1696.84,498.26c1.93,6,3.54,14.54,0,22.59-3.92,8.91-11.25,9.39-13.29,17.28-1.99,7.71,1.61,19.85,11.96,23.92,8.99,3.54,19.88-.25,25.25-9.3"/></g><line class="d" x1="1700.83" y1="463.16" x2="1704.55" y2="150.19"/><circle class="c" cx="1652" cy="161.37" r="52.06" transform="translate(369.75 1215.41) rotate(-45)"/><line class="d" x1="1628.6" y1="113.3" x2="1030.3" y2="571.4"/><g><rect class="d" x="1035.88" y="690.82" width="232.51" height="24.79"/><rect class="d" x="1035.88" y="738.4" width="158.83" height="21.41"/></g><line class="d" x1="881.83" y1="860.64" x2="1289.17" y2="860.64"/><rect class="d" x="1088.37" y="1288.21" width="187.6" height="44.65" rx="16.8" ry="16.8"/><rect class="d" x="878.39" y="1288.21" width="187.6" height="44.65" rx="16.8" ry="16.8"/><circle class="f" cx="936.69" cy="728.69" r="58.3" transform="translate(12.28 1472.91) rotate(-76.72)"/><rect class="f" x="881.48" y="901.16" width="110.41" height="110.41" rx="12" ry="12"/><rect class="f" x="1030.3" y="901.16" width="110.41" height="110.41" rx="12" ry="12"/><rect class="f" x="886.92" y="1042.64" width="378.81" height="68.55"/><g><path class="b" d="M1897.25,1213.92l-103.27,15.43v-12.68l74.89-26.9,61.6-57.98,81.23-12.65c7.25,0,29.59-1.24,50.43-17.85,26.87-21.74,29.59-52.84,29.89-57.98h10.57c1.51,11.17,3.02,34.45-7.25,60.72-8.15,21.14-20.53,35-28.38,42.55l-169.7,67.34"/><path class="c" d="M1949.42,1574.48h28.38l-3.93-157.35,8.15-53.75c0-.27,.3-.6,.3-.91,2.72-3.02,6.04-8.15,7.55-15.1,1.51-7.55,0-13.86-1.51-17.82-.3-.3,0-.91,0-1.18-.6-.33-1.21-.63-1.81-.91-15.4-8.15-8.45-26-25.36-49.25-6.34-8.73-13.59-14.77-20.83-19.29l-28.69,153.66,37.74,161.88Z"/><path class="c" d="M2013.74,1438.78c-.3-.33-.6-.91-.6-1.24l3.62-73.38c0-.27,0-.6,.3-.88,5.74-8.79,9.66-18.12,10.87-28.08,.6-4.26,.6-8.49,.6-12.68-11.47,6.04-25.36,8.73-36.23,5.71,1.51,4.53,2.72,10.9,1.21,18.72-1.51,7.55-5.13,12.98-8.15,16.34l-8.15,53.11,.6,20.87,21.14,38.62,81.83,60.12,16.61-19.63-83.64-77.6Z"/><path class="c" d="M1939.89,1047.42c-2.11,6.82-7.39,28.34-3.87,41.97l1.06-.32c12.31-6.46,23.92-12.95,23.92-21.2-.35-6.46-7.74-13.63-21.11-20.45h0Z"/><path class="c" d="M2094.14,1042.53c.57,.56,1.08,.94,1.35,1.13h5.16c.71,0,1.31-.54,1.38-1.24,.74-7.71,.38-15.43-1.34-22.91-.49-2.06-1.02-4.02-1.55-5.79-.44-1.49-2.63-1.2-2.69,.35-.08,2.19-.1,4.96,.01,8.46,0,.94-.6,1.51-1.21,1.51-.6,.33-1.51,0-1.81-.91-.61-1.45-1.04-1.75-1.32-1.72-1.86,.17-4.66,14.61,2.01,21.13Z"/><path class="c" d="M1793.98,1229.34v-9.99c-18.12-3.02-20.23-.91-20.53-.91,0,0,.3,1.84,7.25,6.64,.6,.3,.91,1.24,.6,1.81-.3,.6-.6,1.21-1.51,1.21-14.19,1.81-26.43-.34-26.27,3.93,.18,4.84,12.38,2.99,20.23,2.66,6.94,0,13.89-3.84,20.23-5.35h0Z"/><path class="g" d="M1942,1026.18l-4.83,21.14s52.69,17.18-.91,43.15c0,0-39.67,17.5,1.21,41.67,0,0,57.54,30.88-33.52,80.35,0,0-43.58,17.02,45.59,52.53,10.06,7.67,14.48,15.4,16.65,21.12,3.42,9.02,1.95,14.9,6.34,24.98,3.32,7.62,7.97,13.01,11.38,16.36,5.74,1.8,14.72,3.66,25.27,1.92,26.95-4.44,40.47-28.46,42.44-32.1,0,0-60.93-58.82,0-75.64,0,0,75.25-40.04,0-83.6,0,0-50.71,9.55-35.07-77.8,0,0-1.25-48.58-74.54-34.08Z"/><polygon class="g" points="1945.63 1576.59 1892.04 1597.03 1975.22 1594.11 1977.64 1574.48 1945.63 1576.59"/><polygon class="g" points="2077.55 1539.82 2057.94 1590.1 2109.25 1531.89 2096.58 1516.74 2077.55 1539.82"/></g></g></svg>