<svg xmlns="http://www.w3.org/2000/svg" width="40" height="40" viewBox="0 0 40 40">
  <g id="Group_173131" data-name="Group 173131" transform="translate(-340 -1132)">
    <circle id="Ellipse_8251" data-name="Ellipse 8251" cx="20" cy="20" r="20" transform="translate(340 1132)" fill="#f58220"/>
    <g id="Group_173103" data-name="Group 173103" transform="translate(-123 896.5)">
      <path id="Path_128649" data-name="Path 128649" d="M0,0H19V19H0Z" transform="translate(474 245.5)" fill="rgba(0,0,0,0)" opacity="0"/>
      <g id="streamline-icon-alert-triangle_48x48" data-name="streamline-icon-alert-triangle@48x48" transform="translate(475.191 246.692)">
        <path id="Path_129798" data-name="Path 129798" d="M23.532,38.064a.282.282,0,1,1,0-.564" transform="translate(-15.221 -24.215)" fill="none" stroke="#fff" stroke-width="1.5"/>
        <path id="Path_129799" data-name="Path 129799" d="M24,38.064a.282.282,0,1,0,0-.564" transform="translate(-15.694 -24.215)" fill="none" stroke="#fff" stroke-width="1.5"/>
        <path id="Path_129800" data-name="Path 129800" d="M24,22.144V16.5" transform="translate(-15.692 -11.013)" fill="none" stroke="#fff" stroke-linecap="round" stroke-width="1.5"/>
        <path id="Path_129801" data-name="Path 129801" d="M11.006,2.246a1.334,1.334,0,0,0-2.394,0l-7,14.252a1.123,1.123,0,0,0,1.009,1.619H16.993A1.123,1.123,0,0,0,18,16.5Z" transform="translate(-1.5 -1.5)" fill="none" stroke="#fff" stroke-linecap="round" stroke-linejoin="round" stroke-width="1.5"/>
      </g>
    </g>
  </g>
</svg>
