<svg xmlns="http://www.w3.org/2000/svg" width="41.5" height="37.924" viewBox="0 0 41.5 37.924">
  <path id="components-icon1" d="M7.785,4.978A4.458,4.458,0,0,1,11.151,0h6.333a1.215,1.215,0,0,1,.9.461,1.58,1.58,0,0,1,.344,1.057V2.671a6.187,6.187,0,0,1-2.17,4.462.923.923,0,0,0-.274.367.172.172,0,0,1-.025.091h0v.061a1.179,1.179,0,0,0,.1.152,2.124,2.124,0,0,0,.673.577A5.825,5.825,0,0,0,20,9.11a5.825,5.825,0,0,0,2.967-.729,2.6,2.6,0,0,0,.676-.581.66.66,0,0,0,.1-.182h0s0-.091-.025-.091a1.239,1.239,0,0,0-.274-.367A6.1,6.1,0,0,1,21.277,2.7V1.548a1.522,1.522,0,0,1,.3-1.076,1.163,1.163,0,0,1,.9-.472h5.984A4.209,4.209,0,0,1,32.2,4.554v.456l-.6,8.68h.6c.474,0,1.047-.456,1.7-1.457a2.953,2.953,0,0,1,2.343-1.576,3.537,3.537,0,0,1,2.867,2.61,13.721,13.721,0,0,1,.873,4.978,13.212,13.212,0,0,1-.873,4.977,3.6,3.6,0,0,1-2.867,2.61,2.954,2.954,0,0,1-2.344-1.58c-.645-1-1.2-1.457-1.7-1.457h-.6l.6,8.651a4.416,4.416,0,0,1-3.366,4.979H22.472a1.215,1.215,0,0,1-.9-.461,1.58,1.58,0,0,1-.344-1.057V33.751a6.187,6.187,0,0,1,2.17-4.462.923.923,0,0,0,.274-.367s0-.061.025-.061h0a.894.894,0,0,0-.1-.212,2.124,2.124,0,0,0-.673-.577,5.825,5.825,0,0,0-2.967-.729,5.825,5.825,0,0,0-2.967.729,2.6,2.6,0,0,0-.673.577.66.66,0,0,0-.1.182h0s0,.091.025.091a1.558,1.558,0,0,0,.274.367,6.1,6.1,0,0,1,2.17,4.462v1.155a1.58,1.58,0,0,1-.344,1.057,1.215,1.215,0,0,1-.9.461h-5.96A4.21,4.21,0,0,1,7.74,31.872v-.456l.6-8.651h-.6c-.474,0-1.047.456-1.67,1.457A2.953,2.953,0,0,1,3.72,25.8a3.537,3.537,0,0,1-2.867-2.61A13.722,13.722,0,0,1-.02,18.212a13.212,13.212,0,0,1,.873-4.978A3.6,3.6,0,0,1,3.72,10.624,2.954,2.954,0,0,1,6.064,12.2c.623,1,1.2,1.457,1.67,1.457h.6L7.74,4.978Z" transform="translate(0.772 0.75)" fill="none" stroke="#7e2eef" stroke-width="1.5"/>
</svg>
