<svg xmlns="http://www.w3.org/2000/svg" width="41.516" height="41.502" viewBox="0 0 41.516 41.502">
  <g id="pages-icon1" transform="translate(0.28 0.753)">
    <path id="Path_130097" data-name="Path 130097" d="M12.829,0H34.954a5.3,5.3,0,0,1,5.532,5V30a5.3,5.3,0,0,1-5.532,5,5.3,5.3,0,0,1-5.532,5H7.3c-2.93.1-6.381-1.615-6.679-4.241s0-25.086,0-25.086C.751,7.793,4.366,4.9,7.3,5H29.423a5.3,5.3,0,0,1,5.532,5v25c.341.012,0-15.2,0-15.2s.474-10.334-1.362-13.367A7.219,7.219,0,0,0,29.423,5H7.3S9.9-.1,12.829,0Z" fill="none" stroke="#7e2eef" stroke-width="1.5"/>
  </g>
</svg>
