<svg id="bin" xmlns="http://www.w3.org/2000/svg" width="41.739" height="38.757" viewBox="0 0 41.739 38.757">
  <path id="Path_296" data-name="Path 296" d="M29.841,38.045H8.972A4.478,4.478,0,0,1,4.5,33.573V6.741A1.491,1.491,0,0,1,5.991,5.25H32.823a1.491,1.491,0,0,1,1.491,1.491V33.573a4.478,4.478,0,0,1-4.472,4.472ZM7.481,8.231V33.573a1.493,1.493,0,0,0,1.491,1.491H29.841a1.493,1.493,0,0,0,1.491-1.491V8.231Z" transform="translate(1.463 0.713)" fill="#fff"/>
  <path id="Line_165" data-name="Line 165" d="M.741,14.157A1.491,1.491,0,0,1-.75,12.666V.741a1.491,1.491,0,1,1,2.981,0V12.666A1.491,1.491,0,0,1,.741,14.157Z" transform="translate(15.657 15.657)" fill="#fff"/>
  <path id="Line_166" data-name="Line 166" d="M.741,14.157A1.491,1.491,0,0,1-.75,12.666V.741a1.491,1.491,0,1,1,2.981,0V12.666A1.491,1.491,0,0,1,.741,14.157Z" transform="translate(24.601 15.657)" fill="#fff"/>
  <path id="Line_167" data-name="Line 167" d="M39.5,2.231H.741a1.491,1.491,0,0,1,0-2.981H39.5a1.491,1.491,0,1,1,0,2.981Z" transform="translate(0.75 6.713)" fill="#fff"/>
  <path id="Path_297" data-name="Path 297" d="M11.972,2.25h8.944a4.478,4.478,0,0,1,4.472,4.472V9.7A1.491,1.491,0,0,1,23.9,11.194H8.991A1.491,1.491,0,0,1,7.5,9.7V6.722A4.478,4.478,0,0,1,11.972,2.25ZM22.407,8.213V6.722a1.493,1.493,0,0,0-1.491-1.491H11.972a1.493,1.493,0,0,0-1.491,1.491V8.213Z" transform="translate(4.425 -2.25)" fill="#fff"/>
</svg>
